GeoramaExtended-SemiBoldItalic.ufo
<glyph name="exclam" format="2">
  <advance width="299.13"/>
  <unicode hex="0021"/>
  <outline>
    <contour>
      <point x="86.38999999999999" y="261.25" type="line"/>
      <point x="206.47000000000003" y="261.25" type="line"/>
      <point x="292.855" y="740.0" type="line"/>
      <point x="154.075" y="740.0" type="line"/>
    </contour>
    <contour>
      <point x="35.47999999999999" y="45.97" type="curve" smooth="yes"/>
      <point x="35.02999999999999" y="10.925000000000002"/>
      <point x="54.849999999999994" y="-5.5"/>
      <point x="104.695" y="-5.5" type="curve" smooth="yes"/>
      <point x="165.435" y="-5.5"/>
      <point x="196.44" y="24.485000000000003"/>
      <point x="197.79" y="85.27000000000001" type="curve" smooth="yes"/>
      <point x="198.23999999999998" y="120.45000000000002"/>
      <point x="178.15" y="136.74"/>
      <point x="128.825" y="136.74" type="curve" smooth="yes"/>
      <point x="66.76" y="136.74"/>
      <point x="36.829999999999984" y="105.16"/>
    </contour>
  </outline>
</glyph>
<glyph name="numbersign" format="2">
  <advance width="833.01"/>
  <unicode hex="0023"/>
  <outline>
    <contour>
      <point x="161.27999999999997" y="440.53" type="line"/>
      <point x="258.32" y="440.53" type="line"/>
      <point x="193.17000000000002" y="256.185" type="line"/>
      <point x="100.58500000000001" y="256.185" type="line"/>
      <point x="84.895" y="159.79500000000002" type="line"/>
      <point x="162.68" y="159.79500000000002" type="line"/>
      <point x="108.41999999999999" y="0.0" type="line"/>
      <point x="244.38499999999996" y="0.0" type="line"/>
      <point x="298.195" y="159.79500000000002" type="line"/>
      <point x="430.87999999999994" y="159.79500000000002" type="line"/>
      <point x="377.07000000000005" y="0.0" type="line"/>
      <point x="512.735" y="0.0" type="line"/>
      <point x="566.545" y="159.79500000000002" type="line"/>
      <point x="679.9699999999999" y="159.79500000000002" type="line"/>
      <point x="695.1400000000001" y="256.185" type="line"/>
      <point x="598.12" y="256.185" type="line"/>
      <point x="662.185" y="440.53" type="line"/>
      <point x="755.8349999999999" y="440.53" type="line"/>
      <point x="771.87" y="536.48" type="line"/>
      <point x="692.99" y="536.48" type="line"/>
      <point x="749.045" y="700.0" type="line"/>
      <point x="613.215" y="700.0" type="line"/>
      <point x="557.1599999999999" y="536.48" type="line"/>
      <point x="424.475" y="536.48" type="line"/>
      <point x="480.53" y="700.0" type="line"/>
      <point x="344.865" y="700.0" type="line"/>
      <point x="288.81" y="536.48" type="line"/>
      <point x="176.93" y="536.48" type="line"/>
    </contour>
    <contour>
      <point x="393.985" y="440.53" type="line"/>
      <point x="526.6700000000001" y="440.53" type="line"/>
      <point x="461.68499999999995" y="256.185" type="line"/>
      <point x="329.0" y="256.185" type="line"/>
    </contour>
  </outline>
</glyph>
<glyph name="dollar" format="2">
  <advance width="833.01"/>
  <unicode hex="0024"/>
  <outline>
    <contour>
      <point x="760.48" y="670.18" type="line"/>
      <point x="716.7249999999999" y="683.81"/>
      <point x="645.7800000000001" y="704.3399999999999"/>
      <point x="550.6999999999999" y="708.855" type="curve"/>
      <point x="566.4" y="804.67" type="line"/>
      <point x="462.7" y="804.67" type="line"/>
      <point x="446.685" y="705.905" type="line"/>
      <point x="294.585" y="695.7349999999999"/>
      <point x="141.37" y="636.11"/>
      <point x="141.37" y="480.6599999999999" type="curve" smooth="yes"/>
      <point x="141.37" y="251.87999999999997"/>
      <point x="580.55" y="315.57000000000005"/>
      <point x="580.55" y="197.005" type="curve" smooth="yes"/>
      <point x="580.55" y="122.63999999999999"/>
      <point x="477.46" y="99.895"/>
      <point x="391.93499999999995" y="99.895" type="curve" smooth="yes"/>
      <point x="282.615" y="99.895"/>
      <point x="159.165" y="128.90500000000003"/>
      <point x="92.34" y="154.65" type="curve"/>
      <point x="48.66" y="43.225" type="line"/>
      <point x="113.16499999999999" y="21.610000000000003"/>
      <point x="217.77999999999997" y="-5.395"/>
      <point x="328.235" y="-8.625" type="curve"/>
      <point x="313.235" y="-105.0" type="line"/>
      <point x="416.55" y="-105.0" type="line"/>
      <point x="431.55" y="-6.07" type="line"/>
      <point x="579.15" y="8.445000000000002"/>
      <point x="735.53" y="61.03000000000001"/>
      <point x="735.53" y="219.68" type="curve" smooth="yes"/>
      <point x="735.53" y="445.205"/>
      <point x="295.53000000000003" y="378.785"/>
      <point x="295.53000000000003" y="500.7800000000001" type="curve" smooth="yes"/>
      <point x="295.53000000000003" y="574.52"/>
      <point x="397.40999999999997" y="597.4149999999998"/>
      <point x="474.97499999999997" y="597.4149999999998" type="curve" smooth="yes"/>
      <point x="571.1999999999999" y="597.4149999999998"/>
      <point x="652.4549999999998" y="583.2299999999999"/>
      <point x="719.11" y="559.32" type="curve"/>
    </contour>
  </outline>
</glyph>
<glyph name="ampersand" format="2">
  <advance width="883.4"/>
  <unicode hex="0026"/>
  <outline>
    <contour>
      <point x="356.895" y="-10.0" type="curve" smooth="yes"/>
      <point x="569.5899999999999" y="-10.0"/>
      <point x="723.655" y="98.75000000000001"/>
      <point x="766.3749999999999" y="301.305" type="curve"/>
      <point x="652.825" y="301.63" type="line"/>
      <point x="634.6949999999999" y="166.07000000000002"/>
      <point x="502.81499999999994" y="93.28500000000003"/>
      <point x="372.75" y="93.28500000000003" type="curve" smooth="yes"/>
      <point x="249.525" y="93.28500000000003"/>
      <point x="183.22000000000003" y="137.18"/>
      <point x="183.22000000000003" y="200.97" type="curve" smooth="yes"/>
      <point x="183.22000000000003" y="293.645"/>
      <point x="278.885" y="333.51"/>
      <point x="384.02000000000004" y="333.51" type="curve" smooth="yes"/>
      <point x="426.53000000000003" y="333.51" type="line"/>
      <point x="444.03999999999996" y="409.755" type="line"/>
      <point x="426.735" y="411.88500000000005" type="line" smooth="yes"/>
      <point x="340.075" y="420.995"/>
      <point x="286.94" y="451.245"/>
      <point x="286.94" y="511.71" type="curve" smooth="yes"/>
      <point x="286.94" y="564.3750000000001"/>
      <point x="335.095" y="611.93"/>
      <point x="419.04999999999995" y="611.93" type="curve" smooth="yes"/>
      <point x="472.245" y="611.93"/>
      <point x="524.915" y="592.1049999999999"/>
      <point x="566.5500000000001" y="558.605" type="curve"/>
      <point x="641.5949999999999" y="635.565" type="line"/>
      <point x="580.58" y="683.945"/>
      <point x="497.52500000000003" y="710.0"/>
      <point x="403.7" y="710.0" type="curve" smooth="yes"/>
      <point x="239.235" y="710.0"/>
      <point x="141.51" y="628.015"/>
      <point x="141.51" y="532.71" type="curve" smooth="yes"/>
      <point x="141.51" y="463.715"/>
      <point x="191.24499999999998" y="406.23999999999995"/>
      <point x="269.255" y="388.02" type="curve"/>
      <point x="129.755" y="375.1499999999999"/>
      <point x="34.81999999999999" y="310.595"/>
      <point x="34.81999999999999" y="188.845" type="curve" smooth="yes"/>
      <point x="34.81999999999999" y="69.61"/>
      <point x="140.665" y="-10.0"/>
    </contour>
    <contour>
      <point x="526.2699999999999" y="226.28000000000003" type="line"/>
      <point x="532.895" y="268.365"/>
      <point x="561.925" y="282.06"/>
      <point x="596.575" y="282.06" type="curve" smooth="yes"/>
      <point x="663.285" y="282.06"/>
      <point x="714.52" y="264.83"/>
      <point x="775.155" y="264.83" type="curve" smooth="yes"/>
      <point x="853.0949999999998" y="264.83"/>
      <point x="905.13" y="330.935"/>
      <point x="902.5499999999998" y="418.89" type="curve"/>
      <point x="817.6249999999999" y="420.105" type="line"/>
      <point x="816.28" y="371.08000000000004"/>
      <point x="787.2299999999999" y="352.835"/>
      <point x="736.58" y="352.835" type="curve" smooth="yes"/>
      <point x="680.4" y="352.835"/>
      <point x="643.7800000000001" y="373.985"/>
      <point x="584.81" y="373.985" type="curve" smooth="yes"/>
      <point x="507.7399999999999" y="373.985"/>
      <point x="455.905" y="323.53499999999997"/>
      <point x="448.74" y="248.59500000000003" type="curve"/>
    </contour>
  </outline>
</glyph>
<glyph name="parenleft" format="2">
  <advance width="398.705"/>
  <unicode hex="0028"/>
  <outline>
    <contour>
      <point x="74.17999999999999" y="105.39999999999999" type="curve" smooth="yes"/>
      <point x="74.17999999999999" y="-60.660000000000004"/>
      <point x="135.255" y="-195.185"/>
      <point x="288.69" y="-220.0" type="curve"/>
      <point x="305.855" y="-124.49999999999999" type="line"/>
      <point x="225.65999999999997" y="-99.21499999999999"/>
      <point x="187.75500000000002" y="-18.304999999999996"/>
      <point x="187.75500000000002" y="101.02" type="curve" smooth="yes"/>
      <point x="187.75500000000002" y="303.565"/>
      <point x="271.325" y="617.2850000000001"/>
      <point x="427.34" y="650.88" type="curve"/>
      <point x="441.475" y="749.865" type="line"/>
      <point x="181.99" y="722.69"/>
      <point x="74.17999999999999" y="364.615"/>
    </contour>
  </outline>
</glyph>
<glyph name="parenright" format="2">
  <advance width="398.705"/>
  <unicode hex="0029"/>
  <outline>
    <contour>
      <point x="321.275" y="423.97" type="curve" smooth="yes"/>
      <point x="321.275" y="593.845"/>
      <point x="259.705" y="725.185"/>
      <point x="105.955" y="750.0" type="curve"/>
      <point x="89.05999999999999" y="651.54" type="line"/>
      <point x="172.675" y="624.8149999999999"/>
      <point x="207.7" y="542.645"/>
      <point x="207.7" y="428.18" type="curve" smooth="yes"/>
      <point x="207.7" y="231.89000000000001"/>
      <point x="126.2" y="-85.16999999999999"/>
      <point x="-32.650000000000006" y="-120.52" type="curve"/>
      <point x="-46.65" y="-220.0" type="line"/>
      <point x="200.91" y="-191.14"/>
      <point x="321.275" y="153.44000000000005"/>
    </contour>
  </outline>
</glyph>
<glyph name="asterisk" format="2">
  <advance width="410.11"/>
  <unicode hex="002A"/>
  <outline>
    <contour>
      <point x="131.04" y="330.75" type="line"/>
      <point x="231.22" y="443.81" type="line"/>
      <point x="294.17" y="330.88500000000005" type="line"/>
      <point x="350.39500000000004" y="367.755" type="line"/>
      <point x="300.77" y="493.11499999999995" type="line"/>
      <point x="428.955" y="546.9399999999999" type="line"/>
      <point x="419.88" y="608.11" type="line"/>
      <point x="291.175" y="573.1099999999999" type="line"/>
      <point x="307.15" y="718.015" type="line"/>
      <point x="244.04500000000002" y="718.015" type="line"/>
      <point x="213.66" y="573.2450000000001" type="line"/>
      <point x="95.55999999999999" y="608.245" type="line"/>
      <point x="67.62" y="547.21" type="line"/>
      <point x="177.565" y="493.385" type="line"/>
      <point x="87.335" y="368.38500000000005" type="line"/>
    </contour>
  </outline>
</glyph>
<glyph name="plus" format="2">
  <advance width="556.705"/>
  <unicode hex="002B"/>
  <outline>
    <contour>
      <point x="188.85500000000002" y="92.79" type="line"/>
      <point x="309.78499999999997" y="92.79" type="line"/>
      <point x="334.33000000000004" y="250.44" type="line"/>
      <point x="497.11999999999995" y="250.44" type="line"/>
      <point x="515.685" y="364.0" type="line"/>
      <point x="352.895" y="364.0" type="line"/>
      <point x="378.14" y="521.4" type="line"/>
      <point x="257.97999999999996" y="521.4" type="line"/>
      <point x="231.965" y="364.0" type="line"/>
      <point x="70.195" y="364.0" type="line"/>
      <point x="51.63" y="250.44" type="line"/>
      <point x="214.17000000000002" y="250.44" type="line"/>
    </contour>
  </outline>
</glyph>
<glyph name="comma" format="2">
  <advance width="254.06"/>
  <unicode hex="002C"/>
  <outline>
    <contour>
      <point x="32.765" y="74.46" type="line"/>
      <point x="33.61" y="54.125"/>
      <point x="32.03999999999999" y="33.78000000000001"/>
      <point x="30.004999999999995" y="16.760000000000005" type="curve" smooth="yes"/>
      <point x="23.129999999999995" y="-48.805"/>
      <point x="-12.435000000000004" y="-127.435"/>
      <point x="-68.29" y="-174.435" type="curve"/>
      <point x="34.400000000000006" y="-196.60999999999999" type="line"/>
      <point x="113.15" y="-137.80499999999998"/>
      <point x="166.125" y="-44.085"/>
      <point x="166.125" y="41.81" type="curve" smooth="yes"/>
      <point x="166.125" y="54.86500000000001"/>
      <point x="164.63" y="67.305"/>
      <point x="161.63" y="78.79000000000002" type="curve"/>
    </contour>
  </outline>
</glyph>
<glyph name="hyphen" format="2">
  <advance width="396.09"/>
  <unicode hex="002D"/>
  <outline>
    <contour>
      <point x="46.224999999999994" y="235.48000000000002" type="line"/>
      <point x="336.635" y="235.48000000000002" type="line"/>
      <point x="355.995" y="352.82" type="line"/>
      <point x="65.58499999999998" y="352.82" type="line"/>
    </contour>
  </outline>
</glyph>
<glyph name="period" format="2">
  <advance width="259.065"/>
  <unicode hex="002E"/>
  <outline>
    <contour>
      <point x="14.94" y="46.465" type="curve" smooth="yes"/>
      <point x="14.49" y="11.255"/>
      <point x="34.14499999999999" y="-5.005000000000001"/>
      <point x="84.155" y="-5.005000000000001" type="curve" smooth="yes"/>
      <point x="144.89499999999998" y="-5.005000000000001"/>
      <point x="175.73499999999999" y="24.98"/>
      <point x="177.085" y="86.095" type="curve" smooth="yes"/>
      <point x="177.535" y="121.11000000000001"/>
      <point x="157.61" y="137.23499999999999"/>
      <point x="108.285" y="137.23499999999999" type="curve" smooth="yes"/>
      <point x="46.055" y="137.23499999999999"/>
      <point x="16.29" y="105.655"/>
    </contour>
  </outline>
</glyph>
<glyph name="slash" format="2">
  <advance width="456.7749999999999"/>
  <unicode hex="002F"/>
  <outline>
    <contour>
      <point x="-70.16499999999999" y="-210.0" type="line"/>
      <point x="45.510000000000005" y="-210.0" type="line"/>
      <point x="523.94" y="740.0" type="line"/>
      <point x="407.55" y="740.0" type="line"/>
    </contour>
  </outline>
</glyph>
<glyph name="zero" format="2">
  <advance width="833.55"/>
  <unicode hex="0030"/>
  <outline>
    <contour>
      <point x="400.94999999999993" y="-10.9" type="curve" smooth="yes"/>
      <point x="642.25" y="-10.9"/>
      <point x="794.3499999999999" y="161.84999999999997"/>
      <point x="794.3499999999999" y="411.75" type="curve" smooth="yes"/>
      <point x="794.3499999999999" y="605.5"/>
      <point x="676.1" y="710.45"/>
      <point x="456.05" y="710.45" type="curve" smooth="yes"/>
      <point x="210.2" y="710.45"/>
      <point x="62.649999999999984" y="536.95"/>
      <point x="62.649999999999984" y="289.69999999999993" type="curve" smooth="yes"/>
      <point x="62.649999999999984" y="96.45"/>
      <point x="181.8" y="-10.9"/>
    </contour>
    <contour>
      <point x="406.04999999999995" y="98.15" type="curve" smooth="yes"/>
      <point x="283.44999999999993" y="98.15"/>
      <point x="216.29999999999998" y="167.1"/>
      <point x="216.3" y="290.6" type="curve" smooth="yes"/>
      <point x="216.29999999999998" y="453.24999999999994"/>
      <point x="292.30000000000007" y="602.0"/>
      <point x="451.4" y="602.0" type="curve" smooth="yes"/>
      <point x="573.95" y="602.0"/>
      <point x="640.6999999999998" y="534.3499999999999"/>
      <point x="640.6999999999999" y="410.90000000000003" type="curve" smooth="yes"/>
      <point x="640.6999999999998" y="249.54999999999998"/>
      <point x="563.8499999999999" y="98.15"/>
    </contour>
  </outline>
</glyph>
<glyph name="one" format="2">
  <advance width="833.01"/>
  <unicode hex="0031"/>
  <outline>
    <contour>
      <point x="97.01999999999998" y="0.0" type="line"/>
      <point x="709.365" y="0.0" type="line"/>
      <point x="727.71" y="112.085" type="line"/>
      <point x="511.7049999999999" y="112.085" type="line"/>
      <point x="606.86" y="703.15" type="line"/>
      <point x="533.655" y="703.15" type="line"/>
      <point x="160.20999999999998" y="551.02" type="line"/>
      <point x="178.21999999999997" y="434.78" type="line"/>
      <point x="431.775" y="542.765" type="line"/>
      <point x="363.93499999999995" y="112.085" type="line"/>
      <point x="115.19999999999999" y="112.085" type="line"/>
    </contour>
  </outline>
</glyph>
<glyph name="two" format="2">
  <advance width="833.55"/>
  <unicode hex="0032"/>
  <outline>
    <contour>
      <point x="74.34999999999998" y="86.75000000000001" type="curve"/>
      <point x="62.8" y="0.0" type="line"/>
      <point x="706.65" y="0.0" type="line"/>
      <point x="725.15" y="111.2" type="line"/>
      <point x="322.9" y="111.2" type="line"/>
      <point x="575.4999999999999" y="263.4"/>
      <point x="696.9" y="371.85"/>
      <point x="696.9" y="522.2500000000001" type="curve" smooth="yes"/>
      <point x="696.9" y="636.4000000000001"/>
      <point x="598.0" y="710.0"/>
      <point x="442.40000000000003" y="710.0" type="curve" smooth="yes"/>
      <point x="340.44999999999993" y="710.0"/>
      <point x="229.0" y="680.9499999999999"/>
      <point x="152.09999999999997" y="638.0000000000001" type="curve"/>
      <point x="178.55000000000004" y="528.25" type="line"/>
      <point x="251.2" y="561.5"/>
      <point x="324.4" y="585.9499999999999"/>
      <point x="408.49999999999994" y="585.9499999999999" type="curve" smooth="yes"/>
      <point x="495.04999999999995" y="585.9499999999999"/>
      <point x="541.9499999999998" y="547.9499999999999"/>
      <point x="541.9499999999998" y="490.9" type="curve" smooth="yes"/>
      <point x="541.9499999999999" y="362.8"/>
      <point x="339.95" y="231.0"/>
    </contour>
  </outline>
</glyph>
<glyph name="three" format="2">
  <advance width="833.55"/>
  <unicode hex="0033"/>
  <outline>
    <contour>
      <point x="26.35" y="54.550000000000004" type="line"/>
      <point x="114.04999999999998" y="10.299999999999999"/>
      <point x="221.1" y="-9.95"/>
      <point x="346.8999999999999" y="-9.95" type="curve" smooth="yes"/>
      <point x="535.0000000000001" y="-9.95"/>
      <point x="729.65" y="54.2"/>
      <point x="729.65" y="228.04999999999998" type="curve" smooth="yes"/>
      <point x="729.65" y="309.50000000000006"/>
      <point x="680.6" y="354.0"/>
      <point x="594.8" y="372.0" type="curve"/>
      <point x="678.6" y="394.15000000000003"/>
      <point x="745.6999999999999" y="455.40000000000003"/>
      <point x="745.6999999999999" y="550.0500000000001" type="curve" smooth="yes"/>
      <point x="745.6999999999999" y="650.0"/>
      <point x="649.5500000000001" y="710.0"/>
      <point x="449.0" y="710.0" type="curve" smooth="yes"/>
      <point x="342.9" y="710.0"/>
      <point x="224.65" y="692.6999999999999"/>
      <point x="149.64999999999998" y="659.9" type="curve"/>
      <point x="171.14999999999995" y="553.9" type="line"/>
      <point x="243.35" y="579.5500000000001"/>
      <point x="333.95000000000005" y="594.6"/>
      <point x="411.05" y="594.6" type="curve" smooth="yes"/>
      <point x="527.5" y="594.6"/>
      <point x="594.5500000000001" y="565.55"/>
      <point x="594.5500000000001" y="509.50000000000006" type="curve" smooth="yes"/>
      <point x="594.5500000000001" y="447.9"/>
      <point x="537.6" y="409.70000000000005"/>
      <point x="423.8499999999999" y="409.70000000000005" type="curve" smooth="yes"/>
      <point x="252.39999999999992" y="409.70000000000005" type="line"/>
      <point x="235.24999999999997" y="307.65000000000003" type="line"/>
      <point x="414.40000000000003" y="307.65000000000003" type="line" smooth="yes"/>
      <point x="530.75" y="307.65000000000003"/>
      <point x="579.6500000000001" y="277.3999999999999"/>
      <point x="579.6500000000001" y="220.60000000000002" type="curve" smooth="yes"/>
      <point x="579.6500000000001" y="144.40000000000003"/>
      <point x="501.6500000000001" y="105.14999999999999"/>
      <point x="357.84999999999997" y="105.14999999999999" type="curve" smooth="yes"/>
      <point x="244.8" y="105.14999999999999"/>
      <point x="145.64999999999998" y="123.79999999999998"/>
      <point x="74.49999999999997" y="157.65" type="curve"/>
    </contour>
  </outline>
</glyph>
<glyph name="four" format="2">
  <advance width="833.55"/>
  <unicode hex="0034"/>
  <outline>
    <contour>
      <point x="29.400000000000006" y="137.74999999999997" type="line"/>
      <point x="471.79999999999995" y="137.74999999999997" type="line"/>
      <point x="449.7500000000001" y="-2.25" type="line"/>
      <point x="599.7" y="-2.25" type="line"/>
      <point x="621.75" y="137.74999999999997" type="line"/>
      <point x="758.3999999999999" y="137.74999999999997" type="line"/>
      <point x="774.5999999999998" y="240.20000000000002" type="line"/>
      <point x="638.45" y="240.20000000000002" type="line"/>
      <point x="712.4" y="698.1999999999999" type="line"/>
      <point x="608.55" y="701.8" type="line"/>
      <point x="41.54999999999998" y="223.99999999999997" type="line"/>
    </contour>
    <contour>
      <point x="200.39999999999998" y="240.20000000000002" type="line"/>
      <point x="535.6499999999999" y="520.9000000000001" type="line"/>
      <point x="489.7" y="240.20000000000002" type="line"/>
    </contour>
  </outline>
</glyph>
<glyph name="five" format="2">
  <advance width="833.55"/>
  <unicode hex="0035"/>
  <outline>
    <contour>
      <point x="48.649999999999984" y="53.74999999999999" type="line"/>
      <point x="128.55" y="10.05"/>
      <point x="224.49999999999997" y="-10.0"/>
      <point x="349.3499999999999" y="-10.0" type="curve" smooth="yes"/>
      <point x="627.0" y="-10.0"/>
      <point x="735.0999999999999" y="104.59999999999998"/>
      <point x="735.0999999999999" y="255.35000000000002" type="curve" smooth="yes"/>
      <point x="735.0999999999999" y="368.75"/>
      <point x="666.5" y="423.7"/>
      <point x="498.5" y="423.8" type="curve" smooth="yes"/>
      <point x="283.25000000000006" y="423.85" type="line"/>
      <point x="327.7000000000001" y="583.2500000000001" type="line"/>
      <point x="739.8499999999999" y="583.2500000000001" type="line"/>
      <point x="759.2999999999998" y="700.0" type="line"/>
      <point x="245.89999999999995" y="700.0" type="line"/>
      <point x="136.2" y="329.9" type="line"/>
      <point x="143.70000000000002" y="320.5" type="line"/>
      <point x="434.04999999999995" y="320.5" type="line" smooth="yes"/>
      <point x="549.75" y="320.5"/>
      <point x="590.8000000000001" y="296.2"/>
      <point x="590.8000000000001" y="236.45000000000002" type="curve" smooth="yes"/>
      <point x="590.8000000000001" y="163.25"/>
      <point x="516.15" y="103.50000000000001"/>
      <point x="358.29999999999995" y="103.50000000000001" type="curve" smooth="yes"/>
      <point x="246.95000000000002" y="103.50000000000001"/>
      <point x="155.35" y="128.2"/>
      <point x="93.6" y="158.75" type="curve"/>
    </contour>
  </outline>
</glyph>
<glyph name="six" format="2">
  <advance width="833.5499999999998"/>
  <unicode hex="0036"/>
  <note>
14
</note>
  <outline>
    <contour>
      <point x="403.4000000000001" y="-10.0" type="curve" smooth="yes"/>
      <point x="601.75" y="-10.0"/>
      <point x="769.3499999999999" y="59.100000000000016"/>
      <point x="769.3499999999999" y="245.95" type="curve" smooth="yes"/>
      <point x="769.3499999999999" y="371.00000000000006"/>
      <point x="673.0999999999999" y="445.99999999999994"/>
      <point x="498.25" y="445.99999999999994" type="curve" smooth="yes"/>
      <point x="397.84999999999997" y="445.99999999999994"/>
      <point x="286.49999999999994" y="422.7"/>
      <point x="208.24999999999997" y="371.25000000000006" type="curve"/>
      <point x="202.09999999999997" y="272.75" type="line"/>
      <point x="262.74999999999994" y="314.85"/>
      <point x="358.99999999999994" y="340.5"/>
      <point x="446.1499999999999" y="340.5" type="curve" smooth="yes"/>
      <point x="573.8000000000001" y="340.5"/>
      <point x="623.2499999999999" y="302.79999999999995"/>
      <point x="623.2499999999999" y="234.15000000000003" type="curve" smooth="yes"/>
      <point x="623.2499999999999" y="150.50000000000003"/>
      <point x="550.0" y="100.7"/>
      <point x="422.35" y="100.7" type="curve" smooth="yes"/>
      <point x="285.75000000000006" y="100.7"/>
      <point x="212.7" y="152.75000000000003"/>
      <point x="212.7" y="273.80000000000007" type="curve" smooth="yes"/>
      <point x="212.7" y="381.5"/>
      <point x="251.6" y="471.34999999999997"/>
      <point x="323.4" y="527.3500000000001" type="curve" smooth="yes"/>
      <point x="379.65000000000003" y="571.15"/>
      <point x="455.05000000000007" y="595.5999999999999"/>
      <point x="546.2499999999999" y="595.5999999999999" type="curve" smooth="yes"/>
      <point x="624.7" y="595.5999999999999"/>
      <point x="692.5500000000001" y="584.7"/>
      <point x="760.8" y="563.25" type="curve"/>
      <point x="803.3000000000001" y="669.5" type="line"/>
      <point x="741.1" y="692.6499999999999"/>
      <point x="648.3499999999999" y="710.0"/>
      <point x="543.3000000000001" y="710.0" type="curve" smooth="yes"/>
      <point x="257.5" y="710.0"/>
      <point x="70.39999999999999" y="541.55"/>
      <point x="70.39999999999999" y="269.49999999999994" type="curve" smooth="yes"/>
      <point x="70.39999999999999" y="77.1"/>
      <point x="192.59999999999997" y="-10.0"/>
    </contour>
  </outline>
</glyph>
<glyph name="seven" format="2">
  <advance width="833.01"/>
  <unicode hex="0037"/>
  <note>
9
</note>
  <outline>
    <contour>
      <point x="202.55499999999998" y="0.0" type="curve"/>
      <point x="356.795" y="0.0" type="line"/>
      <point x="380.285" y="126.255"/>
      <point x="440.9200000000001" y="217.275"/>
      <point x="586.0849999999999" y="385.33500000000004" type="curve" smooth="yes"/>
      <point x="775.3649999999999" y="603.925" type="line"/>
      <point x="791.11" y="700.0" type="line"/>
      <point x="150.91499999999996" y="700.0" type="line"/>
      <point x="132.33499999999998" y="580.375" type="line"/>
      <point x="597.3949999999999" y="580.375" type="line"/>
      <point x="427.0" y="391.10499999999996" type="line" smooth="yes"/>
      <point x="288.93" y="237.845"/>
      <point x="225.67499999999998" y="141.975"/>
    </contour>
  </outline>
</glyph>
<glyph name="eight" format="2">
  <advance width="836.6499999999999"/>
  <unicode hex="0038"/>
  <outline>
    <contour>
      <point x="388.29999999999995" y="-10.0" type="curve" smooth="yes"/>
      <point x="597.75" y="-10.0"/>
      <point x="766.8000000000001" y="42.04999999999999"/>
      <point x="766.8000000000001" y="215.64999999999998" type="curve" smooth="yes"/>
      <point x="766.8000000000001" y="460.75"/>
      <point x="269.7" y="363.5"/>
      <point x="269.7" y="515.85" type="curve" smooth="yes"/>
      <point x="269.7" y="577.9000000000001"/>
      <point x="340.85" y="605.75"/>
      <point x="460.74999999999994" y="605.75" type="curve" smooth="yes"/>
      <point x="584.1500000000001" y="605.75"/>
      <point x="635.5500000000001" y="572.15"/>
      <point x="635.5500000000001" y="517.8499999999999" type="curve" smooth="yes"/>
      <point x="635.5500000000001" y="456.35"/>
      <point x="595.1500000000001" y="424.0"/>
      <point x="516.6" y="391.45" type="curve"/>
      <point x="616.4999999999999" y="356.05" type="line"/>
      <point x="704.0499999999998" y="391.65000000000003"/>
      <point x="768.55" y="445.95"/>
      <point x="768.55" y="540.2000000000002" type="curve" smooth="yes"/>
      <point x="768.55" y="640.15"/>
      <point x="681.35" y="710.0"/>
      <point x="469.2" y="710.0" type="curve" smooth="yes"/>
      <point x="281.15" y="710.0"/>
      <point x="131.7" y="655.3000000000001"/>
      <point x="131.7" y="500.95" type="curve" smooth="yes"/>
      <point x="131.7" y="244.29999999999998"/>
      <point x="614.85" y="359.7"/>
      <point x="614.85" y="196.2" type="curve" smooth="yes"/>
      <point x="614.85" y="113.6"/>
      <point x="522.5" y="87.8"/>
      <point x="399.65000000000003" y="87.8" type="curve" smooth="yes"/>
      <point x="252.70000000000002" y="87.8"/>
      <point x="191.75" y="128.15"/>
      <point x="191.75" y="194.5" type="curve" smooth="yes"/>
      <point x="191.75" y="266.09999999999997"/>
      <point x="245.00000000000003" y="306.9"/>
      <point x="335.3999999999999" y="329.9" type="curve"/>
      <point x="233.34999999999997" y="375.7" type="line"/>
      <point x="123.69999999999997" y="352.1"/>
      <point x="45.69999999999999" y="278.90000000000003"/>
      <point x="45.69999999999999" y="179.85" type="curve" smooth="yes"/>
      <point x="45.69999999999999" y="63.25000000000001"/>
      <point x="146.54999999999998" y="-10.0"/>
    </contour>
  </outline>
</glyph>
<glyph name="nine" format="2">
  <advance width="833.5499999999998"/>
  <unicode hex="0039"/>
  <outline>
    <contour>
      <point x="458.4" y="710.0" type="curve" smooth="yes"/>
      <point x="233.05000000000004" y="710.0"/>
      <point x="92.94999999999999" y="622.8"/>
      <point x="92.94999999999999" y="451.65" type="curve" smooth="yes"/>
      <point x="92.94999999999999" y="325.7"/>
      <point x="189.7" y="254.0"/>
      <point x="364.55000000000007" y="254.0" type="curve" smooth="yes"/>
      <point x="464.95" y="254.0"/>
      <point x="575.7999999999998" y="277.29999999999995"/>
      <point x="654.0499999999998" y="328.74999999999994" type="curve"/>
      <point x="660.1999999999999" y="427.25" type="line"/>
      <point x="599.5500000000001" y="385.15000000000003"/>
      <point x="503.3" y="359.50000000000006"/>
      <point x="416.15000000000003" y="359.50000000000006" type="curve" smooth="yes"/>
      <point x="288.5" y="359.50000000000006"/>
      <point x="239.05000000000004" y="397.20000000000005"/>
      <point x="239.05000000000004" y="465.84999999999997" type="curve" smooth="yes"/>
      <point x="239.05000000000004" y="549.5"/>
      <point x="312.3" y="599.3"/>
      <point x="439.95" y="599.3" type="curve" smooth="yes"/>
      <point x="576.5499999999998" y="599.3"/>
      <point x="649.6" y="547.25"/>
      <point x="649.6" y="426.20000000000005" type="curve" smooth="yes"/>
      <point x="649.6" y="318.50000000000006"/>
      <point x="612.2500000000001" y="227.2"/>
      <point x="540.4499999999999" y="171.2" type="curve" smooth="yes"/>
      <point x="484.24999999999994" y="127.35"/>
      <point x="409.25" y="102.95"/>
      <point x="317.54999999999995" y="102.95" type="curve" smooth="yes"/>
      <point x="239.0999999999999" y="102.95"/>
      <point x="169.75000000000003" y="115.3"/>
      <point x="101.5" y="136.74999999999997" type="curve"/>
      <point x="58.99999999999998" y="30.499999999999996" type="line"/>
      <point x="121.19999999999997" y="7.3500000000000005"/>
      <point x="213.95" y="-10.0"/>
      <point x="319.0" y="-10.0" type="curve" smooth="yes"/>
      <point x="604.8" y="-10.0"/>
      <point x="791.9" y="158.45"/>
      <point x="791.9" y="429.9999999999999" type="curve" smooth="yes"/>
      <point x="791.9" y="617.9"/>
      <point x="675.4000000000001" y="710.0"/>
    </contour>
  </outline>
</glyph>
<glyph name="less" format="2">
  <advance width="556.3299999999999"/>
  <unicode hex="003C"/>
  <outline>
    <contour>
      <point x="469.365" y="59.655" type="line"/>
      <point x="487.43500000000006" y="174.675" type="line"/>
      <point x="178.075" y="303.96" type="line"/>
      <point x="529.4399999999999" y="433.16" type="line"/>
      <point x="547.51" y="549.37" type="line"/>
      <point x="66.34" y="366.69499999999994" type="line"/>
      <point x="47.255" y="246.385" type="line"/>
    </contour>
  </outline>
</glyph>
<glyph name="equal" format="2">
  <advance width="550.295"/>
  <unicode hex="003D"/>
  <outline>
    <contour>
      <point x="490.225" y="248.58999999999997" type="line"/>
      <point x="52.325" y="248.58999999999997" type="line"/>
      <point x="34.09" y="134.89499999999998" type="line"/>
      <point x="471.99" y="134.89499999999998" type="line"/>
    </contour>
    <contour>
      <point x="525.5250000000001" y="474.925" type="line"/>
      <point x="87.405" y="474.925" type="line"/>
      <point x="69.38999999999999" y="361.23" type="line"/>
      <point x="507.2900000000001" y="361.23" type="line"/>
    </contour>
  </outline>
</glyph>
<glyph name="greater" format="2">
  <advance width="556.3299999999999"/>
  <unicode hex="003E"/>
  <outline>
    <contour>
      <point x="499.65000000000003" y="245.98" type="line"/>
      <point x="517.9649999999999" y="360.51500000000004" type="line"/>
      <point x="96.655" y="545.25" type="line"/>
      <point x="77.815" y="433.475" type="line"/>
      <point x="387.85999999999996" y="304.095" type="line"/>
      <point x="36.714999999999996" y="175.12500000000003" type="line"/>
      <point x="18.125" y="59.385000000000005" type="line"/>
    </contour>
  </outline>
</glyph>
<glyph name="question" format="2">
  <advance width="560.825"/>
  <unicode hex="003F"/>
  <outline>
    <contour>
      <point x="193.77499999999998" y="260.75499999999994" type="line"/>
      <point x="313.56999999999994" y="260.75499999999994" type="line"/>
      <point x="324.485" y="320.61" type="line"/>
      <point x="474.47999999999996" y="374.02"/>
      <point x="580.1049999999999" y="435.69500000000005"/>
      <point x="580.1049999999999" y="577.38" type="curve" smooth="yes"/>
      <point x="580.1049999999999" y="696.6249999999999"/>
      <point x="471.51" y="750.0"/>
      <point x="349.92499999999995" y="750.0" type="curve" smooth="yes"/>
      <point x="261.16499999999996" y="750.0"/>
      <point x="152.0" y="723.345"/>
      <point x="74.94" y="676.8249999999999" type="curve"/>
      <point x="95.3" y="569.43" type="line"/>
      <point x="168.315" y="606.4699999999999"/>
      <point x="242.14" y="628.405"/>
      <point x="316.995" y="628.405" type="curve" smooth="yes"/>
      <point x="378.7349999999999" y="628.405"/>
      <point x="432.67499999999995" y="616.06"/>
      <point x="432.67499999999995" y="549.26" type="curve" smooth="yes"/>
      <point x="432.67499999999995" y="481.29"/>
      <point x="392.06499999999994" y="437.13"/>
      <point x="210.96" y="391.00499999999994" type="curve"/>
    </contour>
    <contour>
      <point x="144.135" y="45.145" type="curve" smooth="yes"/>
      <point x="144.45000000000002" y="10.310000000000002"/>
      <point x="163.655" y="-5.500000000000001"/>
      <point x="213.02" y="-5.500000000000001" type="curve" smooth="yes"/>
      <point x="273.58" y="-5.500000000000001"/>
      <point x="307.51" y="23.825000000000006"/>
      <point x="306.565" y="85.28500000000001" type="curve" smooth="yes"/>
      <point x="306.25" y="120.45000000000002"/>
      <point x="286.48999999999995" y="136.29"/>
      <point x="238.095" y="136.29" type="curve" smooth="yes"/>
      <point x="176.165" y="136.29"/>
      <point x="143.19" y="105.61000000000001"/>
    </contour>
  </outline>
</glyph>
<glyph name="at" format="2">
  <advance width="924.4"/>
  <unicode hex="0040"/>
  <outline>
    <contour>
      <point x="386.0" y="-121.5" type="curve" smooth="yes"/>
      <point x="461.29999999999995" y="-121.5"/>
      <point x="537.6500000000001" y="-104.45"/>
      <point x="608.0500000000001" y="-72.15" type="curve"/>
      <point x="596.4" y="-11.950000000000001" type="line"/>
      <point x="527.05" y="-39.8"/>
      <point x="454.04999999999995" y="-53.29999999999999"/>
      <point x="392.04999999999995" y="-53.29999999999999" type="curve" smooth="yes"/>
      <point x="220.65" y="-53.29999999999999"/>
      <point x="113.6" y="40.0"/>
      <point x="113.6" y="207.2" type="curve" smooth="yes"/>
      <point x="113.6" y="444.65000000000003"/>
      <point x="287.04999999999995" y="652.2"/>
      <point x="531.0" y="652.2" type="curve" smooth="yes"/>
      <point x="719.85" y="652.2"/>
      <point x="823.3999999999999" y="562.1500000000001"/>
      <point x="823.3999999999999" y="394.9" type="curve" smooth="yes"/>
      <point x="823.3999999999999" y="269.6"/>
      <point x="770.7499999999999" y="139.70000000000002"/>
      <point x="698.95" y="139.70000000000002" type="curve" smooth="yes"/>
      <point x="654.1" y="139.70000000000002"/>
      <point x="646.1500000000001" y="181.7"/>
      <point x="659.6999999999999" y="241.70000000000005" type="curve" smooth="yes"/>
      <point x="718.5999999999999" y="503.15" type="line"/>
      <point x="658.8499999999999" y="526.1"/>
      <point x="584.8499999999999" y="540.5000000000001"/>
      <point x="527.15" y="540.5000000000001" type="curve" smooth="yes"/>
      <point x="341.8" y="540.5000000000001"/>
      <point x="216.65" y="378.29999999999995"/>
      <point x="216.65" y="215.0" type="curve" smooth="yes"/>
      <point x="216.65" y="114.85000000000002"/>
      <point x="270.75" y="63.8"/>
      <point x="363.59999999999997" y="63.8" type="curve" smooth="yes"/>
      <point x="439.2" y="63.8"/>
      <point x="510.8999999999999" y="104.80000000000001"/>
      <point x="552.75" y="161.15" type="curve"/>
      <point x="561.2" y="91.85000000000001"/>
      <point x="606.65" y="57.6"/>
      <point x="674.0" y="57.6" type="curve" smooth="yes"/>
      <point x="812.8500000000001" y="57.6"/>
      <point x="897.8000000000002" y="225.24999999999994"/>
      <point x="897.8000000000002" y="401.24999999999994" type="curve" smooth="yes"/>
      <point x="897.8000000000002" y="600.95"/>
      <point x="760.7" y="719.8"/>
      <point x="545.6999999999999" y="719.8" type="curve" smooth="yes"/>
      <point x="244.75000000000003" y="719.8"/>
      <point x="38.099999999999994" y="488.15000000000003"/>
      <point x="38.099999999999994" y="197.79999999999998" type="curve" smooth="yes"/>
      <point x="38.099999999999994" y="-0.24999999999999512"/>
      <point x="171.19999999999996" y="-121.5"/>
    </contour>
    <contour>
      <point x="422.6" y="165.95" type="curve" smooth="yes"/>
      <point x="371.8" y="165.95"/>
      <point x="345.70000000000005" y="192.89999999999998"/>
      <point x="345.70000000000005" y="242.15" type="curve" smooth="yes"/>
      <point x="345.70000000000005" y="337.2"/>
      <point x="419.65000000000003" y="447.45000000000005"/>
      <point x="506.75" y="447.45000000000005" type="curve" smooth="yes"/>
      <point x="539.3" y="447.45000000000005"/>
      <point x="561.0999999999999" y="443.54999999999995"/>
      <point x="588.55" y="433.70000000000005" type="curve"/>
      <point x="546.05" y="250.99999999999997" type="line" smooth="yes"/>
      <point x="523.7499999999999" y="201.89999999999998"/>
      <point x="471.7" y="165.95"/>
    </contour>
  </outline>
</glyph>
<glyph name="A" format="2">
  <advance width="785.955"/>
  <unicode hex="0041"/>
  <anchor x="349.35699999999997" y="0.0" name="bottom"/>
  <anchor x="733.6349999999999" y="0.0" name="ogonek"/>
  <anchor x="461.24499999999995" y="700.0" name="top"/>
  <outline>
    <contour>
      <point x="-35.68" y="0.0" type="line"/>
      <point x="131.93" y="0.0" type="line"/>
      <point x="217.14999999999998" y="154.155" type="line"/>
      <point x="530.0600000000001" y="154.155" type="line"/>
      <point x="567.4" y="0.0" type="line"/>
      <point x="733.6349999999999" y="0.0" type="line"/>
      <point x="544.615" y="708.35" type="line"/>
      <point x="376.3499999999999" y="708.35" type="line"/>
    </contour>
    <contour>
      <point x="270.47" y="262.47999999999996" type="line"/>
      <point x="442.435" y="582.205" type="line"/>
      <point x="513.0699999999999" y="262.47999999999996" type="line"/>
    </contour>
  </outline>
</glyph>
<glyph name="B" format="2">
  <advance width="799.975"/>
  <unicode hex="0042"/>
  <outline>
    <contour>
      <point x="37.68499999999999" y="3.5149999999999997" type="line"/>
      <point x="198.96999999999997" y="-6.265000000000001"/>
      <point x="258.91499999999996" y="-10.0"/>
      <point x="372.60999999999996" y="-10.0" type="curve" smooth="yes"/>
      <point x="554.365" y="-10.0"/>
      <point x="759.3950000000001" y="34.27499999999999"/>
      <point x="759.3950000000001" y="234.42999999999998" type="curve" smooth="yes"/>
      <point x="759.3950000000001" y="311.83000000000004"/>
      <point x="706.9799999999999" y="365.625"/>
      <point x="633.0" y="378.92" type="curve"/>
      <point x="699.505" y="407.79"/>
      <point x="768.37" y="463.225"/>
      <point x="768.37" y="560.43" type="curve" smooth="yes"/>
      <point x="768.37" y="660.165"/>
      <point x="682.7099999999999" y="710.0"/>
      <point x="472.37499999999994" y="710.0" type="curve" smooth="yes"/>
      <point x="398.82499999999993" y="710.0"/>
      <point x="304.04499999999996" y="706.4350000000001"/>
      <point x="149.165" y="696.215" type="curve"/>
    </contour>
    <contour>
      <point x="253.39" y="405.26" type="line"/>
      <point x="281.915" y="589.495" type="line"/>
      <point x="347.575" y="593.59"/>
      <point x="389.345" y="597.2750000000001"/>
      <point x="449.5849999999999" y="597.2750000000001" type="curve" smooth="yes"/>
      <point x="568.245" y="597.2750000000001"/>
      <point x="614.91" y="576.1000000000001"/>
      <point x="614.91" y="517.91" type="curve" smooth="yes"/>
      <point x="614.91" y="441.985"/>
      <point x="535.9699999999999" y="405.26"/>
      <point x="481.825" y="405.26" type="curve" smooth="yes"/>
    </contour>
    <contour>
      <point x="236.38" y="307.04" type="line"/>
      <point x="465.7849999999999" y="307.04" type="line" smooth="yes"/>
      <point x="540.6600000000001" y="307.04"/>
      <point x="602.4000000000001" y="287.525"/>
      <point x="602.4000000000001" y="227.29" type="curve" smooth="yes"/>
      <point x="602.4000000000001" y="127.00500000000002"/>
      <point x="505.06000000000006" y="100.34"/>
      <point x="378.3449999999999" y="100.34" type="curve" smooth="yes"/>
      <point x="320.37499999999994" y="100.34"/>
      <point x="267.25" y="103.76500000000001"/>
      <point x="204.82999999999998" y="107.19" type="curve"/>
    </contour>
  </outline>
</glyph>
<glyph name="C" format="2">
  <advance width="785.45"/>
  <unicode hex="0043"/>
  <anchor x="419.69999999999993" y="0.0" name="bottom"/>
  <anchor x="517.4999999999999" y="700.0" name="top"/>
  <outline>
    <contour>
      <point x="451.09999999999997" y="-10.0" type="curve" smooth="yes"/>
      <point x="546.9000000000001" y="-10.0"/>
      <point x="630.6" y="1.3499999999999985"/>
      <point x="714.75" y="24.15" type="curve"/>
      <point x="702.5999999999999" y="137.85" type="line"/>
      <point x="631.7" y="121.39999999999999"/>
      <point x="558.8499999999999" y="108.95"/>
      <point x="474.44999999999993" y="108.95" type="curve" smooth="yes"/>
      <point x="306.5" y="108.95"/>
      <point x="211.65000000000003" y="161.04999999999998"/>
      <point x="211.65000000000003" y="290.05" type="curve" smooth="yes"/>
      <point x="211.65000000000003" y="471.79999999999995"/>
      <point x="321.6" y="591.05"/>
      <point x="510.49999999999994" y="591.05" type="curve" smooth="yes"/>
      <point x="595.4499999999999" y="591.05"/>
      <point x="680.25" y="576.0499999999998"/>
      <point x="751.95" y="555.9499999999999" type="curve"/>
      <point x="786.55" y="667.3499999999999" type="line"/>
      <point x="691.2500000000001" y="699.45"/>
      <point x="600.4" y="710.0"/>
      <point x="500.7999999999999" y="710.0" type="curve" smooth="yes"/>
      <point x="222.35" y="710.0"/>
      <point x="54.8" y="543.3"/>
      <point x="54.8" y="274.1" type="curve" smooth="yes"/>
      <point x="54.8" y="78.89999999999999"/>
      <point x="192.04999999999998" y="-10.0"/>
    </contour>
  </outline>
</glyph>
<glyph name="D" format="2">
  <advance width="862.7500000000001"/>
  <unicode hex="0044"/>
  <anchor x="372.04999999999995" y="0.0" name="bottom"/>
  <anchor x="433.79394999999994" y="350.0" name="center"/>
  <anchor x="448.7999999999999" y="700.0" name="top"/>
  <outline>
    <contour>
      <point x="358.94999999999993" y="-10.0" type="curve" smooth="yes"/>
      <point x="646.9" y="-10.0"/>
      <point x="828.9499999999999" y="130.85000000000002"/>
      <point x="828.9499999999999" y="404.65" type="curve" smooth="yes"/>
      <point x="828.9499999999999" y="623.4000000000001"/>
      <point x="675.6000000000001" y="710.0"/>
      <point x="431.65000000000003" y="710.0" type="curve" smooth="yes"/>
      <point x="342.25" y="710.0"/>
      <point x="253.10000000000002" y="707.0"/>
      <point x="149.05" y="700.4" type="curve"/>
      <point x="36.449999999999996" y="0.14999999999999963" type="line"/>
      <point x="138.74999999999997" y="-6.85"/>
      <point x="222.89999999999995" y="-10.0"/>
    </contour>
    <contour>
      <point x="370.99999999999994" y="98.5" type="curve" smooth="yes"/>
      <point x="302.40000000000003" y="98.5"/>
      <point x="262.25" y="100.55000000000001"/>
      <point x="204.14999999999998" y="103.85000000000001" type="curve"/>
      <point x="282.7" y="595.1000000000001" type="line"/>
      <point x="318.1" y="598.0000000000001"/>
      <point x="375.50000000000006" y="600.3499999999999"/>
      <point x="436.59999999999997" y="600.3499999999999" type="curve" smooth="yes"/>
      <point x="566.25" y="600.3499999999999"/>
      <point x="674.7" y="546.5"/>
      <point x="674.7" y="398.7" type="curve" smooth="yes"/>
      <point x="674.7" y="198.95000000000002"/>
      <point x="552.4499999999999" y="98.5"/>
    </contour>
  </outline>
</glyph>
<glyph name="E" format="2">
  <advance width="742.19"/>
  <unicode hex="0045"/>
  <anchor x="349.09000000000003" y="0.0" name="bottom"/>
  <anchor x="660.37" y="0.0" name="ogonek"/>
  <anchor x="448.03999999999996" y="700.0" name="top"/>
  <anchor x="96.03129999999999" y="700.0" name="topleft"/>
  <outline>
    <contour>
      <point x="36.42999999999999" y="0.0" type="line"/>
      <point x="660.37" y="0.0" type="line"/>
      <point x="680.6" y="121.69" type="line"/>
      <point x="203.95" y="121.69" type="line"/>
      <point x="231.67" y="300.54" type="line"/>
      <point x="659.7499999999998" y="300.54" type="line"/>
      <point x="679.7" y="418.38" type="line"/>
      <point x="250.69" y="418.38" type="line"/>
      <point x="276.61" y="578.1600000000001" type="line"/>
      <point x="731.23" y="578.1600000000001" type="line"/>
      <point x="751.52" y="700.0" type="line"/>
      <point x="148.58" y="700.0" type="line"/>
    </contour>
  </outline>
</glyph>
<glyph name="F" format="2">
  <advance width="705.755"/>
  <unicode hex="0046"/>
  <outline>
    <contour>
      <point x="36.625" y="0.0" type="line"/>
      <point x="186.955" y="0.0" type="line"/>
      <point x="226.82" y="243.58999999999997" type="line"/>
      <point x="619.3800000000001" y="243.58999999999997" type="line"/>
      <point x="638.495" y="366.5" type="line"/>
      <point x="246.39999999999998" y="366.5" type="line"/>
      <point x="278.98" y="576.3899999999999" type="line"/>
      <point x="727.2249999999999" y="576.3899999999999" type="line"/>
      <point x="747.9050000000001" y="700.0" type="line"/>
      <point x="149.03" y="700.0" type="line"/>
    </contour>
  </outline>
</glyph>
<glyph name="G" format="2">
  <advance width="814.05"/>
  <unicode hex="0047"/>
  <anchor x="406.42500000000007" y="0.0" name="bottom"/>
  <anchor x="517.915" y="700.0" name="top"/>
  <outline>
    <contour>
      <point x="416.44" y="-10.0" type="curve" smooth="yes"/>
      <point x="550.8299999999999" y="-10.0"/>
      <point x="651.6099999999999" y="14.665000000000001"/>
      <point x="719.0899999999999" y="43.25500000000001" type="curve"/>
      <point x="773.23" y="376.355" type="line"/>
      <point x="452.43499999999995" y="376.355" type="line"/>
      <point x="435.905" y="273.7" type="line"/>
      <point x="623.685" y="273.7" type="line"/>
      <point x="599.955" y="125.0" type="line"/>
      <point x="563.3999999999999" y="109.84000000000002"/>
      <point x="508.55499999999995" y="99.14500000000001"/>
      <point x="441.59" y="99.14500000000001" type="curve" smooth="yes"/>
      <point x="299.55" y="99.14500000000001"/>
      <point x="205.42" y="154.595"/>
      <point x="205.42" y="282.06" type="curve" smooth="yes"/>
      <point x="205.42" y="469.735"/>
      <point x="322.95500000000004" y="592.825"/>
      <point x="519.43" y="592.825" type="curve" smooth="yes"/>
      <point x="607.3249999999999" y="592.825"/>
      <point x="674.185" y="581.3399999999999"/>
      <point x="749.935" y="562.0500000000001" type="curve"/>
      <point x="794.5150000000001" y="672.9599999999999" type="line"/>
      <point x="708.0649999999999" y="698.8000000000001"/>
      <point x="617.4649999999999" y="710.0"/>
      <point x="514.495" y="710.0" type="curve" smooth="yes"/>
      <point x="215.935" y="710.0"/>
      <point x="53.155" y="531.92"/>
      <point x="53.155" y="269.625" type="curve" smooth="yes"/>
      <point x="53.155" y="84.45"/>
      <point x="196.32999999999998" y="-10.0"/>
    </contour>
  </outline>
</glyph>
<glyph name="H" format="2">
  <advance width="871.32"/>
  <unicode hex="0048"/>
  <anchor x="392.26905999999997" y="0.0" name="bottom"/>
  <anchor x="447.780335" y="350.0" name="center"/>
  <anchor x="503.15574499999997" y="700.0" name="top"/>
  <anchor x="87.000745" y="700.0" name="topleft"/>
  <outline>
    <contour>
      <point x="36.31" y="0.0" type="line"/>
      <point x="187.22500000000002" y="0.0" type="line"/>
      <point x="227.285" y="253.82000000000002" type="line"/>
      <point x="639.12" y="253.82000000000002" type="line"/>
      <point x="598.4549999999999" y="0.0" type="line"/>
      <point x="745.605" y="0.0" type="line"/>
      <point x="858.1450000000001" y="700.0" type="line"/>
      <point x="711.2149999999999" y="700.0" type="line"/>
      <point x="658.84" y="376.88" type="line"/>
      <point x="246.87000000000003" y="376.88" type="line"/>
      <point x="299.63000000000005" y="700.0" type="line"/>
      <point x="148.715" y="700.0" type="line"/>
    </contour>
  </outline>
</glyph>
<glyph name="I" format="2">
  <advance width="312.80499999999995"/>
  <unicode hex="0049"/>
  <anchor x="112.77312" y="0.0" name="bottom"/>
  <anchor x="187.58962000000002" y="1.65" name="ogonek"/>
  <anchor x="223.71023999999997" y="700.0" name="top"/>
  <anchor x="96.23164499999999" y="700.0" name="topleft"/>
  <outline>
    <contour>
      <point x="36.31" y="0.0" type="line"/>
      <point x="187.09" y="0.0" type="line"/>
      <point x="299.63000000000005" y="700.0" type="line"/>
      <point x="148.715" y="700.0" type="line"/>
    </contour>
  </outline>
</glyph>
<glyph name="J" format="2">
  <advance width="636.8299999999999"/>
  <unicode hex="004A"/>
  <anchor x="265.88825999999995" y="0.0" name="bottom"/>
  <anchor x="387.52" y="700.0" name="top"/>
  <outline>
    <contour>
      <point x="-20.205000000000002" y="31.099999999999998" type="line"/>
      <point x="56.9" y="7.050000000000001"/>
      <point x="141.855" y="-10.0"/>
      <point x="244.11499999999998" y="-10.0" type="curve" smooth="yes"/>
      <point x="427.445" y="-10.0"/>
      <point x="531.045" y="72.02"/>
      <point x="560.98" y="251.19" type="curve" smooth="yes"/>
      <point x="633.77" y="700.0" type="line"/>
      <point x="142.02" y="700.0" type="line"/>
      <point x="121.695" y="576.995" type="line"/>
      <point x="462.665" y="576.995" type="line"/>
      <point x="414.645" y="275.53499999999997" type="line" smooth="yes"/>
      <point x="396.01" y="157.185"/>
      <point x="327.925" y="113.83000000000001"/>
      <point x="228.61" y="113.83000000000001" type="curve" smooth="yes"/>
      <point x="153.625" y="113.83000000000001"/>
      <point x="90.67" y="130.67"/>
      <point x="19.665" y="150.265" type="curve"/>
    </contour>
  </outline>
</glyph>
<glyph name="K" format="2">
  <advance width="798.07"/>
  <unicode hex="004B"/>
  <anchor x="371.2" y="0.0" name="bottom"/>
  <anchor x="465.61999999999995" y="700.0" name="top"/>
  <outline>
    <contour>
      <point x="36.19" y="0.0" type="line"/>
      <point x="187.29" y="0.0" type="line"/>
      <point x="299.33" y="700.0" type="line"/>
      <point x="149.8" y="700.0" type="line"/>
    </contour>
    <contour>
      <point x="699.6199999999999" y="-9.8" type="curve" smooth="yes"/>
      <point x="708.8400000000001" y="-9.8"/>
      <point x="732.02" y="-7.71"/>
      <point x="739.69" y="-5.14" type="curve"/>
      <point x="757.25" y="126.68" type="line"/>
      <point x="750.3399999999999" y="126.91000000000003"/>
      <point x="744.16" y="126.44000000000001"/>
      <point x="737.8499999999999" y="126.44000000000001" type="curve" smooth="yes"/>
      <point x="688.5600000000001" y="126.44000000000001"/>
      <point x="647.84" y="145.42000000000004"/>
      <point x="576.8" y="200.76999999999998" type="curve" smooth="yes"/>
      <point x="237.24" y="465.98" type="line"/>
      <point x="213.83999999999997" y="317.23" type="line"/>
      <point x="496.46000000000004" y="80.71" type="line" smooth="yes"/>
      <point x="575.08" y="18.32"/>
      <point x="636.6600000000001" y="-9.8"/>
    </contour>
    <contour>
      <point x="393.55999999999995" y="295.52" type="line"/>
      <point x="535.19" y="357.71"/>
      <point x="723.98" y="487.33000000000004"/>
      <point x="821.88" y="636.6800000000001" type="curve"/>
      <point x="721.57" y="712.13" type="line"/>
      <point x="600.4399999999999" y="556.61"/>
      <point x="430.87000000000006" y="437.33000000000004"/>
      <point x="302.21999999999997" y="374.77" type="curve"/>
    </contour>
  </outline>
</glyph>
<glyph name="L" format="2">
  <advance width="680.24"/>
  <unicode hex="004C"/>
  <anchor x="327.74" y="0.0" name="bottom"/>
  <anchor x="350.620335" y="350.0" name="center"/>
  <anchor x="223.88" y="700.0" name="top"/>
  <anchor x="490.4849999999999" y="700.0" name="topright"/>
  <outline>
    <contour>
      <point x="36.175" y="0.0" type="line"/>
      <point x="614.5649999999999" y="0.0" type="line"/>
      <point x="635.44" y="121.245" type="line"/>
      <point x="207.06" y="121.245" type="line"/>
      <point x="299.495" y="700.0" type="line"/>
      <point x="148.715" y="700.0" type="line"/>
    </contour>
  </outline>
</glyph>
<glyph name="M" format="2">
  <advance width="969.9599999999998"/>
  <unicode hex="004D"/>
  <outline>
    <contour>
      <point x="36.00999999999999" y="0.0" type="line"/>
      <point x="177.565" y="0.0" type="line"/>
      <point x="255.95" y="505.69" type="line"/>
      <point x="435.7149999999999" y="185.58999999999997" type="line"/>
      <point x="502.59999999999997" y="185.58999999999997" type="line"/>
      <point x="787.5449999999998" y="509.645" type="line"/>
      <point x="704.7949999999998" y="0.0" type="line"/>
      <point x="844.2449999999999" y="0.0" type="line"/>
      <point x="956.7849999999999" y="700.0" type="line"/>
      <point x="799.3799999999999" y="700.0" type="line"/>
      <point x="490.8499999999999" y="339.645" type="line"/>
      <point x="295.815" y="700.0" type="line"/>
      <point x="148.715" y="700.0" type="line"/>
    </contour>
  </outline>
</glyph>
<glyph name="N" format="2">
  <advance width="845.5749999999999"/>
  <unicode hex="004E"/>
  <anchor x="378.1221" y="0.0" name="bottom"/>
  <anchor x="491.1860749999999" y="700.0" name="top"/>
  <outline>
    <contour>
      <point x="36.39999999999999" y="0.0" type="line"/>
      <point x="172.725" y="0.0" type="line"/>
      <point x="250.89999999999998" y="488.79999999999995" type="line"/>
      <point x="584.975" y="-3.15" type="line"/>
      <point x="719.0249999999999" y="-3.15" type="line"/>
      <point x="832.4" y="700.0" type="line"/>
      <point x="696.025" y="700.0" type="line"/>
      <point x="615.6499999999999" y="199.375" type="line"/>
      <point x="284.275" y="703.15" type="line"/>
      <point x="149.77499999999998" y="703.15" type="line"/>
    </contour>
  </outline>
</glyph>
<glyph name="O" format="2">
  <advance width="885.8500000000001"/>
  <unicode hex="004F"/>
  <note>
8
</note>
  <anchor x="400.0" y="0.0" name="bottom"/>
  <anchor x="455.95000000000005" y="350.0" name="center"/>
  <anchor x="499.15" y="2.7755575615628914e-17" name="ogonek"/>
  <anchor x="501.79999999999995" y="700.0" name="top"/>
  <anchor x="90.14999999999999" y="700.0" name="topleft"/>
  <anchor x="724.6500000000001" y="680.2" name="topright"/>
  <outline>
    <contour>
      <point x="427.0999999999999" y="-8.45" type="curve" smooth="yes"/>
      <point x="700.55" y="-8.45"/>
      <point x="850.8" y="154.25"/>
      <point x="851.3499999999999" y="401.8499999999999" type="curve" smooth="yes"/>
      <point x="851.75" y="601.15"/>
      <point x="730.4000000000001" y="708.9"/>
      <point x="482.25" y="708.9" type="curve" smooth="yes"/>
      <point x="208.79999999999995" y="708.9"/>
      <point x="58.55" y="546.1999999999999"/>
      <point x="57.99999999999999" y="298.6000000000001" type="curve" smooth="yes"/>
      <point x="57.599999999999994" y="99.3"/>
      <point x="178.95000000000002" y="-8.45"/>
    </contour>
    <contour>
      <point x="436.29999999999995" y="103.89999999999999" type="curve" smooth="yes"/>
      <point x="286.65" y="103.89999999999999"/>
      <point x="211.15" y="165.00000000000006"/>
      <point x="211.15" y="299.59999999999997" type="curve" smooth="yes"/>
      <point x="211.15" y="467.2"/>
      <point x="299.75" y="596.55"/>
      <point x="473.4999999999999" y="596.55" type="curve" smooth="yes"/>
      <point x="622.6999999999999" y="596.55"/>
      <point x="698.1999999999999" y="535.4"/>
      <point x="698.1999999999999" y="400.8" type="curve" smooth="yes"/>
      <point x="698.1999999999999" y="233.20000000000002"/>
      <point x="609.6000000000001" y="103.89999999999999"/>
    </contour>
  </outline>
</glyph>
<glyph name="P" format="2">
  <advance width="815.7499999999999"/>
  <unicode hex="0050"/>
  <outline>
    <contour>
      <point x="36.4" y="0.0" type="line"/>
      <point x="186.575" y="0.0" type="line"/>
      <point x="220.875" y="208.775" type="line"/>
      <point x="304.45" y="205.22499999999997"/>
      <point x="342.87499999999994" y="204.27499999999998"/>
      <point x="405.34999999999997" y="204.27499999999998" type="curve" smooth="yes"/>
      <point x="697.5000000000001" y="204.27499999999998"/>
      <point x="813.65" y="293.95"/>
      <point x="814.325" y="495.125" type="curve" smooth="yes"/>
      <point x="814.55" y="650.3249999999999"/>
      <point x="712.5999999999999" y="710.0"/>
      <point x="457.32500000000005" y="710.0" type="curve" smooth="yes"/>
      <point x="408.44999999999993" y="710.0"/>
      <point x="321.79999999999995" y="707.45"/>
      <point x="149.325" y="700.7249999999999" type="curve"/>
    </contour>
    <contour>
      <point x="282.20000000000005" y="591.425" type="line"/>
      <point x="375.425" y="595.5500000000001"/>
      <point x="408.325" y="596.95"/>
      <point x="460.65" y="596.95" type="curve" smooth="yes"/>
      <point x="608.4" y="596.95"/>
      <point x="659.4749999999999" y="564.55"/>
      <point x="659.4749999999999" y="479.9" type="curve" smooth="yes"/>
      <point x="659.4749999999999" y="375.925"/>
      <point x="596.5999999999999" y="318.7"/>
      <point x="400.275" y="318.7" type="curve" smooth="yes"/>
      <point x="348.975" y="318.7"/>
      <point x="311.525" y="320.375"/>
      <point x="239.55" y="323.15000000000003" type="curve"/>
    </contour>
  </outline>
</glyph>
<glyph name="Q" format="2">
  <advance width="884.295"/>
  <unicode hex="0051"/>
  <note>
14
</note>
  <outline>
    <contour>
      <point x="626.67" y="-201.78500000000003" type="curve" smooth="yes"/>
      <point x="668.7149999999999" y="-201.78500000000003"/>
      <point x="707.0999999999999" y="-193.585"/>
      <point x="745.5899999999999" y="-178.15" type="curve"/>
      <point x="745.83" y="-66.38499999999999" type="line"/>
      <point x="721.9" y="-78.16499999999999"/>
      <point x="697.175" y="-83.315"/>
      <point x="669.1949999999999" y="-83.315" type="curve" smooth="yes"/>
      <point x="606.255" y="-83.315"/>
      <point x="549.19" y="-45.245"/>
      <point x="528.58" y="20.810000000000002" type="curve"/>
      <point x="392.46999999999997" y="4.6850000000000005" type="line"/>
      <point x="426.02" y="-139.58"/>
      <point x="518.095" y="-201.78500000000003"/>
    </contour>
    <component base="O"/>
  </outline>
</glyph>
<glyph name="R" format="2">
  <advance width="846.4500000000002"/>
  <unicode hex="0052"/>
  <anchor x="402.05" y="0.0" name="bottom"/>
  <anchor x="450.25000000000006" y="700.0" name="top"/>
  <outline>
    <contour>
      <point x="36.400000000000006" y="0.0" type="line"/>
      <point x="187.8" y="0.0" type="line"/>
      <point x="228.0" y="247.69999999999996" type="line"/>
      <point x="306.45000000000005" y="245.84999999999997"/>
      <point x="379.85" y="245.35000000000002"/>
      <point x="467.29999999999995" y="244.8" type="curve"/>
      <point x="509.74999999999994" y="254.7" type="line"/>
      <point x="692.6999999999999" y="255.59999999999997"/>
      <point x="805.65" y="352.65"/>
      <point x="805.65" y="508.25" type="curve" smooth="yes"/>
      <point x="805.65" y="638.3"/>
      <point x="719.6500000000001" y="710.0"/>
      <point x="459.19999999999993" y="710.0" type="curve" smooth="yes"/>
      <point x="384.4" y="710.0"/>
      <point x="289.1499999999999" y="707.4000000000001"/>
      <point x="149.04999999999995" y="700.85" type="curve"/>
    </contour>
    <contour>
      <point x="752.8" y="-10.0" type="curve" smooth="yes"/>
      <point x="761.1499999999999" y="-10.0"/>
      <point x="783.05" y="-8.45"/>
      <point x="790.35" y="-6.35" type="curve"/>
      <point x="807.0999999999999" y="121.5" type="line"/>
      <point x="801.55" y="120.5"/>
      <point x="792.1999999999999" y="120.5"/>
      <point x="786.95" y="120.5" type="curve" smooth="yes"/>
      <point x="724.0999999999999" y="120.5"/>
      <point x="629.7" y="188.6"/>
      <point x="550.1499999999997" y="299.55" type="curve"/>
      <point x="391.8999999999999" y="265.65" type="line"/>
      <point x="520.4" y="92.94999999999999"/>
      <point x="632.2" y="-10.0"/>
    </contour>
    <contour>
      <point x="454.95" y="352.40000000000003" type="curve" smooth="yes"/>
      <point x="365.49999999999994" y="352.40000000000003"/>
      <point x="304.45" y="353.95"/>
      <point x="245.19999999999996" y="357.9" type="curve"/>
      <point x="282.65" y="596.6" type="line"/>
      <point x="361.85" y="600.5000000000001"/>
      <point x="383.95" y="601.45"/>
      <point x="453.3499999999999" y="601.45" type="curve" smooth="yes"/>
      <point x="606.35" y="601.45"/>
      <point x="647.1499999999999" y="567.7999999999998"/>
      <point x="647.1499999999999" y="495.0" type="curve" smooth="yes"/>
      <point x="647.1499999999999" y="395.5"/>
      <point x="573.6" y="352.40000000000003"/>
    </contour>
  </outline>
</glyph>
<glyph name="S" format="2">
  <advance width="756.0999999999999"/>
  <unicode hex="0053"/>
  <anchor x="353.74999999999994" y="0.0" name="bottom"/>
  <anchor x="447.84999999999997" y="700.0" name="top"/>
  <outline>
    <contour>
      <point x="736.25" y="670.55" type="line"/>
      <point x="641.3499999999999" y="697.0500000000001"/>
      <point x="558.6999999999998" y="710.0"/>
      <point x="461.79999999999995" y="710.0" type="curve" smooth="yes"/>
      <point x="207.54999999999995" y="710.0"/>
      <point x="82.35" y="630.0"/>
      <point x="82.35" y="493.0" type="curve" smooth="yes"/>
      <point x="82.35" y="239.1"/>
      <point x="552.15" y="330.0"/>
      <point x="552.15" y="192.95000000000002" type="curve" smooth="yes"/>
      <point x="552.15" y="138.90000000000003"/>
      <point x="491.65000000000003" y="102.25"/>
      <point x="366.1499999999999" y="102.25" type="curve" smooth="yes"/>
      <point x="252.2" y="102.25"/>
      <point x="134.30000000000004" y="125.00000000000001"/>
      <point x="33.4" y="158.85" type="curve"/>
      <point x="-11.750000000000002" y="45.400000000000006" type="line"/>
      <point x="89.7" y="11.399999999999997"/>
      <point x="212.55" y="-10.0"/>
      <point x="338.0499999999999" y="-10.0" type="curve" smooth="yes"/>
      <point x="600.0" y="-10.0"/>
      <point x="712.15" y="75.25"/>
      <point x="712.15" y="214.4" type="curve" smooth="yes"/>
      <point x="712.6" y="452.55"/>
      <point x="241.7" y="374.5"/>
      <point x="241.7" y="505.75000000000006" type="curve" smooth="yes"/>
      <point x="241.7" y="565.5"/>
      <point x="308.95" y="595.7499999999999"/>
      <point x="430.99999999999994" y="595.7499999999999" type="curve" smooth="yes"/>
      <point x="530.4499999999998" y="595.7499999999999"/>
      <point x="615.7" y="582.7999999999998"/>
      <point x="693.05" y="556.75" type="curve"/>
    </contour>
  </outline>
</glyph>
<glyph name="T" format="2">
  <advance width="719.7199999999999"/>
  <unicode hex="0054"/>
  <anchor x="315.93325999999996" y="0.0" name="bottom"/>
  <anchor x="371.80191999999994" y="350.0" name="center"/>
  <anchor x="427.01024" y="700.0" name="top"/>
  <outline>
    <contour>
      <point x="752.64" y="585.52" type="line"/>
      <point x="773.1299999999999" y="700.0" type="line"/>
      <point x="83.45" y="700.0" type="line"/>
      <point x="62.574999999999996" y="585.52" type="line"/>
      <point x="332.775" y="585.52" type="line"/>
      <point x="240.17499999999998" y="0.0" type="line"/>
      <point x="390.955" y="0.0" type="line"/>
      <point x="483.16999999999996" y="585.52" type="line"/>
    </contour>
  </outline>
</glyph>
<glyph name="U" format="2">
  <advance width="850.54"/>
  <unicode hex="0055"/>
  <anchor x="381.86420000000004" y="0.0" name="bottom"/>
  <anchor x="473.36999999999995" y="0.0" name="ogonek"/>
  <anchor x="491.26214999999996" y="700.0" name="top"/>
  <anchor x="841.76" y="700.0" name="topright"/>
  <outline>
    <contour>
      <point x="378.13500000000005" y="-10.0" type="curve" smooth="yes"/>
      <point x="618.055" y="-10.0"/>
      <point x="746.735" y="75.14999999999999"/>
      <point x="775.71" y="253.27" type="curve" smooth="yes"/>
      <point x="847.4799999999999" y="700.0" type="line"/>
      <point x="699.26" y="700.0" type="line"/>
      <point x="628.275" y="259.32" type="line" smooth="yes"/>
      <point x="612.435" y="158.2"/>
      <point x="535.345" y="107.34"/>
      <point x="398.84" y="107.34" type="curve" smooth="yes"/>
      <point x="266.54499999999996" y="107.34"/>
      <point x="199.55" y="160.4"/>
      <point x="215.35500000000002" y="257.565" type="curve" smooth="yes"/>
      <point x="286.78000000000003" y="700.0" type="line"/>
      <point x="138.69499999999996" y="700.0" type="line"/>
      <point x="66.96999999999998" y="253.04500000000002" type="line" smooth="yes"/>
      <point x="63.07499999999999" y="226.145"/>
      <point x="62.044999999999995" y="212.17"/>
      <point x="62.044999999999995" y="197.47" type="curve" smooth="yes"/>
      <point x="62.044999999999995" y="59.78"/>
      <point x="168.85500000000002" y="-10.0"/>
    </contour>
  </outline>
</glyph>
<glyph name="V" format="2">
  <advance width="745.7150000000001"/>
  <unicode hex="0056"/>
  <outline>
    <contour>
      <point x="403.21500000000003" y="0.0" type="line"/>
      <point x="717.45" y="459.36499999999995"/>
      <point x="780.8" y="576.75"/>
      <point x="794.825" y="675.425" type="curve" smooth="yes"/>
      <point x="795.65" y="684.19"/>
      <point x="795.7499999999999" y="692.315"/>
      <point x="795.49" y="700.0" type="curve"/>
      <point x="632.79" y="700.0" type="line"/>
      <point x="633.6" y="693.35"/>
      <point x="634.6899999999999" y="686.9150000000001"/>
      <point x="634.6899999999999" y="678.125" type="curve" smooth="yes"/>
      <point x="634.69" y="578.8249999999999"/>
      <point x="551.0949999999999" y="447.21999999999997"/>
      <point x="347.055" y="135.1" type="curve"/>
      <point x="229.9" y="703.69" type="line"/>
      <point x="68.625" y="700.6750000000001" type="line"/>
      <point x="242.24" y="0.0" type="line"/>
    </contour>
  </outline>
</glyph>
<glyph name="W" format="2">
  <advance width="1041.6"/>
  <unicode hex="0057"/>
  <anchor x="469.44999999999993" y="0.0" name="bottom"/>
  <anchor x="588.5" y="700.0" name="top"/>
  <outline>
    <contour>
      <point x="790.2999999999998" y="1.3877787807814457e-17" type="line"/>
      <point x="1014.9499999999999" y="412.8"/>
      <point x="1086.1" y="596.7499999999999"/>
      <point x="1087.3999999999999" y="681.05" type="curve" smooth="yes"/>
      <point x="1087.3999999999999" y="687.4"/>
      <point x="1086.9" y="695.3"/>
      <point x="1086.0499999999997" y="700.0" type="curve"/>
      <point x="943.2499999999999" y="700.0" type="line"/>
      <point x="943.6499999999997" y="693.15"/>
      <point x="943.6" y="686.7"/>
      <point x="943.1000000000001" y="677.95" type="curve" smooth="yes"/>
      <point x="935.5999999999999" y="569.35"/>
      <point x="890.1999999999998" y="459.15"/>
      <point x="720.9499999999998" y="132.04999999999998" type="curve"/>
      <point x="668.3" y="653.9499999999999" type="line"/>
      <point x="500.40000000000003" y="653.9499999999999" type="line"/>
      <point x="432.6" y="482.05"/>
      <point x="357.8499999999999" y="306.2"/>
      <point x="276.49999999999994" y="136.64999999999998" type="curve"/>
      <point x="222.20000000000002" y="700.0" type="line"/>
      <point x="70.50000000000001" y="700.0" type="line"/>
      <point x="162.3" y="1.3877787807814457e-17" type="line"/>
      <point x="324.69999999999993" y="1.3877787807814457e-17" type="line"/>
      <point x="407.44999999999993" y="163.74999999999997"/>
      <point x="490.0" y="329.15000000000003"/>
      <point x="560.0999999999999" y="485.79999999999995" type="curve"/>
      <point x="619.4499999999999" y="1.3877787807814457e-17" type="line"/>
    </contour>
  </outline>
</glyph>
<glyph name="X" format="2">
  <advance width="751.9499999999999"/>
  <unicode hex="0058"/>
  <outline>
    <contour>
      <point x="534.15" y="-3.1999999999999993" type="line"/>
      <point x="706.8999999999999" y="1.9" type="line"/>
      <point x="477.8500000000001" y="348.84999999999997" type="line"/>
      <point x="636.1" y="484.85"/>
      <point x="747.2" y="584.8500000000001"/>
      <point x="782.1000000000001" y="700.5500000000001" type="curve"/>
      <point x="610.95" y="703.4" type="line"/>
      <point x="589.8000000000001" y="609.75"/>
      <point x="517.8" y="531.6"/>
      <point x="413.15" y="441.70000000000005" type="curve"/>
      <point x="258.59999999999997" y="703.65" type="line"/>
      <point x="88.74999999999999" y="698.55" type="line"/>
      <point x="299.09999999999997" y="374.79999999999995" type="line"/>
      <point x="141.85000000000002" y="248.25"/>
      <point x="9.499999999999996" y="114.55000000000001"/>
      <point x="-6.850000000000003" y="0.0" type="curve"/>
      <point x="163.35" y="0.0" type="line"/>
      <point x="177.55" y="96.64999999999999"/>
      <point x="259.74999999999994" y="188.70000000000002"/>
      <point x="364.95" y="279.20000000000005" type="curve"/>
    </contour>
  </outline>
</glyph>
<glyph name="Y" format="2">
  <advance width="716.8299999999999"/>
  <unicode hex="0059"/>
  <anchor x="311.38" y="0.0" name="bottom"/>
  <anchor x="430.43499999999995" y="700.0" name="top"/>
  <anchor x="81.035" y="700.0" name="topleft"/>
  <outline>
    <contour>
      <point x="248.27" y="0.0" type="line"/>
      <point x="396.70000000000005" y="0.0" type="line"/>
      <point x="440.205" y="258.35499999999996" type="line"/>
      <point x="660.825" y="472.83000000000004"/>
      <point x="727.965" y="561.715"/>
      <point x="763.965" y="665.695" type="curve" smooth="yes"/>
      <point x="767.925" y="676.83"/>
      <point x="772.2149999999999" y="688.7"/>
      <point x="776.0400000000001" y="700.835" type="curve"/>
      <point x="612.1800000000001" y="704.0250000000001" type="line"/>
      <point x="608.955" y="691.6600000000001"/>
      <point x="605.695" y="680.6300000000001"/>
      <point x="602.17" y="668.835" type="curve" smooth="yes"/>
      <point x="571.2299999999999" y="570.9200000000001"/>
      <point x="525.5849999999999" y="504.5"/>
      <point x="378.09000000000003" y="363.72" type="curve"/>
      <point x="230.065" y="703.49" type="line"/>
      <point x="64.7" y="699.3050000000001" type="line"/>
      <point x="290.40500000000003" y="258.35499999999996" type="line"/>
    </contour>
  </outline>
</glyph>
<glyph name="Z" format="2">
  <advance width="734.65"/>
  <unicode hex="005A"/>
  <anchor x="326.29999999999995" y="0.0" name="bottom"/>
  <anchor x="377.34999999999997" y="350.0" name="center"/>
  <anchor x="428.94999999999993" y="700.0" name="top"/>
  <outline>
    <contour>
      <point x="-14.200000000000005" y="0.0" type="line"/>
      <point x="665.5" y="0.0" type="line"/>
      <point x="683.9" y="112.85" type="line"/>
      <point x="202.45" y="112.85" type="line"/>
      <point x="734.6500000000001" y="594.9499999999999" type="line"/>
      <point x="751.4999999999999" y="700.0" type="line"/>
      <point x="124.05000000000001" y="700.0" type="line"/>
      <point x="105.64999999999998" y="587.1499999999999" type="line"/>
      <point x="539.1499999999999" y="587.1499999999999" type="line"/>
      <point x="2.5999999999999965" y="103.90000000000002" type="line"/>
    </contour>
  </outline>
</glyph>
<glyph name="bracketleft" format="2">
  <advance width="398.705"/>
  <unicode hex="005B"/>
  <outline>
    <contour>
      <point x="142.37" y="-116.65" type="line"/>
      <point x="264.16" y="646.965" type="line"/>
      <point x="433.53499999999997" y="646.965" type="line"/>
      <point x="448.635" y="740.0" type="line"/>
      <point x="168.93499999999997" y="740.0" type="line"/>
      <point x="17.464999999999993" y="-210.0" type="line"/>
      <point x="296.47999999999996" y="-210.0" type="line"/>
      <point x="311.74499999999995" y="-116.65" type="line"/>
    </contour>
  </outline>
</glyph>
<glyph name="backslash" format="2">
  <advance width="432.76"/>
  <unicode hex="005C"/>
  <outline>
    <contour>
      <point x="187.66" y="740.0" type="line"/>
      <point x="81.41499999999999" y="740.0" type="line"/>
      <point x="273.505" y="-210.0" type="line"/>
      <point x="379.58500000000004" y="-210.0" type="line"/>
    </contour>
  </outline>
</glyph>
<glyph name="bracketright" format="2">
  <advance width="398.705"/>
  <unicode hex="005D"/>
  <outline>
    <contour>
      <point x="-37.38" y="-116.65" type="line"/>
      <point x="-52.095" y="-210.0" type="line"/>
      <point x="226.47" y="-210.0" type="line"/>
      <point x="378.625" y="740.0" type="line"/>
      <point x="99.06" y="740.0" type="line"/>
      <point x="83.79499999999999" y="646.65" type="line"/>
      <point x="253.17" y="646.65" type="line"/>
      <point x="131.215" y="-116.65" type="line"/>
    </contour>
  </outline>
</glyph>
<glyph name="asciicircum" format="2">
  <advance width="554.88"/>
  <unicode hex="005E"/>
  <outline>
    <contour>
      <point x="42.315" y="242.30499999999995" type="line"/>
      <point x="154.29000000000002" y="242.30499999999995" type="line"/>
      <point x="322.29" y="570.51" type="line"/>
      <point x="390.765" y="242.30499999999995" type="line"/>
      <point x="501.945" y="242.30499999999995" type="line"/>
      <point x="404.77" y="704.5" type="line"/>
      <point x="285.24499999999995" y="704.5" type="line"/>
    </contour>
  </outline>
</glyph>
<glyph name="underscore" format="2">
  <advance width="857.0799999999999"/>
  <unicode hex="005F"/>
  <outline>
    <contour>
      <point x="-56.655" y="-176.535" type="line"/>
      <point x="770.205" y="-176.535" type="line"/>
      <point x="786.7349999999999" y="-75.765" type="line"/>
      <point x="-40.125" y="-75.765" type="line"/>
    </contour>
  </outline>
</glyph>
<glyph name="a" format="2">
  <advance width="694.675"/>
  <unicode hex="0061"/>
  <note>
15
</note>
  <anchor x="300.94710000000003" y="0.0" name="bottom"/>
  <anchor x="650.6500000000001" y="3.850000000000001" name="ogonek"/>
  <anchor x="389.275" y="541.0" name="top"/>
  <outline>
    <contour>
      <point x="568.9499999999999" y="-10.0" type="curve" smooth="yes"/>
      <point x="597.925" y="-10.0"/>
      <point x="630.9" y="-4.475"/>
      <point x="650.825" y="3.175000000000001" type="curve"/>
      <point x="653.2749999999999" y="106.52499999999999" type="line"/>
      <point x="645.575" y="103.95"/>
      <point x="636.2249999999999" y="102.77500000000002"/>
      <point x="627.8999999999999" y="102.77500000000002" type="curve" smooth="yes"/>
      <point x="605.9" y="102.77500000000002"/>
      <point x="596.9999999999999" y="115.35000000000001"/>
      <point x="596.9999999999999" y="139.625" type="curve" smooth="yes"/>
      <point x="596.9999999999999" y="148.5"/>
      <point x="613.5000000000001" y="249.19999999999993"/>
      <point x="655.825" y="512.475" type="curve"/>
      <point x="597.5999999999999" y="534.375"/>
      <point x="489.32499999999993" y="551.0"/>
      <point x="395.1" y="551.0" type="curve" smooth="yes"/>
      <point x="172.02499999999998" y="551.0"/>
      <point x="31.124999999999996" y="428.34999999999997"/>
      <point x="31.124999999999996" y="199.675" type="curve" smooth="yes"/>
      <point x="31.124999999999996" y="58.925"/>
      <point x="116.525" y="-10.0"/>
      <point x="243.02499999999998" y="-10.0" type="curve" smooth="yes"/>
      <point x="320.15" y="-10.0"/>
      <point x="396.775" y="16.299999999999997"/>
      <point x="454.5249999999999" y="56.77499999999999" type="curve"/>
      <point x="473.025" y="15.399999999999999"/>
      <point x="519.3999999999999" y="-10.0"/>
    </contour>
    <contour>
      <point x="451.1" y="145.07500000000002" type="line"/>
      <point x="408.79999999999995" y="120.17500000000001"/>
      <point x="350.40000000000003" y="101.62500000000001"/>
      <point x="300.54999999999995" y="101.62500000000001" type="curve" smooth="yes"/>
      <point x="225.85000000000002" y="101.62500000000001"/>
      <point x="177.525" y="143.70000000000002"/>
      <point x="177.525" y="222.15" type="curve" smooth="yes"/>
      <point x="177.525" y="352.90000000000003"/>
      <point x="264.5" y="446.92500000000007"/>
      <point x="387.15" y="446.92500000000007" type="curve" smooth="yes"/>
      <point x="428.65000000000003" y="446.92500000000007"/>
      <point x="466.65" y="441.32500000000005"/>
      <point x="496.02500000000003" y="428.475" type="curve"/>
    </contour>
  </outline>
</glyph>
<glyph name="b" format="2">
  <advance width="686.435"/>
  <unicode hex="0062"/>
  <note>
12
</note>
  <outline>
    <contour>
      <point x="289.93" y="740.0" type="line"/>
      <point x="144.98000000000002" y="740.0" type="line"/>
      <point x="30.71" y="19.255" type="line"/>
      <point x="96.94" y="5.165000000000001"/>
      <point x="186.46499999999997" y="-10.0"/>
      <point x="286.54" y="-10.0" type="curve" smooth="yes"/>
      <point x="502.77000000000004" y="-10.0"/>
      <point x="656.4649999999999" y="119.31"/>
      <point x="656.1899999999999" y="349.34000000000003" type="curve" smooth="yes"/>
      <point x="656.1899999999999" y="473.55499999999995"/>
      <point x="593.9250000000001" y="551.0"/>
      <point x="467.365" y="551.0" type="curve" smooth="yes"/>
      <point x="388.895" y="551.0"/>
      <point x="321.05999999999995" y="523.105"/>
      <point x="247.375" y="477.035" type="curve"/>
    </contour>
    <contour>
      <point x="396.77" y="436.16" type="curve" smooth="yes"/>
      <point x="471.91499999999996" y="436.16"/>
      <point x="510.14000000000004" y="393.36"/>
      <point x="510.14000000000004" y="318.015" type="curve" smooth="yes"/>
      <point x="510.14000000000004" y="189.81"/>
      <point x="417.475" y="90.54000000000002"/>
      <point x="302.02500000000003" y="90.54000000000002" type="curve" smooth="yes"/>
      <point x="258.21" y="90.54000000000002"/>
      <point x="218.45000000000002" y="98.185"/>
      <point x="189.525" y="106.03500000000001" type="curve"/>
      <point x="232.82500000000002" y="380.56499999999994" type="line"/>
      <point x="290.61" y="416.57000000000005"/>
      <point x="344.155" y="436.16"/>
    </contour>
  </outline>
</glyph>
<glyph name="c" format="2">
  <advance width="617.3"/>
  <unicode hex="0063"/>
  <note>
10
</note>
  <anchor x="324.65000000000003" y="0.0" name="bottom"/>
  <anchor x="397.85" y="541.0" name="top"/>
  <outline>
    <contour>
      <point x="310.79999999999995" y="-10.0" type="curve" smooth="yes"/>
      <point x="396.19999999999993" y="-10.0"/>
      <point x="481.65" y="0.04999999999999925"/>
      <point x="551.95" y="22.399999999999995" type="curve"/>
      <point x="544.8999999999999" y="123.80000000000003" type="line"/>
      <point x="476.15" y="108.95000000000002"/>
      <point x="420.5" y="99.2"/>
      <point x="349.54999999999995" y="99.2" type="curve" smooth="yes"/>
      <point x="244.70000000000002" y="99.2"/>
      <point x="180.54999999999998" y="145.95000000000005"/>
      <point x="180.54999999999998" y="232.09999999999997" type="curve" smooth="yes"/>
      <point x="180.54999999999998" y="352.99999999999994"/>
      <point x="262.25" y="441.69999999999993"/>
      <point x="394.45" y="441.69999999999993" type="curve" smooth="yes"/>
      <point x="450.1000000000001" y="441.69999999999993"/>
      <point x="511.5499999999999" y="435.80000000000007"/>
      <point x="582.7499999999999" y="418.49999999999994" type="curve"/>
      <point x="618.4000000000001" y="524.55" type="line"/>
      <point x="554.5000000000001" y="541.95"/>
      <point x="474.3999999999999" y="551.0"/>
      <point x="399.65" y="551.0" type="curve" smooth="yes"/>
      <point x="163.45" y="551.0"/>
      <point x="33.64999999999999" y="421.09999999999997"/>
      <point x="33.64999999999999" y="213.65" type="curve" smooth="yes"/>
      <point x="33.64999999999999" y="71.3"/>
      <point x="125.25" y="-10.0"/>
    </contour>
  </outline>
</glyph>
<glyph name="d" format="2">
  <advance width="698.5000000000001"/>
  <unicode hex="0064"/>
  <note>
17
</note>
  <anchor x="309.79999999999995" y="0.0" name="bottom"/>
  <anchor x="348.79999999999995" y="287.59999999999997" name="center"/>
  <anchor x="413.29999999999995" y="740.0" name="top"/>
  <anchor x="750.65" y="740.0" name="topright"/>
  <outline>
    <contour>
      <point x="569.85" y="-10.0" type="curve" smooth="yes"/>
      <point x="596.2499999999999" y="-10.0"/>
      <point x="629.0" y="-4.749999999999999"/>
      <point x="650.1" y="3.4000000000000012" type="curve"/>
      <point x="651.65" y="106.74999999999999" type="line"/>
      <point x="644.4000000000001" y="103.95"/>
      <point x="635.1" y="103.00000000000001"/>
      <point x="626.5500000000001" y="103.00000000000001" type="curve" smooth="yes"/>
      <point x="606.0" y="103.00000000000001"/>
      <point x="595.65" y="114.35000000000001"/>
      <point x="595.65" y="135.6" type="curve" smooth="yes"/>
      <point x="595.65" y="148.6"/>
      <point x="676.0000000000001" y="653.15"/>
      <point x="689.5" y="740.0" type="curve"/>
      <point x="545.1999999999999" y="740.0" type="line"/>
      <point x="512.4" y="534.3000000000002" type="line"/>
      <point x="476.44999999999993" y="543.25"/>
      <point x="430.19999999999993" y="551.0"/>
      <point x="373.35" y="551.0" type="curve" smooth="yes"/>
      <point x="182.29999999999998" y="551.0"/>
      <point x="30.9" y="429.15"/>
      <point x="30.9" y="197.74999999999997" type="curve" smooth="yes"/>
      <point x="30.9" y="56.54999999999998"/>
      <point x="120.54999999999998" y="-10.0"/>
      <point x="241.54999999999998" y="-10.0" type="curve" smooth="yes"/>
      <point x="318.0" y="-10.0"/>
      <point x="399.4" y="17.85"/>
      <point x="452.9" y="53.85" type="curve"/>
      <point x="471.8499999999999" y="14.549999999999999"/>
      <point x="518.0000000000001" y="-10.0"/>
    </contour>
    <contour>
      <point x="297.34999999999997" y="102.3" type="curve" smooth="yes"/>
      <point x="227.99999999999997" y="102.3"/>
      <point x="177.25" y="141.39999999999998"/>
      <point x="177.25" y="216.25" type="curve" smooth="yes"/>
      <point x="177.25" y="346.25"/>
      <point x="265.25" y="447.15000000000003"/>
      <point x="384.45" y="447.15000000000003" type="curve" smooth="yes"/>
      <point x="430.44999999999993" y="447.15000000000003"/>
      <point x="466.65" y="440.2"/>
      <point x="496.19999999999993" y="432.29999999999995" type="curve"/>
      <point x="450.15" y="142.15" type="line"/>
      <point x="407.3999999999999" y="119.5"/>
      <point x="348.49999999999994" y="102.3"/>
    </contour>
  </outline>
</glyph>
<glyph name="e" format="2">
  <advance width="647.1499999999999"/>
  <unicode hex="0065"/>
  <note>
14 points
</note>
  <anchor x="303.55" y="0.0" name="bottom"/>
  <anchor x="502.3" y="9.899999999999999" name="ogonek"/>
  <anchor x="387.15" y="541.4" name="top"/>
  <outline>
    <contour>
      <point x="155.2" y="309.6" type="curve"/>
      <point x="155.5" y="222.70000000000002" type="line"/>
      <point x="205.1" y="218.00000000000003"/>
      <point x="265.70000000000005" y="216.85"/>
      <point x="333.95000000000005" y="221.29999999999998" type="curve" smooth="yes"/>
      <point x="523.85" y="234.29999999999993"/>
      <point x="629.15" y="298.74999999999994"/>
      <point x="629.15" y="403.79999999999995" type="curve" smooth="yes"/>
      <point x="629.15" y="495.6"/>
      <point x="538.3000000000001" y="550.9499999999999"/>
      <point x="398.7" y="550.9499999999999" type="curve" smooth="yes"/>
      <point x="161.7" y="550.9499999999999"/>
      <point x="33.7" y="412.15000000000003"/>
      <point x="33.7" y="221.14999999999995" type="curve" smooth="yes"/>
      <point x="33.7" y="75.49999999999999"/>
      <point x="139.99999999999997" y="-10.0"/>
      <point x="318.25" y="-10.0" type="curve" smooth="yes"/>
      <point x="406.34999999999997" y="-10.0"/>
      <point x="494.7" y="4.099999999999999"/>
      <point x="573.85" y="30.55" type="curve"/>
      <point x="558.65" y="134.25" type="line"/>
      <point x="477.45" y="107.85"/>
      <point x="400.34999999999997" y="95.85000000000002"/>
      <point x="346.9000000000001" y="95.85000000000002" type="curve" smooth="yes"/>
      <point x="225.49999999999997" y="95.85000000000002"/>
      <point x="178.0" y="139.65000000000003"/>
      <point x="178.1" y="230.75" type="curve" smooth="yes"/>
      <point x="178.20000000000002" y="364.70000000000005"/>
      <point x="261.45000000000005" y="451.4"/>
      <point x="380.59999999999997" y="451.40000000000003" type="curve" smooth="yes"/>
      <point x="447.3499999999999" y="451.40000000000003"/>
      <point x="481.5" y="430.2"/>
      <point x="481.5" y="389.15000000000003" type="curve" smooth="yes"/>
      <point x="481.45" y="339.6"/>
      <point x="411.4999999999999" y="315.40000000000003"/>
      <point x="290.1499999999999" y="307.55" type="curve" smooth="yes"/>
      <point x="241.75" y="304.15"/>
      <point x="194.50000000000003" y="303.95"/>
    </contour>
  </outline>
</glyph>
<glyph name="f" format="2">
  <advance width="451.205"/>
  <unicode hex="0066"/>
  <outline>
    <contour>
      <point x="21.285000000000004" y="-220.0" type="curve" smooth="yes"/>
      <point x="124.83500000000001" y="-220.0"/>
      <point x="186.02" y="-148.89"/>
      <point x="209.61" y="-1.0800000000000054" type="curve" smooth="yes"/>
      <point x="270.885" y="389.21" type="line"/>
      <point x="456.28999999999996" y="389.21" type="line"/>
      <point x="472.76500000000004" y="491.425" type="line"/>
      <point x="286.975" y="491.425" type="line"/>
      <point x="302.48" y="590.83"/>
      <point x="345.715" y="634.2"/>
      <point x="423.64000000000004" y="634.2" type="curve" smooth="yes"/>
      <point x="469.67499999999995" y="634.2"/>
      <point x="512.5999999999999" y="625.425"/>
      <point x="550.14" y="613.8" type="curve"/>
      <point x="584.765" y="719.525" type="line"/>
      <point x="530.8499999999999" y="739.1150000000001"/>
      <point x="472.07" y="750.0"/>
      <point x="411.59" y="750.0" type="curve" smooth="yes"/>
      <point x="260.06" y="750.0"/>
      <point x="168.105" y="665.32"/>
      <point x="142.425" y="491.425" type="curve"/>
      <point x="50.425000000000004" y="480.185" type="line"/>
      <point x="35.555" y="389.21" type="line"/>
      <point x="125.95" y="389.21" type="line"/>
      <point x="66.655" y="11.545000000000002" type="line" smooth="yes"/>
      <point x="53.629999999999995" y="-70.88999999999999"/>
      <point x="31.874999999999996" y="-105.70499999999998"/>
      <point x="-13.040000000000008" y="-105.70499999999998" type="curve" smooth="yes"/>
      <point x="-25.429999999999996" y="-105.70499999999998"/>
      <point x="-38.68" y="-103.72"/>
      <point x="-52.985" y="-98.86" type="curve"/>
      <point x="-80.11" y="-202.54" type="line"/>
      <point x="-48.394999999999996" y="-214.71500000000003"/>
      <point x="-17.435000000000002" y="-220.0"/>
    </contour>
  </outline>
</glyph>
<glyph name="g" format="2">
  <advance width="687.05"/>
  <unicode hex="0067"/>
  <note>
16
</note>
  <anchor x="253.45000000000002" y="-214.79999999999998" name="bottom"/>
  <anchor x="391.85" y="541.0" name="top"/>
  <outline>
    <contour>
      <point x="-1.0000000000000029" y="-174.24999999999997" type="line"/>
      <point x="70.3" y="-201.04999999999998"/>
      <point x="161.65" y="-220.0"/>
      <point x="263.84999999999997" y="-220.0" type="curve" smooth="yes"/>
      <point x="450.59999999999997" y="-220.0"/>
      <point x="552.2999999999998" y="-126.94999999999997"/>
      <point x="580.1" y="51.599999999999994" type="curve" smooth="yes"/>
      <point x="653.8499999999999" y="515.9" type="line"/>
      <point x="603.1" y="534.0999999999999"/>
      <point x="486.5999999999999" y="551.0"/>
      <point x="408.2" y="551.0" type="curve" smooth="yes"/>
      <point x="140.6" y="551.0"/>
      <point x="30.549999999999997" y="396.8500000000001"/>
      <point x="30.549999999999997" y="197.2" type="curve" smooth="yes"/>
      <point x="30.549999999999997" y="76.35000000000001"/>
      <point x="108.55" y="8.25"/>
      <point x="238.39999999999998" y="8.25" type="curve" smooth="yes"/>
      <point x="291.54999999999995" y="8.25"/>
      <point x="378.5" y="29.7"/>
      <point x="437.04999999999995" y="63.199999999999996" type="curve"/>
      <point x="433.5499999999999" y="40.25" type="line" smooth="yes"/>
      <point x="417.09999999999997" y="-69.99999999999999"/>
      <point x="356.09999999999997" y="-111.8"/>
      <point x="247.75" y="-111.8" type="curve" smooth="yes"/>
      <point x="176.54999999999998" y="-111.8"/>
      <point x="98.75" y="-95.1"/>
      <point x="33.949999999999996" y="-72.25000000000001" type="curve"/>
    </contour>
    <contour>
      <point x="495.44999999999993" y="433.04999999999995" type="curve"/>
      <point x="451.7" y="157.45000000000002" type="line"/>
      <point x="407.95000000000005" y="133.45"/>
      <point x="346.95" y="114.35"/>
      <point x="304.1" y="114.35" type="curve" smooth="yes"/>
      <point x="225.35000000000002" y="114.35"/>
      <point x="177.6" y="150.90000000000003"/>
      <point x="177.6" y="226.89999999999998" type="curve" smooth="yes"/>
      <point x="177.6" y="343.74999999999994"/>
      <point x="256.7" y="450.6"/>
      <point x="387.7" y="450.6" type="curve" smooth="yes"/>
      <point x="439.05" y="450.6"/>
      <point x="470.5999999999999" y="440.6499999999999"/>
    </contour>
  </outline>
</glyph>
<glyph name="h" format="2">
  <advance width="689.9"/>
  <unicode hex="0068"/>
  <note>
16
</note>
  <anchor x="313.74" y="0.0" name="bottom"/>
  <anchor x="364.60042000000004" y="379.85" name="center"/>
  <anchor x="414.28" y="740.0" name="top"/>
  <outline>
    <contour>
      <point x="596.27" y="134.42000000000002" type="curve" smooth="yes"/>
      <point x="596.27" y="170.10000000000002"/>
      <point x="635.08" y="365.16"/>
      <point x="635.08" y="413.94" type="curve" smooth="yes"/>
      <point x="635.08" y="493.72999999999996"/>
      <point x="586.3599999999999" y="551.0"/>
      <point x="473.96" y="551.0" type="curve" smooth="yes"/>
      <point x="393.36999999999995" y="551.0"/>
      <point x="331.31000000000006" y="526.1800000000001"/>
      <point x="249.1" y="484.84999999999997" type="curve"/>
      <point x="289.74" y="740.0" type="line"/>
      <point x="144.85" y="740.0" type="line"/>
      <point x="26.77999999999999" y="0.0" type="line"/>
      <point x="172.19" y="0.0" type="line"/>
      <point x="233.59" y="388.20000000000005" type="line"/>
      <point x="292.61" y="416.85"/>
      <point x="344.68" y="437.92999999999995"/>
      <point x="400.78999999999996" y="437.92999999999995" type="curve" smooth="yes"/>
      <point x="460.36000000000007" y="437.92999999999995"/>
      <point x="483.69" y="409.55"/>
      <point x="483.69" y="366.77000000000004" type="curve" smooth="yes"/>
      <point x="483.69" y="320.3300000000001"/>
      <point x="445.43" y="126.53999999999998"/>
      <point x="445.43" y="88.03" type="curve" smooth="yes"/>
      <point x="445.43" y="24.139999999999997"/>
      <point x="495.59999999999997" y="-10.0"/>
      <point x="564.3599999999999" y="-10.0" type="curve" smooth="yes"/>
      <point x="592.86" y="-10.0"/>
      <point x="628.3599999999998" y="-5.82"/>
      <point x="651.6899999999999" y="1.8000000000000007" type="curve"/>
      <point x="653.6999999999999" y="107.69000000000001" type="line"/>
      <point x="645.0899999999999" y="104.89"/>
      <point x="634.3699999999999" y="103.02000000000002"/>
      <point x="625.7899999999998" y="103.02000000000002" type="curve" smooth="yes"/>
      <point x="606.67" y="103.02000000000002"/>
      <point x="596.27" y="114.50999999999999"/>
    </contour>
  </outline>
</glyph>
<glyph name="i" format="2">
  <advance width="287.565"/>
  <unicode hex="0069"/>
  <note>
Ajuster pts sur points
8
</note>
  <anchor x="99.81094" y="0.0" name="bottom"/>
  <anchor x="172.56" y="0.0" name="ogonek"/>
  <anchor x="185.81906" y="541.0" name="top"/>
  <outline>
    <contour>
      <point x="27.689999999999998" y="0.0" type="line"/>
      <point x="172.56" y="0.0" type="line"/>
      <point x="257.825" y="541.0" type="line"/>
      <point x="113.58999999999999" y="541.0" type="line"/>
    </contour>
    <contour>
      <point x="218.935" y="754.0" type="curve" smooth="yes"/>
      <point x="150.855" y="754.0"/>
      <point x="120.29499999999999" y="725.9"/>
      <point x="119.575" y="669.975" type="curve" smooth="yes"/>
      <point x="119.44" y="635.6150000000001"/>
      <point x="143.62" y="617.535"/>
      <point x="195.285" y="617.535" type="curve" smooth="yes"/>
      <point x="254.325" y="617.535"/>
      <point x="293.855" y="640.5749999999999"/>
      <point x="294.89000000000004" y="702.4250000000001" type="curve" smooth="yes"/>
      <point x="295.025" y="736.0849999999999"/>
      <point x="271.625" y="754.0"/>
    </contour>
  </outline>
</glyph>
<glyph name="j" format="2">
  <advance width="301.755"/>
  <unicode hex="006A"/>
  <note>
idem /i
12
</note>
  <outline>
    <contour>
      <point x="233.51" y="754.0" type="curve" smooth="yes"/>
      <point x="165.045" y="754.0"/>
      <point x="135.5" y="725.9"/>
      <point x="134.78" y="669.975" type="curve" smooth="yes"/>
      <point x="134.645" y="635.6150000000001"/>
      <point x="158.745" y="617.535"/>
      <point x="210.41000000000003" y="617.535" type="curve" smooth="yes"/>
      <point x="268.34" y="617.535"/>
      <point x="307.8" y="640.5749999999999"/>
      <point x="308.835" y="702.4250000000001" type="curve" smooth="yes"/>
      <point x="308.96999999999997" y="736.0849999999999"/>
      <point x="286.20000000000005" y="754.0"/>
    </contour>
    <contour>
      <point x="272.95" y="541.0" type="line"/>
      <point x="128.165" y="541.0" type="line"/>
      <point x="41.09499999999999" y="-10.669999999999996" type="line" smooth="yes"/>
      <point x="31.465" y="-72.175"/>
      <point x="12.814999999999994" y="-105.70499999999998"/>
      <point x="-31.225000000000005" y="-105.70499999999998" type="curve" smooth="yes"/>
      <point x="-42.375" y="-105.70499999999998"/>
      <point x="-57.830000000000005" y="-104.42"/>
      <point x="-73.405" y="-98.68499999999999" type="curve"/>
      <point x="-102.08500000000001" y="-208.08500000000004" type="line"/>
      <point x="-70.61500000000001" y="-216.585"/>
      <point x="-30.729999999999997" y="-220.0"/>
      <point x="-10.125000000000009" y="-220.0" type="curve" smooth="yes"/>
      <point x="111.935" y="-220.0"/>
      <point x="164.38" y="-143.55499999999998"/>
      <point x="186.805" y="-1.0949999999999953" type="curve" smooth="yes"/>
    </contour>
  </outline>
</glyph>
<glyph name="l" format="2">
  <advance width="350.35499999999996"/>
  <unicode hex="006C"/>
  <anchor x="173.04" y="0.0" name="bottom"/>
  <anchor x="182.11230999999998" y="379.625" name="center"/>
  <anchor x="217.26999999999998" y="740.0" name="top"/>
  <anchor x="350.9" y="740.0" name="topright"/>
  <outline>
    <contour>
      <point x="144.87" y="740.0" type="line"/>
      <point x="54.58999999999999" y="171.475" type="line" smooth="yes"/>
      <point x="51.569999999999986" y="151.23"/>
      <point x="48.46999999999999" y="127.78500000000001"/>
      <point x="48.46999999999999" y="107.235" type="curve" smooth="yes"/>
      <point x="48.46999999999999" y="30.684999999999995"/>
      <point x="87.455" y="-10.0"/>
      <point x="174.02999999999997" y="-10.0" type="curve" smooth="yes"/>
      <point x="224.265" y="-10.0"/>
      <point x="273.15" y="-0.6649999999999998"/>
      <point x="315.255" y="12.775000000000002" type="curve"/>
      <point x="316.77" y="122.31500000000001" type="line"/>
      <point x="289.19" y="115.805"/>
      <point x="269.3" y="111.72"/>
      <point x="247.87" y="111.72" type="curve" smooth="yes"/>
      <point x="211.15" y="111.72"/>
      <point x="199.10000000000002" y="131.62"/>
      <point x="199.10000000000002" y="156.055" type="curve" smooth="yes"/>
      <point x="199.10000000000002" y="169.10999999999999"/>
      <point x="200.93" y="182.025"/>
      <point x="203.035" y="193.69000000000003" type="curve" smooth="yes"/>
      <point x="289.805" y="740.0" type="line"/>
    </contour>
  </outline>
</glyph>
<glyph name="m" format="2">
  <advance width="1021.2099999999999"/>
  <unicode hex="006D"/>
  <note>
24&gt;23 points
un point de trop dans la jointure avec 2e jambage
</note>
  <outline>
    <contour>
      <point x="895.2650000000001" y="-10.0" type="curve" smooth="yes"/>
      <point x="923.81" y="-10.0"/>
      <point x="959.7149999999999" y="-6.045"/>
      <point x="983.0899999999998" y="1.8900000000000006" type="curve"/>
      <point x="984.92" y="106.88000000000001" type="line"/>
      <point x="976.4" y="104.08"/>
      <point x="965.2749999999999" y="102.61500000000002"/>
      <point x="956.7850000000001" y="102.61500000000002" type="curve" smooth="yes"/>
      <point x="937.98" y="102.61500000000002"/>
      <point x="927.355" y="114.105"/>
      <point x="927.355" y="134.78" type="curve" smooth="yes"/>
      <point x="927.355" y="173.565"/>
      <point x="966.7950000000001" y="366.04499999999996"/>
      <point x="966.7950000000001" y="414.435" type="curve" smooth="yes"/>
      <point x="966.7950000000001" y="493.0399999999999"/>
      <point x="915.5949999999999" y="551.0"/>
      <point x="803.525" y="551.0" type="curve" smooth="yes"/>
      <point x="720.965" y="551.0"/>
      <point x="661.275" y="520.89"/>
      <point x="584.215" y="472.15" type="curve"/>
      <point x="567.4599999999999" y="518.785"/>
      <point x="527.385" y="551.0"/>
      <point x="448.505" y="551.0" type="curve" smooth="yes"/>
      <point x="379.72499999999997" y="551.0"/>
      <point x="313.235" y="524.3000000000001"/>
      <point x="234.71" y="478.91999999999996" type="curve"/>
      <point x="244.04999999999998" y="541.0" type="line"/>
      <point x="113.07" y="541.0" type="line"/>
      <point x="27.734999999999992" y="0.0" type="line"/>
      <point x="172.35500000000002" y="0.0" type="line"/>
      <point x="234.31" y="392.565" type="line"/>
      <point x="284.455" y="420.59"/>
      <point x="326.39" y="437.97499999999997"/>
      <point x="368.355" y="437.97499999999997" type="curve" smooth="yes"/>
      <point x="428.18999999999994" y="437.97499999999997"/>
      <point x="449.275" y="404.8"/>
      <point x="449.275" y="360.065" type="curve" smooth="yes"/>
      <point x="449.275" y="341.895"/>
      <point x="422.84" y="178.315"/>
      <point x="395.63499999999993" y="0.0" type="curve"/>
      <point x="538.685" y="0.0" type="line"/>
      <point x="563.5799999999999" y="163.29000000000002"/>
      <point x="583.36" y="289.645"/>
      <point x="592.82" y="357.08500000000004" type="curve" smooth="yes"/>
      <point x="593.37" y="364.935"/>
      <point x="594.79" y="382.3"/>
      <point x="594.5749999999999" y="389.08000000000004" type="curve"/>
      <point x="642.5749999999999" y="418.005"/>
      <point x="684.7249999999999" y="436.82"/>
      <point x="732.5600000000001" y="436.82" type="curve" smooth="yes"/>
      <point x="792.315" y="436.82"/>
      <point x="814.81" y="407.965"/>
      <point x="814.81" y="362.95500000000004" type="curve" smooth="yes"/>
      <point x="814.81" y="318.16"/>
      <point x="777.2049999999999" y="128.525"/>
      <point x="777.2049999999999" y="88.48" type="curve" smooth="yes"/>
      <point x="777.2049999999999" y="23.060000000000002"/>
      <point x="826.9100000000001" y="-10.0"/>
    </contour>
  </outline>
</glyph>
<glyph name="n" format="2">
  <advance width="690.08"/>
  <unicode hex="006E"/>
  <note>
16
</note>
  <anchor x="316.38" y="0.0" name="bottom"/>
  <anchor x="379.655" y="541.0" name="top"/>
  <outline>
    <contour>
      <point x="113.07" y="541.0" type="line"/>
      <point x="27.734999999999992" y="0.0" type="line"/>
      <point x="171.97" y="0.0" type="line"/>
      <point x="234.16000000000003" y="388.65000000000003" type="line"/>
      <point x="291.085" y="416.595"/>
      <point x="344.04499999999996" y="438.11000000000007"/>
      <point x="401.28999999999996" y="438.11000000000007" type="curve" smooth="yes"/>
      <point x="459.75499999999994" y="438.11000000000007"/>
      <point x="484.35" y="410.65999999999997"/>
      <point x="484.35" y="364.88000000000005" type="curve" smooth="yes"/>
      <point x="484.35" y="316.75"/>
      <point x="446.35999999999996" y="132.375"/>
      <point x="446.35999999999996" y="87.16" type="curve" smooth="yes"/>
      <point x="446.35999999999996" y="24.215"/>
      <point x="496.10999999999996" y="-10.0"/>
      <point x="564.4649999999999" y="-10.0" type="curve" smooth="yes"/>
      <point x="593.01" y="-10.0"/>
      <point x="628.5849999999999" y="-6.045"/>
      <point x="651.9599999999999" y="1.8900000000000006" type="curve"/>
      <point x="653.79" y="106.88000000000001" type="line"/>
      <point x="645.27" y="104.08"/>
      <point x="634.145" y="102.61500000000002"/>
      <point x="625.655" y="102.61500000000002" type="curve" smooth="yes"/>
      <point x="606.85" y="102.61500000000002"/>
      <point x="596.18" y="113.925"/>
      <point x="596.18" y="134.10500000000002" type="curve" smooth="yes"/>
      <point x="596.18" y="169.92000000000002"/>
      <point x="635.7849999999999" y="364.89000000000004"/>
      <point x="635.7849999999999" y="413.445" type="curve" smooth="yes"/>
      <point x="635.7849999999999" y="498.75999999999993"/>
      <point x="577.5350000000001" y="551.0"/>
      <point x="472.56" y="551.0" type="curve" smooth="yes"/>
      <point x="388.32500000000005" y="551.0"/>
      <point x="312.90000000000003" y="523.3249999999999"/>
      <point x="236.225" y="477.8400000000001" type="curve"/>
      <point x="246.03" y="541.0" type="line"/>
    </contour>
  </outline>
</glyph>
<glyph name="o" format="2">
  <advance width="679.4499999999999"/>
  <unicode hex="006F"/>
  <note>
8
</note>
  <anchor x="306.2999999999999" y="0.0" name="bottom"/>
  <anchor x="341.29999999999995" y="273.65000000000003" name="center"/>
  <anchor x="406.5" y="-5.551115123125783e-17" name="ogonek"/>
  <anchor x="371.04999999999995" y="541.0" name="top"/>
  <anchor x="529.7" y="534.15" name="topright"/>
  <outline>
    <contour>
      <point x="327.5999999999999" y="-9.950000000000001" type="curve" smooth="yes"/>
      <point x="537.6499999999999" y="-9.950000000000001"/>
      <point x="641.5999999999999" y="128.60000000000002"/>
      <point x="641.05" y="320.75" type="curve" smooth="yes"/>
      <point x="640.4" y="472.45"/>
      <point x="536.4" y="552.45"/>
      <point x="351.79999999999995" y="552.45" type="curve" smooth="yes"/>
      <point x="138.65" y="552.45"/>
      <point x="35.599999999999994" y="407.65"/>
      <point x="36.150000000000006" y="220.85000000000002" type="curve" smooth="yes"/>
      <point x="36.8" y="70.05"/>
      <point x="139.0" y="-9.950000000000001"/>
    </contour>
    <contour>
      <point x="325.6499999999999" y="90.30000000000001" type="curve" smooth="yes"/>
      <point x="231.64999999999998" y="90.25"/>
      <point x="180.35000000000002" y="131.55"/>
      <point x="180.25" y="224.70000000000002" type="curve" smooth="yes"/>
      <point x="180.05" y="337.49999999999994"/>
      <point x="232.85" y="452.09999999999997"/>
      <point x="351.54999999999995" y="452.2" type="curve" smooth="yes"/>
      <point x="443.2" y="452.25"/>
      <point x="495.9500000000001" y="411.35"/>
      <point x="496.05000000000007" y="321.35" type="curve" smooth="yes"/>
      <point x="496.2500000000001" y="200.90000000000003"/>
      <point x="443.44999999999993" y="90.4"/>
    </contour>
  </outline>
</glyph>
<glyph name="p" format="2">
  <advance width="687.0250000000001"/>
  <unicode hex="0070"/>
  <note>
14 point
</note>
  <outline>
    <contour>
      <point x="-5.020000000000008" y="-210.0" type="line"/>
      <point x="138.695" y="-210.0" type="line"/>
      <point x="173.19" y="4.634999999999999" type="line"/>
      <point x="205.84000000000003" y="-2.570000000000001"/>
      <point x="250.505" y="-9.725"/>
      <point x="301.66" y="-9.725" type="curve" smooth="yes"/>
      <point x="530.6" y="-9.725"/>
      <point x="656.1899999999999" y="135.57500000000002"/>
      <point x="656.1899999999999" y="348.395" type="curve" smooth="yes"/>
      <point x="656.1899999999999" y="475.39"/>
      <point x="592.4049999999999" y="551.0"/>
      <point x="467.17" y="551.0" type="curve" smooth="yes"/>
      <point x="378.72" y="551.0"/>
      <point x="311.555" y="520.3950000000001"/>
      <point x="235.82500000000002" y="473.50000000000006" type="curve"/>
      <point x="245.07500000000002" y="542.35" type="line"/>
      <point x="113.45" y="542.35" type="line"/>
    </contour>
    <contour>
      <point x="299.505" y="90.54000000000002" type="curve" smooth="yes"/>
      <point x="255.69" y="90.54000000000002"/>
      <point x="218.45000000000002" y="98.36500000000001"/>
      <point x="189.39" y="106.21500000000002" type="curve"/>
      <point x="232.51" y="380.25" type="line"/>
      <point x="287.77500000000003" y="414.86"/>
      <point x="343.75999999999993" y="436.16"/>
      <point x="397.32" y="436.16" type="curve" smooth="yes"/>
      <point x="469.44999999999993" y="436.16"/>
      <point x="510.14000000000004" y="397.95"/>
      <point x="510.14000000000004" y="316.755" type="curve" smooth="yes"/>
      <point x="510.14000000000004" y="192.60000000000002"/>
      <point x="423.55000000000007" y="90.54000000000002"/>
    </contour>
  </outline>
</glyph>
<glyph name="q" format="2">
  <advance width="686.7700000000001"/>
  <unicode hex="0071"/>
  <note>
12
</note>
  <outline>
    <contour>
      <point x="654.1549999999999" y="519.27" type="line"/>
      <point x="586.82" y="535.8400000000001"/>
      <point x="489.1499999999999" y="551.0"/>
      <point x="393.475" y="551.0" type="curve" smooth="yes"/>
      <point x="152.92" y="551.0"/>
      <point x="30.034999999999997" y="400.035"/>
      <point x="30.034999999999997" y="192.945" type="curve" smooth="yes"/>
      <point x="30.034999999999997" y="69.70999999999998"/>
      <point x="103.33" y="-10.0"/>
      <point x="236.59499999999997" y="-10.0" type="curve" smooth="yes"/>
      <point x="307.19" y="-10.0"/>
      <point x="367.425" y="13.809999999999997"/>
      <point x="436.765" y="60.904999999999994" type="curve"/>
      <point x="393.43" y="-210.0" type="line"/>
      <point x="537.55" y="-210.0" type="line"/>
    </contour>
    <contour>
      <point x="495.65500000000003" y="432.17" type="curve"/>
      <point x="451.315" y="153.585" type="line"/>
      <point x="395.9699999999999" y="117.885"/>
      <point x="344.55499999999995" y="101.54000000000002"/>
      <point x="293.17999999999995" y="101.54000000000002" type="curve" smooth="yes"/>
      <point x="224.67000000000002" y="101.54000000000002"/>
      <point x="175.305" y="142.27"/>
      <point x="175.305" y="219.56000000000003" type="curve" smooth="yes"/>
      <point x="175.305" y="341.31000000000006"/>
      <point x="253.6" y="447.2950000000001"/>
      <point x="384.14000000000004" y="447.2950000000001" type="curve" smooth="yes"/>
      <point x="427.825" y="447.2950000000001"/>
      <point x="466.975" y="439.88500000000005"/>
    </contour>
  </outline>
</glyph>
<glyph name="r" format="2">
  <advance width="489.22499999999997"/>
  <unicode hex="0072"/>
  <anchor x="96.96" y="0.0" name="bottom"/>
  <anchor x="314.54999999999995" y="541.0" name="top"/>
  <outline>
    <contour>
      <point x="242.635" y="541.0" type="line"/>
      <point x="113.83999999999999" y="541.0" type="line"/>
      <point x="27.349999999999994" y="0.0" type="line"/>
      <point x="171.54500000000002" y="0.0" type="line"/>
      <point x="229.255" y="359.77000000000004" type="line"/>
      <point x="295.095" y="407.16499999999996"/>
      <point x="348.4" y="424.115"/>
      <point x="396.635" y="424.115" type="curve" smooth="yes"/>
      <point x="425.005" y="424.115"/>
      <point x="455.485" y="419.165"/>
      <point x="484.715" y="411.35" type="curve"/>
      <point x="524.95" y="537.895" type="line"/>
      <point x="500.34499999999997" y="545.805"/>
      <point x="468.95" y="551.0"/>
      <point x="436.81999999999994" y="551.0" type="curve" smooth="yes"/>
      <point x="371.215" y="551.0"/>
      <point x="315.09" y="525.58"/>
      <point x="229.68" y="457.965" type="curve"/>
    </contour>
  </outline>
</glyph>
<glyph name="s" format="2">
  <advance width="567.05"/>
  <unicode hex="0073"/>
  <anchor x="259.65" y="0.0" name="bottom"/>
  <anchor x="330.7" y="541.0" name="top"/>
  <outline>
    <contour>
      <point x="-9.05" y="29.95000000000001" type="line"/>
      <point x="60.550000000000004" y="7.549999999999999"/>
      <point x="142.0" y="-10.0"/>
      <point x="241.4" y="-10.0" type="curve" smooth="yes"/>
      <point x="398.5" y="-10.0"/>
      <point x="521.9999999999999" y="33.150000000000006"/>
      <point x="521.9999999999999" y="171.14999999999998" type="curve" smooth="yes"/>
      <point x="521.9999999999999" y="357.6"/>
      <point x="193.29999999999998" y="294.35"/>
      <point x="193.29999999999998" y="389.74999999999994" type="curve" smooth="yes"/>
      <point x="193.29999999999998" y="426.35"/>
      <point x="232.64999999999995" y="451.5"/>
      <point x="321.5" y="451.5" type="curve" smooth="yes"/>
      <point x="382.70000000000005" y="451.5"/>
      <point x="456.8500000000001" y="439.59999999999997"/>
      <point x="509.85" y="421.90000000000003" type="curve"/>
      <point x="540.75" y="519.65" type="line"/>
      <point x="485.09999999999997" y="538.3000000000001"/>
      <point x="415.05" y="551.0"/>
      <point x="337.04999999999995" y="551.0" type="curve" smooth="yes"/>
      <point x="161.95" y="551.0"/>
      <point x="57.74999999999999" y="492.95"/>
      <point x="57.74999999999999" y="374.05000000000007" type="curve" smooth="yes"/>
      <point x="57.74999999999999" y="182.7"/>
      <point x="386.15" y="252.0"/>
      <point x="386.15" y="149.35" type="curve" smooth="yes"/>
      <point x="386.15" y="109.85000000000001"/>
      <point x="339.7" y="89.4"/>
      <point x="252.05000000000004" y="89.4" type="curve" smooth="yes"/>
      <point x="173.95" y="89.4"/>
      <point x="80.25" y="108.75000000000001"/>
      <point x="23.299999999999997" y="129.85" type="curve"/>
    </contour>
  </outline>
</glyph>
<glyph name="t" format="2">
  <advance width="470.33"/>
  <unicode hex="0074"/>
  <anchor x="231.67499999999998" y="0.0" name="bottom"/>
  <anchor x="231.31999999999996" y="282.83" name="center"/>
  <anchor x="245.0" y="663.1850000000001" name="top"/>
  <anchor x="435.255" y="780.7" name="topright"/>
  <outline>
    <contour>
      <point x="417.87999999999994" y="128.70000000000002" type="line"/>
      <point x="373.465" y="116.87"/>
      <point x="337.34999999999997" y="108.385"/>
      <point x="303.605" y="108.385" type="curve" smooth="yes"/>
      <point x="250.53" y="108.385"/>
      <point x="230.98999999999998" y="132.245"/>
      <point x="230.98999999999998" y="171.96" type="curve" smooth="yes"/>
      <point x="230.98999999999998" y="181.38500000000002"/>
      <point x="231.74" y="191.425"/>
      <point x="233.50500000000002" y="202.42" type="curve" smooth="yes"/>
      <point x="271.82" y="439.41499999999996" type="line"/>
      <point x="463.63499999999993" y="439.41499999999996" type="line"/>
      <point x="481.21" y="541.0" type="line"/>
      <point x="288.24" y="541.0" type="line"/>
      <point x="307.96000000000004" y="663.1850000000001" type="line"/>
      <point x="182.86999999999998" y="663.1850000000001" type="line"/>
      <point x="145.71" y="541.0" type="line"/>
      <point x="40.92" y="529.61" type="line"/>
      <point x="24.8" y="439.58" type="line"/>
      <point x="126.98" y="439.58" type="line"/>
      <point x="88.55499999999998" y="195.49" type="line" smooth="yes"/>
      <point x="84.45499999999998" y="170.86"/>
      <point x="82.095" y="144.5"/>
      <point x="82.095" y="126.10999999999999" type="curve" smooth="yes"/>
      <point x="82.095" y="24.695"/>
      <point x="142.64999999999998" y="-10.0"/>
      <point x="233.89499999999998" y="-10.0" type="curve" smooth="yes"/>
      <point x="292.06999999999994" y="-10.0"/>
      <point x="349.62" y="0.0600000000000005"/>
      <point x="414.45" y="20.304999999999996" type="curve"/>
    </contour>
  </outline>
</glyph>
<glyph name="u" format="2">
  <advance width="683.1"/>
  <unicode hex="0075"/>
  <note>
15
</note>
  <anchor x="295.63" y="0.0" name="bottom"/>
  <anchor x="637.7249999999999" y="12.485" name="ogonek"/>
  <anchor x="374.1317399999999" y="541.0" name="top"/>
  <anchor x="639.2149999999999" y="541.0" name="topright"/>
  <outline>
    <contour>
      <point x="210.65499999999997" y="-10.0" type="curve" smooth="yes"/>
      <point x="289.08000000000004" y="-10.0"/>
      <point x="363.065" y="16.275"/>
      <point x="441.31" y="64.505" type="curve"/>
      <point x="453.155" y="17.705"/>
      <point x="490.775" y="-10.0"/>
      <point x="544.51" y="-10.0" type="curve" smooth="yes"/>
      <point x="574.29" y="-10.0"/>
      <point x="611.3999999999999" y="-0.7049999999999992"/>
      <point x="637.7249999999999" y="16.72" type="curve"/>
      <point x="638.9649999999999" y="106.85" type="line"/>
      <point x="627.4350000000001" y="102.895"/>
      <point x="617.49" y="101.545"/>
      <point x="612.855" y="101.545" type="curve" smooth="yes"/>
      <point x="593.5849999999999" y="101.545"/>
      <point x="582.085" y="112.01500000000001"/>
      <point x="582.085" y="140.13000000000002" type="curve" smooth="yes"/>
      <point x="582.085" y="148.39000000000001"/>
      <point x="583.355" y="165.07500000000002"/>
      <point x="644.165" y="541.0" type="curve"/>
      <point x="499.34" y="541.0" type="line"/>
      <point x="438.52" y="147.94000000000003" type="line"/>
      <point x="384.5" y="119.815"/>
      <point x="333.915" y="101.79000000000002"/>
      <point x="278.34499999999997" y="101.79000000000002" type="curve" smooth="yes"/>
      <point x="225.23000000000002" y="101.79000000000002"/>
      <point x="197.94500000000002" y="126.60000000000001"/>
      <point x="198.275" y="171.725" type="curve" smooth="yes"/>
      <point x="201.245" y="207.94500000000002"/>
      <point x="207.8" y="249.42000000000002"/>
      <point x="255.555" y="541.0" type="curve"/>
      <point x="110.88" y="541.0" type="line"/>
      <point x="56.55" y="198.93"/>
      <point x="48.31999999999999" y="151.78000000000003"/>
      <point x="48.31999999999999" y="123.3" type="curve" smooth="yes"/>
      <point x="48.31999999999999" y="41.87"/>
      <point x="103.79499999999999" y="-10.0"/>
    </contour>
  </outline>
</glyph>
<glyph name="v" format="2">
  <advance width="600.645"/>
  <unicode hex="0076"/>
  <outline>
    <contour>
      <point x="321.015" y="-0.3400000000000001" type="line"/>
      <point x="522.2449999999999" y="277.66499999999996"/>
      <point x="607.805" y="393.075"/>
      <point x="623.8349999999999" y="541.0" type="curve"/>
      <point x="472.07499999999993" y="541.0" type="line"/>
      <point x="464.6449999999999" y="436.95500000000004"/>
      <point x="414.31499999999994" y="350.145"/>
      <point x="264.78499999999997" y="114.825" type="curve"/>
      <point x="187.305" y="544.15" type="line"/>
      <point x="35.220000000000006" y="541.845" type="line"/>
      <point x="156.97499999999997" y="-0.3400000000000001" type="line"/>
    </contour>
  </outline>
</glyph>
<glyph name="w" format="2">
  <advance width="858.765"/>
  <unicode hex="0077"/>
  <note>
15
</note>
  <anchor x="388.09499999999997" y="0.0" name="bottom"/>
  <anchor x="454.275" y="541.0" name="top"/>
  <outline>
    <contour>
      <point x="642.385" y="0.0" type="line"/>
      <point x="799.9649999999999" y="275.955"/>
      <point x="872.8750000000001" y="420.145"/>
      <point x="874.055" y="541.0" type="curve"/>
      <point x="743.5099999999999" y="541.0" type="line"/>
      <point x="739.4599999999999" y="445.515"/>
      <point x="707.995" y="354.62499999999994"/>
      <point x="577.765" y="107.17000000000002" type="curve"/>
      <point x="543.755" y="533.235" type="line"/>
      <point x="384.93499999999995" y="533.235" type="line"/>
      <point x="327.30999999999995" y="375.785"/>
      <point x="270.21999999999997" y="249.64"/>
      <point x="208.04499999999996" y="108.43" type="curve"/>
      <point x="175.57999999999998" y="544.15" type="line"/>
      <point x="41.215" y="542.1600000000001" type="line"/>
      <point x="100.10499999999999" y="0.0" type="line"/>
      <point x="270.48999999999995" y="0.0" type="line"/>
      <point x="328.05499999999995" y="119.575"/>
      <point x="392.0799999999999" y="261.315"/>
      <point x="440.265" y="373.26" type="curve"/>
      <point x="484.4999999999999" y="0.0" type="line"/>
    </contour>
  </outline>
</glyph>
<glyph name="x" format="2">
  <advance width="616.6799999999998"/>
  <unicode hex="0078"/>
  <outline>
    <contour>
      <point x="489.87999999999994" y="541.0" type="line"/>
      <point x="463.09999999999997" y="464.20000000000005"/>
      <point x="437.79" y="423.25999999999993"/>
      <point x="342.58" y="346.96" type="curve"/>
      <point x="225.42" y="549.1099999999999" type="line"/>
      <point x="68.02000000000001" y="540.14" type="line"/>
      <point x="224.64" y="291.98" type="line"/>
      <point x="81.66000000000001" y="184.63000000000002"/>
      <point x="22.899999999999995" y="101.72999999999999"/>
      <point x="-9.45" y="0.0" type="curve"/>
      <point x="143.8" y="0.0" type="line"/>
      <point x="167.16000000000003" y="76.00000000000001"/>
      <point x="200.98" y="133.66000000000003"/>
      <point x="291.15" y="206.2" type="curve"/>
      <point x="411.8799999999999" y="-2.7399999999999998" type="line"/>
      <point x="568.4999999999999" y="2.6599999999999993" type="line"/>
      <point x="405.96" y="263.90000000000003" type="line"/>
      <point x="540.7799999999999" y="364.08"/>
      <point x="606.38" y="453.54"/>
      <point x="640.21" y="541.0" type="curve"/>
    </contour>
  </outline>
</glyph>
<glyph name="y" format="2">
  <advance width="605.9000000000001"/>
  <unicode hex="0079"/>
  <anchor x="267.95" y="-188.99999999999997" name="bottom"/>
  <anchor x="334.09999999999997" y="541.0" name="top"/>
  <outline>
    <contour>
      <point x="483.95000000000005" y="542.15" type="line"/>
      <point x="468.84999999999997" y="423.9"/>
      <point x="379.8500000000001" y="242.04999999999998"/>
      <point x="282.65" y="86.80000000000001" type="curve"/>
      <point x="182.10000000000002" y="545.5" type="line"/>
      <point x="34.9" y="543.1500000000001" type="line"/>
      <point x="165.9" y="-3.35" type="line"/>
      <point x="219.35" y="-3.35" type="line"/>
      <point x="167.95" y="-76.89999999999998"/>
      <point x="110.5" y="-146.05"/>
      <point x="53.45" y="-208.54999999999998" type="curve"/>
      <point x="206.2" y="-214.95" type="line"/>
      <point x="384.2" y="1.865174681370263e-14"/>
      <point x="612.5" y="363.2"/>
      <point x="627.8000000000001" y="541.8" type="curve"/>
    </contour>
  </outline>
</glyph>
<glyph name="z" format="2">
  <advance width="620.885"/>
  <unicode hex="007A"/>
  <anchor x="279.05499999999995" y="0.0" name="bottom"/>
  <anchor x="311.11" y="275.0" name="center"/>
  <anchor x="352.13" y="541.0" name="top"/>
  <outline>
    <contour>
      <point x="5.649999999999999" y="0.0" type="line"/>
      <point x="549.2049999999999" y="0.0" type="line"/>
      <point x="566.0649999999999" y="103.47500000000001" type="line"/>
      <point x="214.79000000000002" y="103.47500000000001" type="line"/>
      <point x="595.4199999999998" y="445.83500000000004" type="line"/>
      <point x="612.06" y="541.0" type="line"/>
      <point x="102.515" y="541.0" type="line"/>
      <point x="85.10499999999999" y="437.195" type="line"/>
      <point x="405.88999999999993" y="437.195" type="line"/>
      <point x="19.42" y="90.87500000000001" type="line"/>
    </contour>
  </outline>
</glyph>
<glyph name="braceleft" format="2">
  <advance width="401.81"/>
  <unicode hex="007B"/>
  <outline>
    <contour>
      <point x="61.9" y="-88.52499999999999" type="curve" smooth="yes"/>
      <point x="61.9" y="-168.45"/>
      <point x="114.47999999999999" y="-210.0"/>
      <point x="204.48999999999998" y="-210.0" type="curve" smooth="yes"/>
      <point x="292.19" y="-210.0" type="line"/>
      <point x="307.45500000000004" y="-115.75" type="line"/>
      <point x="256.38499999999993" y="-115.75" type="line" smooth="yes"/>
      <point x="206.73" y="-115.75"/>
      <point x="189.045" y="-91.425"/>
      <point x="189.045" y="-57.32" type="curve" smooth="yes"/>
      <point x="189.045" y="23.320000000000004"/>
      <point x="254.57500000000002" y="90.78999999999999"/>
      <point x="254.57500000000002" y="180.42000000000002" type="curve" smooth="yes"/>
      <point x="254.57500000000002" y="214.79999999999998"/>
      <point x="241.605" y="245.12"/>
      <point x="201.23" y="265.90000000000003" type="curve"/>
      <point x="264.105" y="289.72"/>
      <point x="293.125" y="349.31"/>
      <point x="293.125" y="422.25" type="curve" smooth="yes"/>
      <point x="293.125" y="461.325"/>
      <point x="283.785" y="488.73"/>
      <point x="283.785" y="532.725" type="curve" smooth="yes"/>
      <point x="283.785" y="585.09"/>
      <point x="303.425" y="645.75"/>
      <point x="378.775" y="645.75" type="curve" smooth="yes"/>
      <point x="428.97499999999997" y="645.75" type="line"/>
      <point x="443.91" y="740.0" type="line"/>
      <point x="356.88500000000005" y="740.0" type="line" smooth="yes"/>
      <point x="219.575" y="740.0"/>
      <point x="161.54999999999998" y="641.865"/>
      <point x="161.54999999999998" y="531.0150000000001" type="curve" smooth="yes"/>
      <point x="161.54999999999998" y="487.14"/>
      <point x="171.0" y="451.03000000000003"/>
      <point x="171.0" y="414.705" type="curve" smooth="yes"/>
      <point x="171.0" y="359.15000000000003"/>
      <point x="154.285" y="313.435"/>
      <point x="107.28" y="313.435" type="curve" smooth="yes"/>
      <point x="91.38499999999999" y="313.435" type="line"/>
      <point x="76.28499999999998" y="218.92000000000002" type="line"/>
      <point x="92.225" y="218.92000000000002" type="line" smooth="yes"/>
      <point x="122.76999999999998" y="218.92000000000002"/>
      <point x="134.04" y="201.26"/>
      <point x="134.04" y="175.89999999999998" type="curve" smooth="yes"/>
      <point x="134.04" y="92.73500000000001"/>
      <point x="61.9" y="14.250000000000002"/>
    </contour>
  </outline>
</glyph>
<glyph name="bar" format="2">
  <advance width="268.61"/>
  <unicode hex="007C"/>
  <outline>
    <contour>
      <point x="273.09999999999997" y="790.165" type="line"/>
      <point x="160.49999999999997" y="790.165" type="line"/>
      <point x="0.34499999999999176" y="-210.0" type="line"/>
      <point x="112.725" y="-210.0" type="line"/>
    </contour>
  </outline>
</glyph>
<glyph name="braceright" format="2">
  <advance width="401.81"/>
  <unicode hex="007D"/>
  <outline>
    <contour>
      <point x="336.595" y="618.525" type="curve" smooth="yes"/>
      <point x="336.595" y="698.615"/>
      <point x="283.84999999999997" y="740.165"/>
      <point x="193.84" y="740.165" type="curve" smooth="yes"/>
      <point x="106.14" y="740.165" type="line"/>
      <point x="90.875" y="645.915" type="line"/>
      <point x="140.295" y="645.915" type="line" smooth="yes"/>
      <point x="190.11499999999998" y="645.915"/>
      <point x="207.965" y="621.425"/>
      <point x="207.965" y="587.3199999999999" type="curve" smooth="yes"/>
      <point x="207.965" y="506.34999999999997"/>
      <point x="142.43499999999997" y="443.395"/>
      <point x="142.43499999999997" y="350.3" type="curve" smooth="yes"/>
      <point x="142.43499999999997" y="316.415"/>
      <point x="155.23999999999998" y="286.095"/>
      <point x="195.945" y="265.48" type="curve"/>
      <point x="133.07" y="241.49499999999998"/>
      <point x="103.88499999999999" y="182.235"/>
      <point x="103.88499999999999" y="109.13" type="curve" smooth="yes"/>
      <point x="103.88499999999999" y="70.055"/>
      <point x="113.225" y="41.435"/>
      <point x="113.225" y="-2.2299999999999978" type="curve" smooth="yes"/>
      <point x="113.225" y="-54.595"/>
      <point x="93.75" y="-115.585"/>
      <point x="18.400000000000002" y="-115.585" type="curve" smooth="yes"/>
      <point x="-30.479999999999997" y="-115.585" type="line"/>
      <point x="-45.415" y="-210.0" type="line"/>
      <point x="41.44499999999999" y="-210.0" type="line" smooth="yes"/>
      <point x="178.75500000000002" y="-210.0"/>
      <point x="236.78" y="-109.72"/>
      <point x="236.78" y="-4.149999999999999" type="curve" smooth="yes"/>
      <point x="236.78" y="44.18000000000001"/>
      <point x="227.32999999999998" y="82.165"/>
      <point x="227.32999999999998" y="117.33500000000001" type="curve" smooth="yes"/>
      <point x="227.32999999999998" y="172.56"/>
      <point x="244.375" y="217.945"/>
      <point x="291.05" y="217.945" type="curve" smooth="yes"/>
      <point x="306.945" y="217.945" type="line"/>
      <point x="322.045" y="312.295" type="line"/>
      <point x="306.105" y="312.295" type="line" smooth="yes"/>
      <point x="275.56" y="312.295"/>
      <point x="264.28999999999996" y="329.95500000000004"/>
      <point x="264.28999999999996" y="355.315" type="curve" smooth="yes"/>
      <point x="264.28999999999996" y="438.64500000000004"/>
      <point x="336.595" y="513.44"/>
    </contour>
  </outline>
</glyph>
<glyph name="asciitilde" format="2">
  <advance width="560.1949999999999"/>
  <unicode hex="007E"/>
  <outline>
    <contour>
      <point x="492.28999999999996" y="241.65" type="curve"/>
      <point x="509.59999999999997" y="357.63500000000005" type="line"/>
      <point x="480.53000000000003" y="332.7"/>
      <point x="447.83500000000004" y="317.15500000000003"/>
      <point x="407.615" y="317.15500000000003" type="curve" smooth="yes"/>
      <point x="306.9" y="317.15500000000003"/>
      <point x="257.28499999999997" y="407.75"/>
      <point x="177.05" y="407.75" type="curve" smooth="yes"/>
      <point x="129.65" y="407.75"/>
      <point x="95.57" y="384.31499999999994"/>
      <point x="79.435" y="371.375" type="curve"/>
      <point x="60.199999999999996" y="255.075" type="line"/>
      <point x="87.13999999999999" y="273.95"/>
      <point x="114.88499999999999" y="292.15999999999997"/>
      <point x="158.62499999999997" y="292.15999999999997" type="curve" smooth="yes"/>
      <point x="251.61" y="292.15999999999997"/>
      <point x="298.735" y="201.565"/>
      <point x="396.255" y="201.565" type="curve" smooth="yes"/>
      <point x="430.265" y="201.565"/>
      <point x="466.815" y="218.66"/>
    </contour>
  </outline>
</glyph>
<glyph name="cent" format="2">
  <advance width="833.01"/>
  <unicode hex="00A2"/>
  <outline>
    <contour>
      <point x="327.34499999999997" y="-104.78" type="line"/>
      <point x="431.365" y="-104.78" type="line"/>
      <point x="446.915" y="-7.9799999999999995" type="line"/>
      <point x="527.4899999999999" y="-4.84"/>
      <point x="597.445" y="6.359999999999999"/>
      <point x="647.8299999999999" y="20.22" type="curve"/>
      <point x="645.8499999999999" y="126.705" type="line"/>
      <point x="581.2" y="114.345"/>
      <point x="516.77" y="103.88000000000002"/>
      <point x="461.575" y="103.88000000000002" type="curve" smooth="yes"/>
      <point x="352.14" y="103.88000000000002"/>
      <point x="297.045" y="146.5"/>
      <point x="297.045" y="225.35000000000002" type="curve" smooth="yes"/>
      <point x="297.045" y="351.50499999999994"/>
      <point x="384.51" y="434.76"/>
      <point x="509.68999999999994" y="434.76" type="curve" smooth="yes"/>
      <point x="572.94" y="434.76"/>
      <point x="618.51" y="425.415"/>
      <point x="682.095" y="409.91" type="curve"/>
      <point x="718.04" y="522.755" type="line"/>
      <point x="661.3999999999999" y="537.845"/>
      <point x="609.77" y="548.64"/>
      <point x="536.8149999999999" y="550.04" type="curve"/>
      <point x="552.8849999999999" y="645.835" type="line"/>
      <point x="448.86499999999995" y="645.835" type="line"/>
      <point x="431.31" y="540.1" type="line"/>
      <point x="252.46999999999997" y="509.82"/>
      <point x="147.58499999999998" y="371.995"/>
      <point x="147.58499999999998" y="193.64999999999998" type="curve" smooth="yes"/>
      <point x="147.58499999999998" y="70.355"/>
      <point x="221.59" y="10.565000000000003"/>
      <point x="343.38" y="-2.8949999999999996" type="curve"/>
    </contour>
  </outline>
</glyph>
<glyph name="sterling" format="2">
  <advance width="833.55"/>
  <unicode hex="00A3"/>
  <outline>
    <contour>
      <point x="85.32999999999998" y="0.0" type="line"/>
      <point x="682.8299999999999" y="0.0" type="line"/>
      <point x="700.08" y="109.00000000000003" type="line"/>
      <point x="272.78" y="109.00000000000003" type="line"/>
      <point x="340.81000000000006" y="161.86"/>
      <point x="377.28000000000003" y="209.97"/>
      <point x="377.28000000000003" y="281.25" type="curve" smooth="yes"/>
      <point x="377.28000000000003" y="332.07"/>
      <point x="340.63999999999993" y="393.8999999999999"/>
      <point x="340.63999999999993" y="450.9100000000001" type="curve" smooth="yes"/>
      <point x="340.63999999999993" y="548.17"/>
      <point x="422.98" y="595.3000000000001"/>
      <point x="534.97" y="595.3000000000001" type="curve" smooth="yes"/>
      <point x="606.4" y="595.3000000000001"/>
      <point x="668.0099999999999" y="587.37"/>
      <point x="738.4100000000001" y="564.57" type="curve"/>
      <point x="775.4799999999999" y="671.0699999999999" type="line"/>
      <point x="695.7100000000002" y="698.6500000000001"/>
      <point x="623.07" y="710.0"/>
      <point x="535.2099999999999" y="710.0" type="curve" smooth="yes"/>
      <point x="372.44" y="710.0"/>
      <point x="201.87" y="636.69"/>
      <point x="201.87" y="472.34000000000003" type="curve" smooth="yes"/>
      <point x="201.87" y="396.01"/>
      <point x="241.9" y="339.64000000000004"/>
      <point x="241.9" y="277.12" type="curve" smooth="yes"/>
      <point x="241.9" y="200.17000000000002"/>
      <point x="186.8" y="148.78"/>
      <point x="98.86999999999998" y="89.75" type="curve"/>
    </contour>
    <contour>
      <point x="114.91" y="307.81000000000006" type="line"/>
      <point x="628.8399999999999" y="308.25999999999993" type="line"/>
      <point x="643.57" y="401.11" type="line"/>
      <point x="129.12" y="401.11" type="line"/>
    </contour>
  </outline>
</glyph>
<glyph name="currency" format="2">
  <advance width="468.515"/>
  <unicode hex="00A4"/>
  <outline>
    <contour>
      <point x="86.125" y="97.435" type="line"/>
      <point x="163.515" y="170.18" type="line"/>
      <point x="177.03500000000003" y="160.08"/>
      <point x="194.45999999999998" y="154.745"/>
      <point x="214.61499999999998" y="154.745" type="curve" smooth="yes"/>
      <point x="234.895" y="154.745"/>
      <point x="254.655" y="160.39499999999998"/>
      <point x="272.165" y="170.4" type="curve"/>
      <point x="327.66999999999996" y="97.435" type="line"/>
      <point x="401.83500000000004" y="167.04" type="line"/>
      <point x="353.0" y="232.03" type="line"/>
      <point x="371.21500000000003" y="258.03499999999997"/>
      <point x="383.055" y="289.965"/>
      <point x="383.385" y="325.41499999999996" type="curve" smooth="yes"/>
      <point x="383.71500000000003" y="341.34499999999997"/>
      <point x="380.63" y="356.71999999999997"/>
      <point x="375.13" y="369.73" type="curve"/>
      <point x="444.09000000000003" y="434.72" type="line"/>
      <point x="392.65" y="504.325" type="line"/>
      <point x="314.505" y="431.855" type="line"/>
      <point x="300.395" y="442.175"/>
      <point x="281.955" y="448.125"/>
      <point x="261.125" y="448.125" type="curve" smooth="yes"/>
      <point x="240.805" y="448.125"/>
      <point x="221.415" y="442.01"/>
      <point x="204.34500000000003" y="432.075" type="curve"/>
      <point x="150.72000000000003" y="504.325" type="line"/>
      <point x="76.495" y="434.72" type="line"/>
      <point x="123.17999999999999" y="370.965" type="line"/>
      <point x="104.21000000000001" y="345.63500000000005"/>
      <point x="92.98499999999999" y="313.565"/>
      <point x="92.655" y="278.925" type="curve" smooth="yes"/>
      <point x="92.325" y="261.075"/>
      <point x="95.245" y="244.41"/>
      <point x="101.13000000000001" y="230.48" type="curve"/>
      <point x="33.855" y="167.04" type="line"/>
    </contour>
    <contour>
      <point x="227.25" y="232.77" type="curve" smooth="yes"/>
      <point x="195.785" y="232.77"/>
      <point x="174.66" y="256.65500000000003"/>
      <point x="175.15499999999997" y="289.97999999999996" type="curve" smooth="yes"/>
      <point x="175.64999999999998" y="333.72499999999997"/>
      <point x="211.08" y="369.935"/>
      <point x="248.71999999999997" y="369.935" type="curve" smooth="yes"/>
      <point x="280.705" y="369.935"/>
      <point x="301.53000000000003" y="345.1"/>
      <point x="301.035" y="312.66999999999996" type="curve" smooth="yes"/>
      <point x="300.54" y="267.575"/>
      <point x="264.885" y="232.77"/>
    </contour>
  </outline>
</glyph>
<glyph name="yen" format="2">
  <advance width="836.6499999999999"/>
  <unicode hex="00A5"/>
  <outline>
    <contour>
      <point x="143.7" y="314.05" type="line"/>
      <point x="348.8499999999999" y="314.05" type="line"/>
      <point x="339.19999999999993" y="255.30000000000004" type="line"/>
      <point x="134.45" y="255.30000000000004" type="line"/>
      <point x="122.69999999999999" y="179.6" type="line"/>
      <point x="327.45" y="179.6" type="line"/>
      <point x="299.1499999999999" y="0.0" type="line"/>
      <point x="451.49999999999994" y="0.0" type="line"/>
      <point x="480.3" y="179.6" type="line"/>
      <point x="690.0" y="179.6" type="line"/>
      <point x="701.3000000000001" y="255.30000000000004" type="line"/>
      <point x="491.55" y="255.30000000000004" type="line"/>
      <point x="501.2" y="314.05" type="line"/>
      <point x="710.9999999999999" y="314.05" type="line"/>
      <point x="722.75" y="388.9" type="line"/>
      <point x="513.3999999999999" y="388.9" type="line"/>
      <point x="805.5000000000001" y="697.5999999999999" type="line"/>
      <point x="653.75" y="703.6" type="line"/>
      <point x="451.24999999999994" y="474.30000000000007" type="line"/>
      <point x="317.95" y="702.8" type="line"/>
      <point x="164.2" y="697.5999999999999" type="line"/>
      <point x="360.65" y="388.9" type="line"/>
      <point x="156.39999999999998" y="388.9" type="line"/>
    </contour>
  </outline>
</glyph>
<glyph name="brokenbar" format="2">
  <advance width="269.57"/>
  <unicode hex="00A6"/>
  <outline>
    <contour>
      <point x="209.375" y="391.0" type="line"/>
      <point x="274.09000000000003" y="790.165" type="line"/>
      <point x="161.48999999999998" y="790.165" type="line"/>
      <point x="96.77499999999999" y="391.0" type="line"/>
    </contour>
    <contour>
      <point x="64.89499999999998" y="190.16500000000002" type="line"/>
      <point x="0.47999999999998977" y="-210.0" type="line"/>
      <point x="112.695" y="-210.0" type="line"/>
      <point x="177.275" y="190.16500000000002" type="line"/>
    </contour>
  </outline>
</glyph>
<glyph name="section" format="2">
  <advance width="590.545"/>
  <unicode hex="00A7"/>
  <outline>
    <contour>
      <point x="20.69" y="-51.540000000000006" type="curve"/>
      <point x="-27.965" y="-169.565" type="line"/>
      <point x="31.354999999999997" y="-201.26"/>
      <point x="96.43999999999998" y="-220.0"/>
      <point x="164.875" y="-220.0" type="curve" smooth="yes"/>
      <point x="363.75" y="-220.0"/>
      <point x="528.9649999999999" y="-81.85499999999999"/>
      <point x="528.9649999999999" y="137.54500000000002" type="curve" smooth="yes"/>
      <point x="528.9649999999999" y="306.315"/>
      <point x="405.2299999999999" y="413.77500000000003"/>
      <point x="405.2299999999999" y="526.78" type="curve" smooth="yes"/>
      <point x="405.2299999999999" y="584.12"/>
      <point x="437.28" y="618.91"/>
      <point x="489.60499999999996" y="618.91" type="curve" smooth="yes"/>
      <point x="512.41" y="618.91"/>
      <point x="530.72" y="612.3149999999999"/>
      <point x="550.51" y="604.625" type="curve"/>
      <point x="589.425" y="729.345" type="line"/>
      <point x="544.4599999999999" y="742.485"/>
      <point x="487.355" y="749.665"/>
      <point x="436.01500000000004" y="749.665" type="curve" smooth="yes"/>
      <point x="226.79000000000002" y="749.665"/>
      <point x="68.98499999999999" y="608.045"/>
      <point x="68.98499999999999" y="396.525" type="curve" smooth="yes"/>
      <point x="68.98499999999999" y="213.45000000000002"/>
      <point x="193.16" y="97.93"/>
      <point x="193.16" y="-7.630000000000001" type="curve" smooth="yes"/>
      <point x="193.16" y="-56.489999999999995"/>
      <point x="161.8" y="-89.405"/>
      <point x="119.40499999999999" y="-89.405" type="curve" smooth="yes"/>
      <point x="86.16999999999999" y="-89.405"/>
      <point x="52.269999999999996" y="-72.64999999999999"/>
    </contour>
    <contour>
      <point x="386.88" y="666.83" type="curve"/>
      <point x="321.735" y="635.6650000000001"/>
      <point x="297.85999999999996" y="575.095"/>
      <point x="297.85999999999996" y="511.59499999999997" type="curve" smooth="yes"/>
      <point x="297.85999999999996" y="378.66499999999996"/>
      <point x="414.87999999999994" y="240.875"/>
      <point x="414.87999999999994" y="105.37" type="curve" smooth="yes"/>
      <point x="414.87999999999994" y="-37.08999999999999"/>
      <point x="311.655" y="-149.76"/>
      <point x="178.795" y="-147.265" type="curve"/>
      <point x="256.385" y="-125.425"/>
      <point x="301.69499999999994" y="-55.269999999999996"/>
      <point x="301.69499999999994" y="17.510000000000012" type="curve" smooth="yes"/>
      <point x="301.69499999999994" y="139.18"/>
      <point x="187.38" y="268.975"/>
      <point x="187.38" y="411.575" type="curve" smooth="yes"/>
      <point x="187.38" y="545.8100000000001"/>
      <point x="257.46" y="649.6750000000001"/>
    </contour>
  </outline>
</glyph>
<glyph name="copyright" format="2">
  <advance width="830.2949999999998"/>
  <unicode hex="00A9"/>
  <outline>
    <contour>
      <point x="398.19" y="-10.2" type="curve" smooth="yes"/>
      <point x="648.76" y="-11.669999999999998"/>
      <point x="787.785" y="146.21"/>
      <point x="787.785" y="388.65500000000003" type="curve" smooth="yes"/>
      <point x="787.785" y="586.53"/>
      <point x="666.4599999999999" y="708.235"/>
      <point x="455.88500000000005" y="709.705" type="curve" smooth="yes"/>
      <point x="210.54999999999998" y="711.1750000000001"/>
      <point x="66.34499999999998" y="558.3050000000001"/>
      <point x="66.34499999999998" y="311.05" type="curve" smooth="yes"/>
      <point x="66.34499999999998" y="114.635"/>
      <point x="185.54999999999995" y="-8.73"/>
    </contour>
    <contour>
      <point x="416.935" y="160.94" type="curve" smooth="yes"/>
      <point x="476.03999999999985" y="160.94"/>
      <point x="530.2549999999999" y="172.97"/>
      <point x="571.34" y="188.45499999999998" type="curve"/>
      <point x="563.37" y="260.695" type="line"/>
      <point x="523.305" y="249.66500000000002"/>
      <point x="480.98999999999995" y="242.10500000000002"/>
      <point x="440.84000000000003" y="242.10500000000002" type="curve" smooth="yes"/>
      <point x="376.5249999999999" y="242.10500000000002"/>
      <point x="339.77" y="270.77"/>
      <point x="339.77" y="321.78999999999996" type="curve" smooth="yes"/>
      <point x="339.77" y="400.995"/>
      <point x="387.34000000000003" y="455.755"/>
      <point x="469.335" y="455.755" type="curve" smooth="yes"/>
      <point x="510.385" y="455.755"/>
      <point x="543.9749999999998" y="451.465"/>
      <point x="583.4699999999999" y="442.575" type="curve"/>
      <point x="604.6700000000001" y="521.3949999999999" type="line"/>
      <point x="567.6799999999998" y="532.085"/>
      <point x="522.9" y="539.1349999999999"/>
      <point x="472.23999999999995" y="539.1349999999999" type="curve" smooth="yes"/>
      <point x="336.5849999999999" y="539.1349999999999"/>
      <point x="241.00999999999993" y="458.25"/>
      <point x="241.00999999999993" y="316.71" type="curve" smooth="yes"/>
      <point x="241.00999999999993" y="216.48499999999999"/>
      <point x="307.98499999999996" y="160.94"/>
    </contour>
    <contour>
      <point x="405.99499999999995" y="48.92" type="curve" smooth="yes"/>
      <point x="225.72499999999997" y="48.92"/>
      <point x="132.515" y="144.70000000000002"/>
      <point x="132.515" y="317.2" type="curve" smooth="yes"/>
      <point x="132.515" y="518.8199999999999"/>
      <point x="236.06" y="651.2149999999999"/>
      <point x="448.675" y="651.2149999999999" type="curve" smooth="yes"/>
      <point x="624.0949999999999" y="651.2149999999999"/>
      <point x="721.615" y="554.805"/>
      <point x="721.615" y="382.275" type="curve" smooth="yes"/>
      <point x="721.615" y="181.055"/>
      <point x="618.21" y="48.92"/>
    </contour>
  </outline>
</glyph>
<glyph name="ordfeminine" format="2">
  <advance width="470.23999999999995"/>
  <unicode hex="00AA"/>
  <outline>
    <contour>
      <point x="36.894999999999996" y="232.60999999999999" type="line"/>
      <point x="411.4" y="232.60999999999999" type="line"/>
      <point x="422.97999999999996" y="306.60499999999996" type="line"/>
      <point x="48.475" y="306.60499999999996" type="line"/>
    </contour>
    <component base="a.superior" xOffset="11.42"/>
  </outline>
</glyph>
<glyph name="logicalnot" format="2">
  <advance width="556.5"/>
  <unicode hex="00AC"/>
  <outline>
    <contour>
      <point x="64.21" y="330.26000000000005" type="line"/>
      <point x="401.0" y="330.26000000000005" type="line"/>
      <point x="375.96000000000004" y="167.70499999999998" type="line"/>
      <point x="483.5799999999999" y="167.70499999999998" type="line"/>
      <point x="527.185" y="442.035" type="line"/>
      <point x="82.77499999999999" y="442.035" type="line"/>
    </contour>
  </outline>
</glyph>
<glyph name="registered" format="2">
  <advance width="754.97"/>
  <unicode hex="00AE"/>
  <outline>
    <contour>
      <point x="383.73499999999996" y="209.53" type="curve" smooth="yes"/>
      <point x="611.9149999999998" y="209.53"/>
      <point x="746.8950000000001" y="368.84499999999997"/>
      <point x="746.8950000000001" y="605.8950000000001" type="curve" smooth="yes"/>
      <point x="746.8950000000001" y="781.49"/>
      <point x="643.985" y="892.64"/>
      <point x="457.63999999999993" y="892.64" type="curve" smooth="yes"/>
      <point x="229.46" y="892.64"/>
      <point x="96.11" y="732.825"/>
      <point x="96.11" y="496.275" type="curve" smooth="yes"/>
      <point x="96.11" y="321.31"/>
      <point x="196.76000000000002" y="209.53"/>
    </contour>
    <contour>
      <point x="390.2049999999999" y="266.485" type="curve" smooth="yes"/>
      <point x="235.335" y="266.485"/>
      <point x="156.10500000000002" y="358.23"/>
      <point x="156.10500000000002" y="496.65" type="curve" smooth="yes"/>
      <point x="156.10500000000002" y="707.3249999999999"/>
      <point x="264.995" y="835.8149999999999"/>
      <point x="451.8" y="835.8149999999999" type="curve" smooth="yes"/>
      <point x="606.6700000000001" y="835.8149999999999"/>
      <point x="686.8999999999999" y="743.94"/>
      <point x="686.8999999999999" y="605.02" type="curve" smooth="yes"/>
      <point x="686.8999999999999" y="394.345"/>
      <point x="576.38" y="266.485"/>
    </contour>
    <contour>
      <point x="247.68999999999997" y="390.87500000000006" type="line"/>
      <point x="331.24999999999994" y="390.87500000000006" type="line"/>
      <point x="349.63999999999993" y="503.90999999999997" type="line"/>
      <point x="367.61999999999995" y="503.44"/>
      <point x="387.0899999999999" y="502.34"/>
      <point x="412.03999999999996" y="503.105" type="curve"/>
      <point x="476.105" y="522.5" type="line"/>
      <point x="544.7149999999999" y="524.955"/>
      <point x="595.7049999999999" y="556.54"/>
      <point x="595.7049999999999" y="637.04" type="curve" smooth="yes"/>
      <point x="595.7049999999999" y="696.9150000000001"/>
      <point x="553.165" y="723.3299999999999"/>
      <point x="442.645" y="723.3299999999999" type="curve" smooth="yes"/>
      <point x="410.75" y="723.3299999999999"/>
      <point x="365.25" y="722.595"/>
      <point x="299.94499999999994" y="718.325" type="curve"/>
    </contour>
    <contour>
      <point x="412.13999999999993" y="559.875" type="curve" smooth="yes"/>
      <point x="396.73499999999996" y="559.875"/>
      <point x="384.29999999999995" y="560.7099999999999"/>
      <point x="358.865" y="561.01" type="curve"/>
      <point x="373.285" y="656.47" type="line"/>
      <point x="406.13499999999993" y="658.265"/>
      <point x="412.66499999999996" y="658.765"/>
      <point x="439.47499999999997" y="658.765" type="curve" smooth="yes"/>
      <point x="492.06999999999994" y="658.765"/>
      <point x="509.47499999999985" y="649.24"/>
      <point x="509.47499999999985" y="623.59" type="curve" smooth="yes"/>
      <point x="509.47499999999985" y="580.2"/>
      <point x="491.0049999999999" y="559.875"/>
    </contour>
    <contour>
      <point x="563.1700000000001" y="387.34" type="curve" smooth="yes"/>
      <point x="565.565" y="387.34"/>
      <point x="571.2049999999999" y="387.67"/>
      <point x="575.3249999999999" y="388.665" type="curve"/>
      <point x="586.4199999999998" y="465.495" type="line"/>
      <point x="583.5899999999999" y="465.325"/>
      <point x="581.5199999999999" y="465.325"/>
      <point x="579.5849999999999" y="465.325" type="curve" smooth="yes"/>
      <point x="559.245" y="465.325"/>
      <point x="518.475" y="491.855"/>
      <point x="488.67499999999995" y="535.555" type="curve"/>
      <point x="393.66499999999996" y="512.59" type="line"/>
      <point x="449.83499999999987" y="432.97"/>
      <point x="503.7699999999999" y="387.34"/>
    </contour>
  </outline>
</glyph>
<glyph name="degree" format="2">
  <advance width="337.875"/>
  <unicode hex="00B0"/>
  <outline>
    <contour>
      <point x="194.45" y="414.73" type="curve" smooth="yes"/>
      <point x="287.05999999999995" y="414.73"/>
      <point x="352.38999999999993" y="496.4650000000001"/>
      <point x="352.38999999999993" y="596.745" type="curve" smooth="yes"/>
      <point x="352.38999999999993" y="661.36"/>
      <point x="317.65000000000003" y="717.33"/>
      <point x="235.44" y="717.33" type="curve" smooth="yes"/>
      <point x="143.35500000000002" y="717.33"/>
      <point x="77.965" y="634.26"/>
      <point x="77.965" y="534.61" type="curve" smooth="yes"/>
      <point x="77.965" y="470.235"/>
      <point x="112.765" y="414.73"/>
    </contour>
    <contour>
      <point x="206.04000000000002" y="505.41999999999996" type="curve" smooth="yes"/>
      <point x="180.22499999999997" y="505.41999999999996"/>
      <point x="165.99500000000003" y="524.5900000000001"/>
      <point x="165.99500000000003" y="551.03" type="curve" smooth="yes"/>
      <point x="165.99500000000003" y="591.995"/>
      <point x="190.565" y="625.98"/>
      <point x="224.14999999999998" y="625.98" type="curve" smooth="yes"/>
      <point x="250.76000000000002" y="625.98"/>
      <point x="264.36" y="606.54"/>
      <point x="264.36" y="579.635" type="curve" smooth="yes"/>
      <point x="264.36" y="539.96"/>
      <point x="238.99499999999998" y="505.41999999999996"/>
    </contour>
  </outline>
</glyph>
<glyph name="plusminus" format="2">
  <advance width="557.54"/>
  <unicode hex="00B1"/>
  <outline>
    <contour>
      <point x="462.645" y="32.915" type="line"/>
      <point x="481.21000000000004" y="146.475" type="line"/>
      <point x="318.285" y="146.475" type="line"/>
      <point x="341.51" y="293.28000000000003" type="line"/>
      <point x="504.29999999999995" y="293.28000000000003" type="line"/>
      <point x="522.865" y="406.84" type="line"/>
      <point x="360.075" y="406.84" type="line"/>
      <point x="384.935" y="561.0" type="line"/>
      <point x="264.775" y="561.0" type="line"/>
      <point x="239.28" y="406.84" type="line"/>
      <point x="77.375" y="406.84" type="line"/>
      <point x="58.81" y="293.28000000000003" type="line"/>
      <point x="221.35" y="293.28000000000003" type="line"/>
      <point x="197.355" y="146.475" type="line"/>
      <point x="35.72" y="146.475" type="line"/>
      <point x="17.154999999999998" y="32.915" type="line"/>
    </contour>
  </outline>
</glyph>
<glyph name="uni00B2" format="2">
  <advance width="489.575"/>
  <unicode hex="00B2"/>
  <outline>
    <contour>
      <point x="64.89999999999999" y="369.495" type="line"/>
      <point x="455.98999999999995" y="369.495" type="line"/>
      <point x="466.71999999999997" y="434.67" type="line"/>
      <point x="236.79" y="434.67" type="line"/>
      <point x="348.395" y="502.83000000000004"/>
      <point x="449.34" y="568.5899999999999"/>
      <point x="449.34" y="667.405" type="curve" smooth="yes"/>
      <point x="449.34" y="739.995"/>
      <point x="381.96" y="772.3199999999999"/>
      <point x="301.77" y="772.3199999999999" type="curve" smooth="yes"/>
      <point x="245.2" y="772.3199999999999"/>
      <point x="171.085" y="754.735"/>
      <point x="124.1" y="730.38" type="curve"/>
      <point x="143.69" y="662.14" type="line"/>
      <point x="185.11499999999998" y="683.37"/>
      <point x="227.61499999999998" y="694.995"/>
      <point x="265.3499999999999" y="694.995" type="curve" smooth="yes"/>
      <point x="308.645" y="694.995"/>
      <point x="335.71000000000004" y="675.965"/>
      <point x="335.71000000000004" y="641.1949999999999" type="curve" smooth="yes"/>
      <point x="335.375" y="565.775"/>
      <point x="236.89" y="501.875"/>
      <point x="72.21499999999997" y="422.655" type="curve"/>
    </contour>
  </outline>
</glyph>
<glyph name="uni00B3" format="2">
  <advance width="478.4249999999999"/>
  <unicode hex="00B3"/>
  <outline>
    <contour>
      <point x="44.425000000000004" y="401.05" type="line"/>
      <point x="96.05" y="374.09999999999997"/>
      <point x="164.62499999999997" y="363.45"/>
      <point x="239.225" y="363.45" type="curve" smooth="yes"/>
      <point x="368.725" y="363.45"/>
      <point x="473.95000000000005" y="399.92500000000007"/>
      <point x="473.95000000000005" y="494.65000000000003" type="curve" smooth="yes"/>
      <point x="473.95000000000005" y="536.0"/>
      <point x="445.94999999999993" y="566.875"/>
      <point x="397.7749999999999" y="578.3499999999999" type="curve"/>
      <point x="448.0" y="593.175"/>
      <point x="484.59999999999997" y="624.9000000000001"/>
      <point x="484.59999999999997" y="674.6" type="curve" smooth="yes"/>
      <point x="484.59999999999997" y="734.1500000000001"/>
      <point x="416.575" y="772.65"/>
      <point x="295.29999999999995" y="772.65" type="curve" smooth="yes"/>
      <point x="233.975" y="772.65"/>
      <point x="162.35" y="762.1750000000001"/>
      <point x="119.45" y="747.175" type="curve"/>
      <point x="124.90000000000002" y="682.675" type="line"/>
      <point x="171.95" y="694.475"/>
      <point x="229.42499999999998" y="700.8249999999999"/>
      <point x="273.45" y="700.8249999999999" type="curve" smooth="yes"/>
      <point x="342.4" y="700.8249999999999"/>
      <point x="384.27500000000003" y="684.025"/>
      <point x="384.27500000000003" y="653.8" type="curve" smooth="yes"/>
      <point x="384.27500000000003" y="619.7499999999999"/>
      <point x="343.525" y="602.175"/>
      <point x="276.12499999999994" y="602.175" type="curve" smooth="yes"/>
      <point x="178.75000000000003" y="602.175" type="line"/>
      <point x="168.49999999999997" y="543.5" type="line"/>
      <point x="256.2" y="543.5" type="line" smooth="yes"/>
      <point x="345.275" y="543.5"/>
      <point x="376.1" y="525.575"/>
      <point x="376.1" y="492.20000000000005" type="curve" smooth="yes"/>
      <point x="376.1" y="452.3"/>
      <point x="325.9" y="431.7"/>
      <point x="235.79999999999998" y="431.7" type="curve" smooth="yes"/>
      <point x="171.29999999999998" y="431.7"/>
      <point x="115.45" y="443.45"/>
      <point x="75.45" y="463.17499999999995" type="curve"/>
    </contour>
  </outline>
</glyph>
<glyph name="uni00B5" format="2">
  <advance width="685.455"/>
  <unicode hex="00B5"/>
  <outline>
    <contour>
      <point x="-4.845000000000002" y="-210.0" type="line"/>
      <point x="138.925" y="-210.0" type="line"/>
      <point x="176.575" y="26.859999999999992" type="line"/>
      <point x="187.15999999999997" y="3.7499999999999982"/>
      <point x="211.14999999999998" y="-10.0"/>
      <point x="248.76" y="-10.0" type="curve" smooth="yes"/>
      <point x="314.91999999999996" y="-10.0"/>
      <point x="377.85" y="15.12"/>
      <point x="445.1499999999999" y="62.525" type="curve"/>
      <point x="456.99499999999995" y="17.375"/>
      <point x="493.9549999999999" y="-10.0"/>
      <point x="546.865" y="-10.0" type="curve" smooth="yes"/>
      <point x="576.6450000000001" y="-10.0"/>
      <point x="613.755" y="-0.7049999999999992"/>
      <point x="640.08" y="16.72" type="curve"/>
      <point x="641.32" y="106.85" type="line"/>
      <point x="629.79" y="102.895"/>
      <point x="619.8449999999999" y="101.545"/>
      <point x="615.2099999999999" y="101.545" type="curve" smooth="yes"/>
      <point x="595.94" y="101.545"/>
      <point x="584.4399999999999" y="112.01500000000001"/>
      <point x="584.4399999999999" y="140.13000000000002" type="curve" smooth="yes"/>
      <point x="584.4399999999999" y="148.39000000000001"/>
      <point x="585.7099999999999" y="165.07500000000002"/>
      <point x="646.52" y="541.0" type="curve"/>
      <point x="501.69500000000005" y="541.0" type="line"/>
      <point x="440.875" y="147.94000000000003" type="line"/>
      <point x="386.85499999999996" y="119.815"/>
      <point x="335.19" y="101.79000000000002"/>
      <point x="280.43" y="101.79000000000002" type="curve" smooth="yes"/>
      <point x="227.315" y="101.79000000000002"/>
      <point x="200.165" y="125.92500000000001"/>
      <point x="200.49500000000003" y="171.05" type="curve" smooth="yes"/>
      <point x="204.29" y="207.81000000000003"/>
      <point x="212.99" y="267.78"/>
      <point x="257.91" y="541.0" type="curve"/>
      <point x="113.235" y="541.0" type="line"/>
    </contour>
  </outline>
</glyph>
<glyph name="paragraph" format="2">
  <advance width="688.465"/>
  <unicode hex="00B6"/>
  <outline>
    <contour>
      <point x="424.86" y="-210.0" type="line"/>
      <point x="533.115" y="-210.0" type="line"/>
      <point x="683.995" y="740.0" type="line"/>
      <point x="575.74" y="740.0" type="line"/>
    </contour>
    <contour>
      <point x="276.22499999999997" y="282.535" type="line"/>
      <point x="224.785" y="290.93"/>
      <point x="189.185" y="334.29499999999996"/>
      <point x="189.185" y="401.495" type="curve" smooth="yes"/>
      <point x="189.185" y="513.735"/>
      <point x="244.13500000000002" y="625.105"/>
      <point x="372.455" y="627.1899999999999" type="curve"/>
      <point x="240.08499999999995" y="-210.0" type="line"/>
      <point x="348.34000000000003" y="-210.0" type="line"/>
      <point x="499.22" y="740.0" type="line"/>
      <point x="422.42" y="740.0" type="line" smooth="yes"/>
      <point x="196.04999999999998" y="740.0"/>
      <point x="71.60999999999999" y="612.5649999999999"/>
      <point x="71.60999999999999" y="399.605" type="curve" smooth="yes"/>
      <point x="71.60999999999999" y="285.21999999999997"/>
      <point x="135.56" y="213.88500000000002"/>
      <point x="251.15" y="200.245" type="curve"/>
    </contour>
  </outline>
</glyph>
<glyph name="periodcentered" format="2">
  <advance width="259.83"/>
  <unicode hex="00B7"/>
  <outline>
    <contour>
      <point x="53.08" y="289.15000000000003" type="curve" smooth="yes"/>
      <point x="52.18" y="252.27"/>
      <point x="73.85" y="233.77"/>
      <point x="122.25" y="233.77" type="curve" smooth="yes"/>
      <point x="183.17" y="233.77"/>
      <point x="214.37000000000003" y="266.04"/>
      <point x="215.26999999999998" y="321.09" type="curve" smooth="yes"/>
      <point x="216.17" y="358.5"/>
      <point x="194.05" y="377.00000000000006"/>
      <point x="146.20000000000002" y="377.00000000000006" type="curve" smooth="yes"/>
      <point x="86.73" y="377.00000000000006"/>
      <point x="53.98" y="342.57"/>
    </contour>
  </outline>
</glyph>
<glyph name="uni00B9" format="2">
  <advance width="438.36999999999995"/>
  <unicode hex="00B9"/>
  <outline>
    <contour>
      <point x="53.58500000000001" y="370.0" type="line"/>
      <point x="430.73" y="370.0" type="line"/>
      <point x="442.135" y="436.625" type="line"/>
      <point x="317.445" y="436.625" type="line"/>
      <point x="371.22499999999997" y="766.73" type="line"/>
      <point x="312.745" y="766.73" type="line"/>
      <point x="92.28500000000001" y="680.59" type="line"/>
      <point x="102.465" y="606.67" type="line"/>
      <point x="249.19000000000003" y="666.03" type="line"/>
      <point x="210.73999999999998" y="436.625" type="line"/>
      <point x="64.48" y="436.625" type="line"/>
    </contour>
  </outline>
</glyph>
<glyph name="ordmasculine" format="2">
  <advance width="444.23"/>
  <unicode hex="00BA"/>
  <outline>
    <contour>
      <point x="34.02" y="232.60999999999999" type="line"/>
      <point x="394.715" y="232.60999999999999" type="line"/>
      <point x="406.16" y="306.60499999999996" type="line"/>
      <point x="45.465" y="306.60499999999996" type="line"/>
    </contour>
    <component base="o.superior" xOffset="9.35"/>
  </outline>
</glyph>
<glyph name="AE" format="2">
  <advance width="1172.2499999999998"/>
  <unicode hex="00C6"/>
  <anchor x="550.07332" y="0.0" name="bottom"/>
  <anchor x="678.69" y="700.0" name="top"/>
  <outline>
    <contour>
      <point x="480.93999999999994" y="0.0" type="line"/>
      <point x="1090.4299999999998" y="0.0" type="line"/>
      <point x="1110.21" y="121.69" type="line"/>
      <point x="644.42" y="121.69" type="line"/>
      <point x="672.59" y="298.74" type="line"/>
      <point x="1087.5599999999997" y="298.74" type="line"/>
      <point x="1107.06" y="416.58000000000004" type="line"/>
      <point x="691.6100000000001" y="416.58000000000004" type="line"/>
      <point x="717.08" y="578.1600000000001" type="line"/>
      <point x="1161.29" y="578.1600000000001" type="line"/>
      <point x="1181.58" y="700.0" type="line"/>
      <point x="504.59000000000003" y="700.0" type="line"/>
      <point x="-41.75" y="0.0" type="line"/>
      <point x="126.26" y="0.0" type="line"/>
      <point x="302.03999999999996" y="225.85" type="line"/>
      <point x="516.3699999999999" y="225.85" type="line"/>
    </contour>
    <contour>
      <point x="377.71999999999997" y="332.42" type="line"/>
      <point x="574.19" y="595.3700000000001" type="line"/>
      <point x="532.96" y="332.42" type="line"/>
    </contour>
  </outline>
</glyph>
<glyph name="multiply" format="2">
  <advance width="508.69999999999993"/>
  <unicode hex="00D7"/>
  <outline>
    <contour>
      <point x="96.58500000000001" y="88.75" type="line"/>
      <point x="249.89" y="232.92" type="line"/>
      <point x="357.055" y="85.38000000000001" type="line"/>
      <point x="438.585" y="171.225" type="line"/>
      <point x="338.825" y="307.96000000000004" type="line"/>
      <point x="486.37" y="448.45" type="line"/>
      <point x="424.175" y="530.375" type="line"/>
      <point x="271.92499999999995" y="386.065" type="line"/>
      <point x="161.54" y="533.915" type="line"/>
      <point x="80.86500000000001" y="451.625" type="line"/>
      <point x="183.71999999999997" y="310.42" type="line"/>
      <point x="34.065" y="168.74999999999997" type="line"/>
    </contour>
  </outline>
</glyph>
<glyph name="Oslash" format="2">
  <advance width="885.8500000000001"/>
  <unicode hex="00D8"/>
  <anchor x="492.0" y="700.0" name="top"/>
  <outline>
    <contour>
      <point x="919.15" y="711.0" type="line"/>
      <point x="778.1999999999999" y="711.0" type="line"/>
      <point x="668.6500000000001" y="611.75" type="line"/>
      <point x="667.9499999999999" y="611.3000000000001" type="line"/>
      <point x="162.54999999999998" y="160.10000000000005" type="line"/>
      <point x="161.39999999999998" y="159.64999999999998" type="line"/>
      <point x="-21.9" y="-6.200000000000001" type="line"/>
      <point x="118.95" y="-6.200000000000001" type="line"/>
      <point x="225.34999999999997" y="90.05" type="line"/>
      <point x="226.05" y="90.50000000000001" type="line"/>
      <point x="743.55" y="550.4499999999999" type="line"/>
      <point x="744.65" y="550.9000000000001" type="line"/>
    </contour>
    <contour>
      <point x="421.04999999999995" y="-8.899999999999999" type="curve" smooth="yes"/>
      <point x="690.9" y="-8.899999999999999"/>
      <point x="844.75" y="150.65"/>
      <point x="845.3" y="400.94999999999993" type="curve" smooth="yes"/>
      <point x="845.6999999999999" y="598.45"/>
      <point x="725.2500000000001" y="709.35"/>
      <point x="476.20000000000005" y="709.35" type="curve" smooth="yes"/>
      <point x="206.35000000000002" y="709.35"/>
      <point x="52.49999999999999" y="550.25"/>
      <point x="51.949999999999996" y="299.05" type="curve" smooth="yes"/>
      <point x="51.54999999999999" y="101.55"/>
      <point x="171.99999999999997" y="-8.899999999999999"/>
    </contour>
    <contour>
      <point x="430.15" y="102.45000000000002" type="curve" smooth="yes"/>
      <point x="281.6" y="102.45000000000002"/>
      <point x="204.0" y="165.65000000000003"/>
      <point x="204.0" y="296.9" type="curve" smooth="yes"/>
      <point x="204.0" y="486.95"/>
      <point x="302.2" y="598.0000000000001"/>
      <point x="468.9" y="598.0000000000001" type="curve" smooth="yes"/>
      <point x="616.05" y="598.0000000000001"/>
      <point x="693.2500000000001" y="534.8"/>
      <point x="693.2500000000001" y="403.49999999999994" type="curve" smooth="yes"/>
      <point x="693.2500000000001" y="222.45000000000002"/>
      <point x="595.95" y="102.45000000000002"/>
    </contour>
  </outline>
</glyph>
<glyph name="Thorn" format="2">
  <advance width="817.0749999999998"/>
  <unicode hex="00DE"/>
  <outline>
    <contour>
      <point x="36.62499999999999" y="0.0" type="line"/>
      <point x="187.35" y="0.0" type="line"/>
      <point x="208.2" y="127.69999999999999" type="line"/>
      <point x="293.84999999999997" y="124.14999999999999"/>
      <point x="333.625" y="123.37499999999999"/>
      <point x="395.82499999999993" y="123.37499999999999" type="curve" smooth="yes"/>
      <point x="681.05" y="123.37499999999999"/>
      <point x="801.9749999999999" y="211.9"/>
      <point x="801.9749999999999" y="414.475" type="curve" smooth="yes"/>
      <point x="801.9749999999999" y="558.3000000000001"/>
      <point x="711.8749999999998" y="628.925"/>
      <point x="457.59999999999997" y="628.925" type="curve" smooth="yes"/>
      <point x="425.7" y="628.925"/>
      <point x="377.925" y="627.7"/>
      <point x="287.75" y="624.5" type="curve"/>
      <point x="300.375" y="700.0" type="line"/>
      <point x="149.64999999999998" y="700.0" type="line"/>
    </contour>
    <contour>
      <point x="388.275" y="237.35000000000002" type="curve" smooth="yes"/>
      <point x="329.59999999999997" y="237.35000000000002"/>
      <point x="296.6" y="238.075"/>
      <point x="227.15000000000003" y="241.8" type="curve"/>
      <point x="269.525" y="510.07500000000005" type="line"/>
      <point x="371.97499999999997" y="514.925"/>
      <point x="401.225" y="515.875"/>
      <point x="451.025" y="515.875" type="curve" smooth="yes"/>
      <point x="596.675" y="515.875"/>
      <point x="646.8499999999999" y="476.2"/>
      <point x="646.8499999999999" y="403.375" type="curve" smooth="yes"/>
      <point x="646.8499999999999" y="286.55"/>
      <point x="581.0999999999999" y="237.35000000000002"/>
    </contour>
  </outline>
</glyph>
<glyph name="germandbls" format="2">
  <advance width="796.1500000000001"/>
  <unicode hex="00DF"/>
  <outline>
    <contour>
      <point x="62.419999999999995" y="-13.339999999999993" type="line" smooth="yes"/>
      <point x="53.28" y="-71.86"/>
      <point x="32.769999999999996" y="-105.2"/>
      <point x="-7.410000000000008" y="-105.2" type="curve" smooth="yes"/>
      <point x="-19.740000000000013" y="-105.2"/>
      <point x="-35.39000000000001" y="-103.25999999999999"/>
      <point x="-51.84000000000002" y="-97.51999999999998" type="curve"/>
      <point x="-78.80999999999999" y="-201.39" type="line"/>
      <point x="-48.04000000000001" y="-214.78"/>
      <point x="-10.090000000000005" y="-220.0"/>
      <point x="27.019999999999996" y="-220.0" type="curve" smooth="yes"/>
      <point x="125.78999999999999" y="-220.0"/>
      <point x="181.92" y="-152.14999999999998"/>
      <point x="200.76000000000002" y="-31.949999999999996" type="curve" smooth="yes"/>
      <point x="283.27000000000004" y="488.08" type="line" smooth="yes"/>
      <point x="301.09999999999997" y="599.82"/>
      <point x="365.12000000000006" y="645.6199999999999"/>
      <point x="489.8499999999999" y="645.6199999999999" type="curve" smooth="yes"/>
      <point x="571.38" y="645.6199999999999"/>
      <point x="613.1399999999999" y="627.0699999999999"/>
      <point x="613.1399999999999" y="594.39" type="curve" smooth="yes"/>
      <point x="613.1399999999999" y="563.16"/>
      <point x="595.7299999999999" y="545.82"/>
      <point x="497.20000000000005" y="525.1800000000001" type="curve" smooth="yes"/>
      <point x="387.52" y="500.34999999999997"/>
      <point x="333.87000000000006" y="456.11"/>
      <point x="333.87000000000006" y="365.07" type="curve" smooth="yes"/>
      <point x="333.87000000000006" y="282.15999999999997"/>
      <point x="388.25" y="242.32"/>
      <point x="510.08000000000004" y="218.04999999999998" type="curve" smooth="yes"/>
      <point x="606.9300000000002" y="198.45"/>
      <point x="643.0099999999999" y="183.78"/>
      <point x="643.0099999999999" y="150.07000000000002" type="curve" smooth="yes"/>
      <point x="643.0099999999999" y="107.60000000000002"/>
      <point x="591.6000000000001" y="89.21000000000002"/>
      <point x="510.03" y="89.21000000000002" type="curve" smooth="yes"/>
      <point x="445.91999999999996" y="89.21000000000002"/>
      <point x="356.56999999999994" y="104.13000000000001"/>
      <point x="295.46" y="124.66" type="curve"/>
      <point x="266.87" y="28.070000000000004" type="line"/>
      <point x="336.03" y="4.789999999999999"/>
      <point x="419.40999999999997" y="-10.43"/>
      <point x="496.58" y="-10.43" type="curve" smooth="yes"/>
      <point x="683.58" y="-10.43"/>
      <point x="776.41" y="45.010000000000005"/>
      <point x="776.41" y="163.67000000000002" type="curve" smooth="yes"/>
      <point x="776.41" y="240.94999999999996"/>
      <point x="721.5200000000001" y="289.77"/>
      <point x="608.2099999999999" y="311.84" type="curve" smooth="yes"/>
      <point x="495.80999999999995" y="333.69"/>
      <point x="461.64" y="344.05999999999995"/>
      <point x="461.64" y="378.75" type="curve" smooth="yes"/>
      <point x="461.64" y="412.76"/>
      <point x="496.37" y="424.15999999999997"/>
      <point x="593.63" y="446.41" type="curve" smooth="yes"/>
      <point x="698.88" y="469.73"/>
      <point x="737.25" y="517.64"/>
      <point x="737.25" y="601.07" type="curve" smooth="yes"/>
      <point x="737.25" y="696.57"/>
      <point x="654.65" y="750.0"/>
      <point x="492.22" y="750.0" type="curve" smooth="yes"/>
      <point x="280.50999999999993" y="750.0"/>
      <point x="174.52" y="678.0699999999999"/>
      <point x="146.64999999999998" y="509.41" type="curve" smooth="yes"/>
      <point x="143.82999999999998" y="491.65000000000003" type="line"/>
      <point x="44.28999999999999" y="479.25" type="line"/>
      <point x="28.22" y="388.64" type="line"/>
      <point x="126.06" y="388.64" type="line"/>
    </contour>
  </outline>
</glyph>
<glyph name="ae" format="2">
  <advance width="1059.2"/>
  <unicode hex="00E6"/>
  <anchor x="488.20000000000005" y="0.0" name="bottom"/>
  <anchor x="568.1" y="541.0" name="top"/>
  <outline>
    <contour>
      <point x="231.09999999999997" y="-10.0" type="curve" smooth="yes"/>
      <point x="300.7" y="-10.0"/>
      <point x="370.2" y="15.299999999999999"/>
      <point x="426.2" y="50.9" type="curve"/>
      <point x="417.6499999999999" y="-1.3500000000000005" type="line"/>
      <point x="547.0" y="-1.3500000000000005" type="line"/>
      <point x="559.05" y="73.30000000000001" type="line"/>
      <point x="593.5" y="25.899999999999995"/>
      <point x="660.75" y="-9.499999999999998"/>
      <point x="761.0999999999999" y="-9.499999999999998" type="curve" smooth="yes"/>
      <point x="835.95" y="-9.499999999999998"/>
      <point x="919.55" y="5.549999999999998"/>
      <point x="986.1499999999999" y="30.650000000000002" type="curve"/>
      <point x="972.4499999999998" y="133.29999999999998" type="line"/>
      <point x="899.2999999999998" y="108.65000000000003"/>
      <point x="825.2500000000001" y="95.25"/>
      <point x="769.6" y="95.25" type="curve" smooth="yes"/>
      <point x="657.25" y="95.25"/>
      <point x="585.6" y="145.95000000000002"/>
      <point x="585.6" y="225.65" type="curve" smooth="yes"/>
      <point x="585.6" y="352.05"/>
      <point x="668.85" y="451.4"/>
      <point x="791.7499999999998" y="451.4" type="curve" smooth="yes"/>
      <point x="857.9499999999999" y="451.4"/>
      <point x="891.7" y="431.15"/>
      <point x="891.7" y="391.54999999999995" type="curve" smooth="yes"/>
      <point x="891.7" y="338.7"/>
      <point x="822.7499999999999" y="309.54999999999995"/>
      <point x="700.7999999999998" y="299.34999999999997" type="curve" smooth="yes"/>
      <point x="651.0" y="295.0"/>
      <point x="603.2500000000001" y="296.2"/>
      <point x="562.3000000000001" y="301.80000000000007" type="curve"/>
      <point x="563.15" y="223.14999999999998" type="line"/>
      <point x="612.7499999999999" y="214.85"/>
      <point x="676.1" y="211.95"/>
      <point x="745.6500000000001" y="217.34999999999997" type="curve" smooth="yes"/>
      <point x="935.5" y="229.45000000000002"/>
      <point x="1039.7" y="302.29999999999995"/>
      <point x="1039.7" y="406.65" type="curve" smooth="yes"/>
      <point x="1039.7" y="496.84999999999997"/>
      <point x="965.8499999999999" y="551.0"/>
      <point x="842.6499999999999" y="551.0" type="curve" smooth="yes"/>
      <point x="746.1999999999999" y="551.0"/>
      <point x="666.65" y="518.5999999999999"/>
      <point x="622.3" y="471.29999999999995" type="curve"/>
      <point x="633.1499999999999" y="544.0" type="line"/>
      <point x="503.8" y="544.0" type="line"/>
      <point x="498.20000000000005" y="507.49999999999994" type="line"/>
      <point x="460.2" y="536.7500000000001"/>
      <point x="411.50000000000006" y="551.0"/>
      <point x="353.9000000000001" y="551.0" type="curve" smooth="yes"/>
      <point x="162.65000000000003" y="551.0"/>
      <point x="30.299999999999997" y="405.9"/>
      <point x="30.299999999999997" y="196.04999999999995" type="curve" smooth="yes"/>
      <point x="30.299999999999997" y="60.29999999999999"/>
      <point x="106.69999999999999" y="-10.0"/>
    </contour>
    <contour>
      <point x="299.35" y="97.45" type="curve" smooth="yes"/>
      <point x="227.69999999999996" y="97.45"/>
      <point x="176.50000000000003" y="135.79999999999998"/>
      <point x="176.50000000000003" y="215.80000000000004" type="curve" smooth="yes"/>
      <point x="176.50000000000003" y="365.59999999999997"/>
      <point x="283.4" y="451.65"/>
      <point x="382.79999999999995" y="451.65" type="curve" smooth="yes"/>
      <point x="423.00000000000006" y="451.65"/>
      <point x="454.04999999999995" y="445.95"/>
      <point x="485.3" y="425.65000000000003" type="curve"/>
      <point x="439.84999999999997" y="138.4" type="line"/>
      <point x="398.25" y="113.80000000000001"/>
      <point x="346.4" y="97.45"/>
    </contour>
  </outline>
</glyph>
<glyph name="eth" format="2">
  <advance width="708.75"/>
  <unicode hex="00F0"/>
  <outline>
    <contour>
      <point x="560.3500000000001" y="381.55" type="curve"/>
      <point x="577.0500000000002" y="472.65" type="line"/>
      <point x="520.5" y="510.65000000000003"/>
      <point x="434.79999999999995" y="528.6"/>
      <point x="352.55" y="528.6" type="curve" smooth="yes"/>
      <point x="155.79999999999998" y="528.6"/>
      <point x="32.35000000000001" y="404.85"/>
      <point x="32.35000000000001" y="222.35000000000002" type="curve" smooth="yes"/>
      <point x="32.35000000000001" y="50.45"/>
      <point x="151.45000000000002" y="-8.950000000000003"/>
      <point x="308.4" y="-8.950000000000003" type="curve" smooth="yes"/>
      <point x="511.39999999999986" y="-8.950000000000003"/>
      <point x="638.75" y="88.3"/>
      <point x="677.9499999999998" y="317.6" type="curve" smooth="yes"/>
      <point x="684.8999999999999" y="357.65"/>
      <point x="687.8499999999999" y="393.5"/>
      <point x="687.8499999999999" y="426.70000000000005" type="curve" smooth="yes"/>
      <point x="687.8499999999999" y="653.4499999999999"/>
      <point x="519.85" y="739.6499999999999"/>
      <point x="262.74999999999994" y="739.6499999999999" type="curve" smooth="yes"/>
      <point x="201.70000000000002" y="739.6499999999999"/>
      <point x="151.99999999999997" y="732.1500000000001"/>
      <point x="100.94999999999997" y="722.8" type="curve"/>
      <point x="94.59999999999998" y="637.5000000000001" type="line"/>
      <point x="138.4" y="643.7500000000001"/>
      <point x="170.20000000000002" y="650.5999999999999"/>
      <point x="245.74999999999997" y="650.5999999999999" type="curve" smooth="yes"/>
      <point x="453.19999999999993" y="650.5999999999999"/>
      <point x="543.6000000000001" y="588.55"/>
      <point x="543.6000000000001" y="451.05000000000007" type="curve" smooth="yes"/>
      <point x="543.6000000000001" y="418.29999999999995"/>
      <point x="541.15" y="381.75"/>
      <point x="533.1999999999999" y="336.7" type="curve" smooth="yes"/>
      <point x="502.2" y="154.29999999999998"/>
      <point x="434.34999999999997" y="90.55"/>
      <point x="321.8" y="90.55" type="curve" smooth="yes"/>
      <point x="231.6" y="90.55"/>
      <point x="174.74999999999997" y="129.85"/>
      <point x="174.74999999999997" y="222.79999999999998" type="curve" smooth="yes"/>
      <point x="174.74999999999997" y="349.7"/>
      <point x="258.99999999999994" y="434.09999999999997"/>
      <point x="377.3999999999999" y="434.09999999999997" type="curve" smooth="yes"/>
      <point x="451.99999999999994" y="434.09999999999997"/>
      <point x="512.55" y="415.54999999999995"/>
    </contour>
    <contour>
      <point x="259.00000000000006" y="545.7" type="line"/>
      <point x="496.99999999999994" y="647.4500000000002" type="line"/>
      <point x="489.35" y="650.7" type="line"/>
      <point x="718.3" y="748.4499999999999" type="line"/>
      <point x="568.0" y="748.4999999999999" type="line"/>
      <point x="416.59999999999997" y="684.15" type="line"/>
      <point x="425.29999999999995" y="681.4499999999999" type="line"/>
      <point x="110.44999999999996" y="545.6999999999999" type="line"/>
    </contour>
  </outline>
</glyph>
<glyph name="divide" format="2">
  <advance width="558.1700000000001"/>
  <unicode hex="00F7"/>
  <outline>
    <contour>
      <point x="187.14000000000001" y="103.55000000000001" type="curve" smooth="yes"/>
      <point x="186.24" y="75.28999999999999"/>
      <point x="204.44" y="62.14999999999998"/>
      <point x="244.74" y="62.14999999999998" type="curve" smooth="yes"/>
      <point x="291.84" y="62.14999999999998"/>
      <point x="320.38" y="79.67999999999999"/>
      <point x="322.18" y="133.43000000000004" type="curve" smooth="yes"/>
      <point x="323.08" y="161.69"/>
      <point x="304.95" y="174.73000000000002"/>
      <point x="264.71000000000004" y="174.73000000000002" type="curve" smooth="yes"/>
      <point x="218.06" y="174.73000000000002"/>
      <point x="188.94" y="153.95000000000002"/>
    </contour>
    <contour>
      <point x="248.73000000000002" y="481.9" type="curve" smooth="yes"/>
      <point x="247.82999999999998" y="454.60999999999996"/>
      <point x="264.96" y="440.6"/>
      <point x="306.23" y="440.6" type="curve" smooth="yes"/>
      <point x="353.4" y="440.6"/>
      <point x="380.93000000000006" y="459.61999999999995"/>
      <point x="382.7300000000001" y="512.37" type="curve" smooth="yes"/>
      <point x="383.63000000000005" y="541.11"/>
      <point x="365.99000000000007" y="553.6300000000001"/>
      <point x="325.2300000000001" y="553.6300000000001" type="curve" smooth="yes"/>
      <point x="277.45000000000005" y="553.6300000000001"/>
      <point x="250.53000000000003" y="531.8"/>
    </contour>
    <contour>
      <point x="51.98999999999999" y="250.34999999999997" type="line"/>
      <point x="497.75" y="250.34999999999997" type="line"/>
      <point x="517.15" y="364.8999999999999" type="line"/>
      <point x="70.94" y="364.8999999999999" type="line"/>
    </contour>
  </outline>
</glyph>
<glyph name="oslash" format="2">
  <advance width="679.4499999999999"/>
  <unicode hex="00F8"/>
  <anchor x="371.45" y="541.0" name="top"/>
  <outline>
    <contour>
      <point x="583.0500000000001" y="552.5000000000001" type="line"/>
      <point x="500.9499999999999" y="471.29999999999995" type="line"/>
      <point x="499.35" y="472.35" type="line"/>
      <point x="148.99999999999997" y="122.30000000000001" type="line"/>
      <point x="147.04999999999998" y="123.85000000000004" type="line"/>
      <point x="13.749999999999995" y="-9.95" type="line"/>
      <point x="113.14999999999999" y="-9.95" type="line"/>
      <point x="196.2" y="73.90000000000002" type="line"/>
      <point x="198.25" y="72.85000000000001" type="line"/>
      <point x="552.9499999999999" y="425.29999999999995" type="line"/>
      <point x="554.4499999999999" y="423.75000000000006" type="line"/>
      <point x="682.6999999999998" y="552.5000000000001" type="line"/>
    </contour>
    <contour>
      <point x="329.79999999999995" y="-9.95" type="curve" smooth="yes"/>
      <point x="540.3" y="-9.95"/>
      <point x="644.1000000000001" y="128.60000000000002"/>
      <point x="643.2" y="321.1" type="curve" smooth="yes"/>
      <point x="642.3000000000001" y="472.45"/>
      <point x="538.35" y="552.4500000000002"/>
      <point x="354.05000000000007" y="552.4500000000002" type="curve" smooth="yes"/>
      <point x="140.45000000000002" y="552.4500000000002"/>
      <point x="37.49999999999999" y="407.65000000000003"/>
      <point x="38.39999999999999" y="220.5" type="curve" smooth="yes"/>
      <point x="39.29999999999999" y="70.04999999999998"/>
      <point x="141.45" y="-9.95"/>
    </contour>
    <contour>
      <point x="329.25" y="89.80000000000001" type="curve" smooth="yes"/>
      <point x="234.9" y="89.30000000000001"/>
      <point x="182.05" y="129.75"/>
      <point x="181.5" y="220.89999999999998" type="curve" smooth="yes"/>
      <point x="180.25" y="335.65000000000003"/>
      <point x="233.04999999999998" y="451.7"/>
      <point x="352.34999999999997" y="452.7" type="curve" smooth="yes"/>
      <point x="445.7" y="453.2"/>
      <point x="498.65" y="411.8"/>
      <point x="499.20000000000005" y="321.1000000000001" type="curve" smooth="yes"/>
      <point x="500.45" y="198.70000000000007"/>
      <point x="446.2999999999999" y="90.75"/>
    </contour>
  </outline>
</glyph>
<glyph name="thorn" format="2">
  <advance width="686.2"/>
  <unicode hex="00FE"/>
  <outline>
    <contour>
      <point x="-5.295000000000007" y="-210.0" type="line"/>
      <point x="138.42" y="-210.0" type="line"/>
      <point x="172.915" y="4.634999999999999" type="line"/>
      <point x="205.565" y="-2.570000000000001"/>
      <point x="250.23" y="-9.725"/>
      <point x="301.385" y="-9.725" type="curve" smooth="yes"/>
      <point x="530.325" y="-9.725"/>
      <point x="655.915" y="138.325"/>
      <point x="655.915" y="351.14500000000004" type="curve" smooth="yes"/>
      <point x="655.915" y="478.14"/>
      <point x="591.8549999999999" y="551.0"/>
      <point x="469.36999999999995" y="551.0" type="curve" smooth="yes"/>
      <point x="381.47" y="551.0"/>
      <point x="316.78000000000003" y="519.5700000000002"/>
      <point x="246.0" y="473.50000000000006" type="curve"/>
      <point x="288.005" y="740.0" type="line"/>
      <point x="144.98000000000002" y="740.0" type="line"/>
    </contour>
    <contour>
      <point x="300.055" y="93.29" type="curve" smooth="yes"/>
      <point x="256.515" y="93.29"/>
      <point x="219.0" y="101.11500000000001"/>
      <point x="189.39" y="108.965" type="curve"/>
      <point x="232.23499999999999" y="377.775" type="line"/>
      <point x="287.225" y="412.385"/>
      <point x="343.75999999999993" y="433.41"/>
      <point x="397.32" y="433.41" type="curve" smooth="yes"/>
      <point x="469.17499999999995" y="433.41"/>
      <point x="510.13999999999993" y="396.57500000000005"/>
      <point x="510.13999999999993" y="317.03" type="curve" smooth="yes"/>
      <point x="510.13999999999993" y="194.25"/>
      <point x="425.2" y="93.29"/>
    </contour>
  </outline>
</glyph>
<glyph name="Dcroat" format="2">
  <advance width="869.4300000000001"/>
  <unicode hex="0110"/>
  <outline>
    <contour>
      <point x="19.07" y="304.09999999999997" type="line"/>
      <point x="408.35999999999996" y="304.09999999999997" type="line"/>
      <point x="427.23" y="410.14000000000004" type="line"/>
      <point x="37.28" y="410.14000000000004" type="line"/>
    </contour>
    <component base="D" xOffset="6.91"/>
  </outline>
</glyph>
<glyph name="dcroat" format="2">
  <advance width="703.4100000000001"/>
  <unicode hex="0111"/>
  <outline>
    <contour>
      <point x="351.54999999999995" y="605.7099999999999" type="line"/>
      <point x="747.76" y="605.7099999999999" type="line"/>
      <point x="760.58" y="676.76" type="line"/>
      <point x="364.4" y="676.76" type="line"/>
    </contour>
    <component base="d"/>
  </outline>
</glyph>
<glyph name="Hbar" format="2">
  <advance width="873.93"/>
  <unicode hex="0126"/>
  <outline>
    <contour>
      <point x="58.405" y="495.595" type="line"/>
      <point x="887.14" y="495.595" type="line"/>
      <point x="902.7099999999998" y="594.01" type="line"/>
      <point x="73.975" y="594.01" type="line"/>
    </contour>
    <component base="H" xOffset="1.6600000000000001"/>
  </outline>
</glyph>
<glyph name="hbar" format="2">
  <advance width="688.82"/>
  <unicode hex="0127"/>
  <outline>
    <contour>
      <point x="42.1" y="605.7099999999999" type="line"/>
      <point x="433.23999999999995" y="605.7099999999999" type="line"/>
      <point x="445.60999999999996" y="676.76" type="line"/>
      <point x="54.46999999999999" y="676.76" type="line"/>
    </contour>
    <component base="h" xOffset="-1.08"/>
  </outline>
</glyph>
<glyph name="Idotaccent" format="2">
  <advance width="313.34499999999997"/>
  <unicode hex="0130"/>
  <outline>
    <contour>
      <point x="256.985" y="904.9000000000001" type="curve" smooth="yes"/>
      <point x="188.905" y="904.9000000000001"/>
      <point x="158.345" y="876.8"/>
      <point x="157.62499999999997" y="820.875" type="curve" smooth="yes"/>
      <point x="157.49" y="786.515"/>
      <point x="181.67000000000002" y="768.4350000000001"/>
      <point x="233.335" y="768.4350000000001" type="curve" smooth="yes"/>
      <point x="292.375" y="768.4350000000001"/>
      <point x="331.905" y="791.475"/>
      <point x="332.94" y="853.325" type="curve" smooth="yes"/>
      <point x="333.075" y="886.985"/>
      <point x="309.675" y="904.9000000000001"/>
    </contour>
    <component base="I"/>
  </outline>
</glyph>
<glyph name="dotlessi" format="2">
  <advance width="287.29499999999996"/>
  <unicode hex="0131"/>
  <anchor x="99.67594" y="0.0" name="bottom"/>
  <anchor x="172.425" y="0.0" name="ogonek"/>
  <anchor x="185.68406000000002" y="541.0" name="top"/>
  <outline>
    <contour>
      <point x="172.425" y="0.0" type="line"/>
      <point x="257.69" y="541.0" type="line"/>
      <point x="113.45499999999998" y="541.0" type="line"/>
      <point x="27.554999999999996" y="0.385" type="line"/>
    </contour>
  </outline>
</glyph>
<glyph name="kgreenlandic" format="2">
  <advance width="641.9000000000001"/>
  <unicode hex="0138"/>
  <anchor x="289.95" y="0.0" name="bottom"/>
  <anchor x="373.4556" y="541.0" name="top"/>
  <outline>
    <contour>
      <point x="27.75" y="0.0" type="line"/>
      <point x="172.55" y="0.0" type="line"/>
      <point x="258.8" y="541.0" type="line"/>
      <point x="112.99999999999999" y="541.0" type="line"/>
    </contour>
    <contour>
      <point x="554.95" y="-10.0" type="curve" smooth="yes"/>
      <point x="567.25" y="-10.0"/>
      <point x="580.0" y="-8.05"/>
      <point x="591.4499999999998" y="-4.55" type="curve"/>
      <point x="609.8" y="125.9" type="line"/>
      <point x="602.15" y="124.5"/>
      <point x="594.1499999999999" y="124.5"/>
      <point x="586.4499999999998" y="124.55" type="curve" smooth="yes"/>
      <point x="543.0" y="124.8"/>
      <point x="492.6" y="149.85000000000002"/>
      <point x="389.54999999999995" y="243.9" type="curve" smooth="yes"/>
      <point x="218.85" y="399.9" type="line"/>
      <point x="193.95000000000002" y="258.0" type="line"/>
      <point x="345.20000000000005" y="113.39999999999999" type="line" smooth="yes"/>
      <point x="435.49999999999994" y="27.4"/>
      <point x="493.94999999999993" y="-10.0"/>
    </contour>
    <contour>
      <point x="354.1499999999999" y="259.49999999999994" type="line"/>
      <point x="488.35" y="334.2"/>
      <point x="601.4000000000001" y="442.29999999999995"/>
      <point x="652.8999999999999" y="539.9499999999999" type="curve"/>
      <point x="490.44999999999993" y="551.0" type="line"/>
      <point x="433.2" y="452.1"/>
      <point x="366.15" y="387.55"/>
      <point x="241.30000000000004" y="314.30000000000007" type="curve"/>
    </contour>
  </outline>
</glyph>
<glyph name="Ldot" format="2">
  <advance width="680.24"/>
  <unicode hex="013F"/>
  <outline>
    <contour>
      <point x="443.98967" y="392.88873" type="curve" smooth="yes"/>
      <point x="443.40467" y="358.95982999999995"/>
      <point x="463.77423" y="342.015435"/>
      <point x="509.18807499999997" y="342.015435" type="curve" smooth="yes"/>
      <point x="564.711315" y="342.015435"/>
      <point x="594.36582" y="368.69823499999995"/>
      <point x="595.5808199999999" y="419.90186" type="curve" smooth="yes"/>
      <point x="596.1658199999999" y="454.24581500000005"/>
      <point x="575.9312600000001" y="471.32521"/>
      <point x="531.012305" y="471.32521" type="curve" smooth="yes"/>
      <point x="475.98412" y="471.32521"/>
      <point x="445.20466999999996" y="442.552355"/>
    </contour>
    <component base="L"/>
  </outline>
</glyph>
<glyph name="ldot" format="2">
  <advance width="395.68"/>
  <unicode hex="0140"/>
  <outline>
    <contour>
      <point x="310.49234999999993" y="375.755225" type="curve" smooth="yes"/>
      <point x="309.90735" y="349.49217000000004"/>
      <point x="323.14374" y="336.93892"/>
      <point x="353.45128500000004" y="336.93892" type="curve" smooth="yes"/>
      <point x="392.13825499999996" y="336.93892"/>
      <point x="410.37437500000004" y="358.380935"/>
      <point x="411.589375" y="398.29174" type="curve" smooth="yes"/>
      <point x="412.17437500000005" y="424.72449500000005"/>
      <point x="399.07298499999996" y="437.41274500000003"/>
      <point x="369.09362500000003" y="437.41274500000003" type="curve" smooth="yes"/>
      <point x="330.73429000000004" y="437.41274500000003"/>
      <point x="311.70734999999996" y="414.623835"/>
    </contour>
    <component base="l"/>
  </outline>
</glyph>
<glyph name="Lslash" format="2">
  <advance width="679.565"/>
  <unicode hex="0141"/>
  <outline>
    <contour>
      <point x="35.5" y="0.0" type="line"/>
      <point x="613.8899999999999" y="0.0" type="line"/>
      <point x="634.765" y="121.245" type="line"/>
      <point x="206.22" y="121.245" type="line"/>
      <point x="232.24" y="286.315" type="line"/>
      <point x="489.97999999999996" y="420.305" type="line"/>
      <point x="510.80999999999995" y="546.575" type="line"/>
      <point x="252.74" y="412.41999999999996" type="line"/>
      <point x="298.82" y="700.0" type="line"/>
      <point x="148.20499999999998" y="700.0" type="line"/>
      <point x="90.08999999999999" y="338.895" type="line"/>
      <point x="20.619999999999994" y="302.32" type="line"/>
      <point x="0.9199999999999946" y="177.84" type="line"/>
      <point x="69.45499999999998" y="214.03" type="line"/>
    </contour>
  </outline>
</glyph>
<glyph name="lslash" format="2">
  <advance width="358.55"/>
  <unicode hex="0142"/>
  <outline>
    <contour>
      <point x="1.1049999999999969" y="179.315" type="line"/>
      <point x="336.87500000000006" y="392.03499999999997" type="line"/>
      <point x="354.18500000000006" y="500.995" type="line"/>
      <point x="17.864999999999995" y="288.27500000000003" type="line"/>
    </contour>
    <component base="l" xOffset="3.3"/>
  </outline>
</glyph>
<glyph name="Eng" format="2">
  <advance width="845.3499999999999"/>
  <unicode hex="014A"/>
  <outline>
    <contour>
      <point x="36.17499999999999" y="0.0" type="line"/>
      <point x="176.50000000000003" y="0.0" type="line"/>
      <point x="252.02499999999998" y="471.875" type="line"/>
      <point x="585.05" y="0.574999999999998" type="line"/>
      <point x="569.5999999999999" y="-71.25"/>
      <point x="515.3" y="-92.74999999999999"/>
      <point x="448.875" y="-92.74999999999999" type="curve" smooth="yes"/>
      <point x="416.05" y="-93.64999999999998"/>
      <point x="384.04999999999995" y="-89.6"/>
      <point x="349.82499999999993" y="-80.05" type="curve"/>
      <point x="326.99999999999994" y="-192.57500000000002" type="line"/>
      <point x="370.69999999999993" y="-204.1"/>
      <point x="424.675" y="-207.79999999999998"/>
      <point x="455.37499999999994" y="-207.79999999999998" type="curve" smooth="yes"/>
      <point x="603.2249999999999" y="-207.65"/>
      <point x="694.4" y="-152.15"/>
      <point x="719.5500000000001" y="5.424999999999996" type="curve" smooth="yes"/>
      <point x="832.175" y="700.0" type="line"/>
      <point x="691.75" y="700.0" type="line"/>
      <point x="614.0749999999999" y="214.45" type="line"/>
      <point x="282.775" y="703.15" type="line"/>
      <point x="149.54999999999998" y="703.15" type="line"/>
    </contour>
  </outline>
</glyph>
<glyph name="eng" format="2">
  <advance width="683.47"/>
  <unicode hex="014B"/>
  <outline>
    <contour>
      <point x="566.995" y="-1.8299999999999912" type="curve" smooth="yes"/>
      <point x="580.56" y="84.75"/>
      <point x="634.2449999999999" y="402.02500000000003"/>
      <point x="634.2449999999999" y="421.35999999999996" type="curve" smooth="yes"/>
      <point x="634.2449999999999" y="498.8"/>
      <point x="578.5350000000001" y="551.0"/>
      <point x="472.30999999999995" y="551.0" type="curve" smooth="yes"/>
      <point x="388.07500000000005" y="551.0"/>
      <point x="324.06500000000005" y="524.4799999999999"/>
      <point x="232.76" y="477.8400000000001" type="curve"/>
      <point x="242.565" y="541.0" type="line"/>
      <point x="113.07" y="541.0" type="line"/>
      <point x="27.734999999999992" y="0.0" type="line"/>
      <point x="169.91" y="0.0" type="line"/>
      <point x="233.00500000000002" y="390.57500000000005" type="line"/>
      <point x="294.54999999999995" y="418.90500000000003"/>
      <point x="342.255" y="438.49500000000006"/>
      <point x="399.11499999999995" y="438.49500000000006" type="curve" smooth="yes"/>
      <point x="457.28999999999996" y="438.49500000000006"/>
      <point x="485.64" y="412.00999999999993"/>
      <point x="482.56" y="361.36000000000007" type="curve" smooth="yes"/>
      <point x="477.94" y="320.47"/>
      <point x="450.94" y="161.08"/>
      <point x="425.40999999999997" y="2.1250000000000036" type="curve" smooth="yes"/>
      <point x="414.12999999999994" y="-67.51999999999998"/>
      <point x="388.33" y="-100.83"/>
      <point x="336.47999999999996" y="-100.83" type="curve" smooth="yes"/>
      <point x="328.31499999999994" y="-100.83"/>
      <point x="317.855" y="-100.065"/>
      <point x="305.895" y="-96.0" type="curve"/>
      <point x="280.48999999999995" y="-214.31" type="line"/>
      <point x="301.08" y="-219.16000000000003"/>
      <point x="340.75499999999994" y="-221.89"/>
      <point x="368.195" y="-221.89" type="curve" smooth="yes"/>
      <point x="483.6" y="-221.89"/>
      <point x="544.185" y="-151.275"/>
    </contour>
  </outline>
</glyph>
